G75*
%MOIN*%
%OFA0B0*%
%FSLAX24Y24*%
%IPPOS*%
%LPD*%
%AMOC8*
5,1,8,0,0,1.08239X$1,22.5*
%
%ADD10C,0.0000*%
%ADD11C,0.0060*%
%ADD12C,0.0300*%
%ADD13C,0.0110*%
D10*
X000180Y002550D02*
X002430Y002550D01*
X002430Y006300D01*
X003055Y006300D01*
X003055Y002550D01*
X015805Y002550D01*
X015805Y006300D01*
X016430Y006300D01*
X016430Y002550D01*
X018680Y002550D01*
X018680Y015550D01*
X017555Y015550D01*
X017555Y016300D01*
X016930Y016300D01*
X016930Y018050D01*
X017555Y018050D01*
X017555Y022050D01*
X018680Y022050D01*
X018680Y035050D01*
X000180Y035050D01*
X000180Y022050D01*
X001305Y022050D01*
X001305Y018050D01*
X001930Y018050D01*
X001930Y016300D01*
X001305Y016300D01*
X001305Y015550D01*
X000180Y015550D01*
X000180Y002550D01*
D11*
X002480Y008825D02*
X016380Y008825D01*
X016380Y010925D01*
X016336Y010927D01*
X016293Y010933D01*
X016251Y010942D01*
X016209Y010955D01*
X016169Y010972D01*
X016130Y010992D01*
X016093Y011015D01*
X016059Y011042D01*
X016026Y011071D01*
X015997Y011104D01*
X015970Y011138D01*
X015947Y011175D01*
X015927Y011214D01*
X015910Y011254D01*
X015897Y011296D01*
X015888Y011338D01*
X015882Y011381D01*
X015880Y011425D01*
X015882Y011469D01*
X015888Y011512D01*
X015897Y011554D01*
X015910Y011596D01*
X015927Y011636D01*
X015947Y011675D01*
X015970Y011712D01*
X015997Y011746D01*
X016026Y011779D01*
X016059Y011808D01*
X016093Y011835D01*
X016130Y011858D01*
X016169Y011878D01*
X016209Y011895D01*
X016251Y011908D01*
X016293Y011917D01*
X016336Y011923D01*
X016380Y011925D01*
X016380Y014025D01*
X002480Y014025D01*
X002480Y008825D01*
X003569Y015092D02*
X003569Y015432D01*
X003740Y015432D01*
X003796Y015375D01*
X003796Y015262D01*
X003740Y015205D01*
X003569Y015205D01*
X003437Y015205D02*
X003381Y015262D01*
X003381Y015489D01*
X003437Y015432D02*
X003324Y015432D01*
X003192Y015432D02*
X003078Y015432D01*
X003135Y015489D02*
X003135Y015262D01*
X003192Y015205D01*
X002937Y015205D02*
X002937Y015375D01*
X002880Y015432D01*
X002767Y015432D01*
X002710Y015375D01*
X002710Y015545D02*
X002710Y015205D01*
X003938Y015205D02*
X004108Y015205D01*
X004165Y015262D01*
X004108Y015318D01*
X003994Y015318D01*
X003938Y015375D01*
X003994Y015432D01*
X004165Y015432D01*
X004306Y015432D02*
X004306Y015375D01*
X004363Y015375D01*
X004363Y015432D01*
X004306Y015432D01*
X004306Y015262D02*
X004306Y015205D01*
X004363Y015205D01*
X004363Y015262D01*
X004306Y015262D01*
X004490Y015205D02*
X004717Y015545D01*
X004859Y015205D02*
X005085Y015545D01*
X005227Y015375D02*
X005227Y015262D01*
X005284Y015205D01*
X005454Y015205D01*
X005454Y015148D02*
X005454Y015432D01*
X005284Y015432D01*
X005227Y015375D01*
X005340Y015092D02*
X005397Y015092D01*
X005454Y015148D01*
X005595Y015205D02*
X005709Y015205D01*
X005652Y015205D02*
X005652Y015432D01*
X005595Y015432D01*
X005652Y015545D02*
X005652Y015602D01*
X005841Y015432D02*
X005954Y015432D01*
X005897Y015489D02*
X005897Y015262D01*
X005954Y015205D01*
X006086Y015205D02*
X006086Y015545D01*
X006143Y015432D02*
X006256Y015432D01*
X006313Y015375D01*
X006313Y015205D01*
X006455Y015262D02*
X006511Y015205D01*
X006681Y015205D01*
X006681Y015432D01*
X006823Y015432D02*
X006993Y015432D01*
X007050Y015375D01*
X007050Y015262D01*
X006993Y015205D01*
X006823Y015205D01*
X006823Y015545D01*
X006455Y015432D02*
X006455Y015262D01*
X006143Y015432D02*
X006086Y015375D01*
X007191Y015262D02*
X007248Y015262D01*
X007248Y015205D01*
X007191Y015205D01*
X007191Y015262D01*
X007375Y015262D02*
X007432Y015205D01*
X007602Y015205D01*
X007744Y015262D02*
X007800Y015205D01*
X007914Y015205D01*
X007970Y015262D01*
X007970Y015375D01*
X007914Y015432D01*
X007800Y015432D01*
X007744Y015375D01*
X007744Y015262D01*
X007602Y015432D02*
X007432Y015432D01*
X007375Y015375D01*
X007375Y015262D01*
X008112Y015205D02*
X008112Y015432D01*
X008169Y015432D01*
X008225Y015375D01*
X008282Y015432D01*
X008339Y015375D01*
X008339Y015205D01*
X008225Y015205D02*
X008225Y015375D01*
X008480Y015205D02*
X008707Y015545D01*
X008849Y015432D02*
X008962Y015432D01*
X008905Y015489D02*
X008905Y015262D01*
X008962Y015205D01*
X009094Y015262D02*
X009094Y015375D01*
X009151Y015432D01*
X009321Y015432D01*
X009321Y015545D02*
X009321Y015205D01*
X009151Y015205D01*
X009094Y015262D01*
X009462Y015205D02*
X009576Y015205D01*
X009519Y015205D02*
X009519Y015432D01*
X009462Y015432D01*
X009519Y015545D02*
X009519Y015602D01*
X009708Y015375D02*
X009765Y015432D01*
X009935Y015432D01*
X009935Y015545D02*
X009935Y015205D01*
X009765Y015205D01*
X009708Y015262D01*
X009708Y015375D01*
X010076Y015432D02*
X010133Y015432D01*
X010133Y015205D01*
X010076Y015205D02*
X010190Y015205D01*
X010322Y015262D02*
X010322Y015375D01*
X010379Y015432D01*
X010549Y015432D01*
X010549Y015545D02*
X010549Y015205D01*
X010379Y015205D01*
X010322Y015262D01*
X010133Y015545D02*
X010133Y015602D01*
X010690Y015432D02*
X010747Y015432D01*
X010747Y015205D01*
X010690Y015205D02*
X010804Y015205D01*
X010992Y015262D02*
X011049Y015205D01*
X010992Y015262D02*
X010992Y015489D01*
X010936Y015432D02*
X011049Y015432D01*
X011181Y015205D02*
X011408Y015545D01*
X011606Y015432D02*
X011720Y015432D01*
X011776Y015375D01*
X011776Y015205D01*
X011606Y015205D01*
X011550Y015262D01*
X011606Y015318D01*
X011776Y015318D01*
X011918Y015262D02*
X011918Y015205D01*
X011918Y015262D02*
X012145Y015489D01*
X012145Y015545D01*
X011918Y015545D01*
X012286Y015489D02*
X012286Y015432D01*
X012343Y015375D01*
X012456Y015375D01*
X012513Y015318D01*
X012513Y015262D01*
X012456Y015205D01*
X012343Y015205D01*
X012286Y015262D01*
X012286Y015318D01*
X012343Y015375D01*
X012456Y015375D02*
X012513Y015432D01*
X012513Y015489D01*
X012456Y015545D01*
X012343Y015545D01*
X012286Y015489D01*
X012654Y015375D02*
X012881Y015375D01*
X013023Y015375D02*
X013080Y015432D01*
X013250Y015432D01*
X013193Y015318D02*
X013080Y015318D01*
X013023Y015375D01*
X013023Y015205D02*
X013193Y015205D01*
X013250Y015262D01*
X013193Y015318D01*
X013391Y015205D02*
X013505Y015205D01*
X013448Y015205D02*
X013448Y015432D01*
X013391Y015432D01*
X013448Y015545D02*
X013448Y015602D01*
X013637Y015432D02*
X013693Y015432D01*
X013750Y015375D01*
X013807Y015432D01*
X013864Y015375D01*
X013864Y015205D01*
X013750Y015205D02*
X013750Y015375D01*
X013637Y015432D02*
X013637Y015205D01*
X014005Y015205D02*
X014175Y015205D01*
X014232Y015262D01*
X014232Y015375D01*
X014175Y015432D01*
X014005Y015432D01*
X014005Y015092D01*
X014373Y015205D02*
X014487Y015205D01*
X014430Y015205D02*
X014430Y015545D01*
X014373Y015545D01*
X014619Y015375D02*
X014676Y015432D01*
X014789Y015432D01*
X014846Y015375D01*
X014846Y015318D01*
X014619Y015318D01*
X014619Y015262D02*
X014619Y015375D01*
X014619Y015262D02*
X014676Y015205D01*
X014789Y015205D01*
X014987Y015262D02*
X015044Y015205D01*
X015214Y015205D01*
X015355Y015262D02*
X015412Y015318D01*
X015582Y015318D01*
X015582Y015375D02*
X015582Y015205D01*
X015412Y015205D01*
X015355Y015262D01*
X015412Y015432D02*
X015526Y015432D01*
X015582Y015375D01*
X015724Y015318D02*
X015837Y015432D01*
X015894Y015432D01*
X016031Y015432D02*
X016144Y015432D01*
X016087Y015489D02*
X016087Y015262D01*
X016144Y015205D01*
X015724Y015205D02*
X015724Y015432D01*
X015214Y015432D02*
X015044Y015432D01*
X014987Y015375D01*
X014987Y015262D01*
X016730Y020225D02*
X002080Y020225D01*
X002080Y025125D01*
X016730Y025125D01*
X016730Y023175D01*
X016686Y023173D01*
X016643Y023167D01*
X016601Y023158D01*
X016559Y023145D01*
X016519Y023128D01*
X016480Y023108D01*
X016443Y023085D01*
X016409Y023058D01*
X016376Y023029D01*
X016347Y022996D01*
X016320Y022962D01*
X016297Y022925D01*
X016277Y022886D01*
X016260Y022846D01*
X016247Y022804D01*
X016238Y022762D01*
X016232Y022719D01*
X016230Y022675D01*
X016232Y022631D01*
X016238Y022588D01*
X016247Y022546D01*
X016260Y022504D01*
X016277Y022464D01*
X016297Y022425D01*
X016320Y022388D01*
X016347Y022354D01*
X016376Y022321D01*
X016409Y022292D01*
X016443Y022265D01*
X016480Y022242D01*
X016519Y022222D01*
X016559Y022205D01*
X016601Y022192D01*
X016643Y022183D01*
X016686Y022177D01*
X016730Y022175D01*
X016730Y020225D01*
X016730Y028350D02*
X002080Y028350D01*
X002080Y033250D01*
X016730Y033250D01*
X016730Y031300D01*
X016686Y031298D01*
X016643Y031292D01*
X016601Y031283D01*
X016559Y031270D01*
X016519Y031253D01*
X016480Y031233D01*
X016443Y031210D01*
X016409Y031183D01*
X016376Y031154D01*
X016347Y031121D01*
X016320Y031087D01*
X016297Y031050D01*
X016277Y031011D01*
X016260Y030971D01*
X016247Y030929D01*
X016238Y030887D01*
X016232Y030844D01*
X016230Y030800D01*
X016232Y030756D01*
X016238Y030713D01*
X016247Y030671D01*
X016260Y030629D01*
X016277Y030589D01*
X016297Y030550D01*
X016320Y030513D01*
X016347Y030479D01*
X016376Y030446D01*
X016409Y030417D01*
X016443Y030390D01*
X016480Y030367D01*
X016519Y030347D01*
X016559Y030330D01*
X016601Y030317D01*
X016643Y030308D01*
X016686Y030302D01*
X016730Y030300D01*
X016730Y028350D01*
X010747Y015602D02*
X010747Y015545D01*
D12*
X011107Y015950D02*
X010907Y016150D01*
X010907Y016951D01*
X011107Y017151D01*
X011507Y017151D01*
X011707Y016951D01*
X012288Y016751D02*
X012288Y015950D01*
X012288Y016551D02*
X013089Y016551D01*
X013089Y016751D02*
X013089Y015950D01*
X013089Y016751D02*
X012688Y017151D01*
X012288Y016751D01*
X012488Y017575D02*
X012288Y017775D01*
X012288Y017975D01*
X012488Y018176D01*
X012888Y018176D01*
X013089Y017975D01*
X013089Y017775D01*
X012888Y017575D01*
X012488Y017575D01*
X012488Y018176D02*
X012288Y018376D01*
X012288Y018576D01*
X012488Y018776D01*
X012888Y018776D01*
X013089Y018576D01*
X013089Y018376D01*
X012888Y018176D01*
X013669Y017775D02*
X013669Y018576D01*
X013869Y018776D01*
X014270Y018776D01*
X014470Y018576D01*
X013669Y017775D01*
X013869Y017575D01*
X014270Y017575D01*
X014470Y017775D01*
X014470Y018576D01*
X015050Y018576D02*
X015050Y017775D01*
X015851Y018576D01*
X015851Y017775D01*
X015651Y017575D01*
X015250Y017575D01*
X015050Y017775D01*
X015050Y017151D02*
X015851Y017151D01*
X015451Y017151D02*
X015451Y015950D01*
X014470Y015950D02*
X014069Y016350D01*
X014270Y016350D02*
X013669Y016350D01*
X013669Y015950D02*
X013669Y017151D01*
X014270Y017151D01*
X014470Y016951D01*
X014470Y016551D01*
X014270Y016350D01*
X015050Y018576D02*
X015250Y018776D01*
X015651Y018776D01*
X015851Y018576D01*
X011707Y018576D02*
X010907Y017775D01*
X010907Y017575D01*
X010326Y017151D02*
X009526Y017151D01*
X009526Y015950D01*
X010326Y015950D01*
X009926Y016551D02*
X009526Y016551D01*
X008945Y015950D02*
X008144Y015950D01*
X008144Y017151D01*
X008024Y017575D02*
X007624Y017975D01*
X007824Y017975D02*
X007224Y017975D01*
X007224Y017575D02*
X007224Y018776D01*
X007824Y018776D01*
X008024Y018576D01*
X008024Y018176D01*
X007824Y017975D01*
X007364Y017151D02*
X007564Y016951D01*
X007564Y016551D01*
X007364Y016350D01*
X006763Y016350D01*
X006763Y015950D02*
X006763Y017151D01*
X007364Y017151D01*
X006643Y017575D02*
X006643Y018376D01*
X006243Y018776D01*
X005842Y018376D01*
X005842Y017575D01*
X006183Y017151D02*
X005782Y016751D01*
X005382Y017151D01*
X005382Y015950D01*
X004862Y015950D02*
X004461Y015950D01*
X004661Y015950D02*
X004661Y017151D01*
X004461Y017151D02*
X004862Y017151D01*
X004862Y017575D02*
X004862Y018776D01*
X005262Y018776D02*
X004461Y018776D01*
X003881Y018376D02*
X003881Y017575D01*
X003681Y017151D02*
X003280Y017151D01*
X003080Y016951D01*
X003080Y016751D01*
X003280Y016551D01*
X003681Y016551D01*
X003881Y016350D01*
X003881Y016150D01*
X003681Y015950D01*
X003280Y015950D01*
X003080Y016150D01*
X003881Y016951D02*
X003681Y017151D01*
X003080Y017575D02*
X003080Y018376D01*
X003480Y018776D01*
X003881Y018376D01*
X003881Y018176D02*
X003080Y018176D01*
X005842Y018176D02*
X006643Y018176D01*
X006183Y017151D02*
X006183Y015950D01*
X008605Y017575D02*
X009005Y017575D01*
X008805Y017575D02*
X008805Y018776D01*
X008605Y018776D02*
X009005Y018776D01*
X010907Y018776D02*
X011707Y018776D01*
X011707Y018576D01*
X011707Y016150D02*
X011507Y015950D01*
X011107Y015950D01*
D13*
X010999Y011741D02*
X010802Y011741D01*
X010704Y011642D01*
X010704Y011248D01*
X011097Y011642D01*
X011097Y011248D01*
X010999Y011150D01*
X010802Y011150D01*
X010704Y011248D01*
X010453Y011445D02*
X010059Y011445D01*
X010354Y011741D01*
X010354Y011150D01*
X010999Y011741D02*
X011097Y011642D01*
X011348Y011642D02*
X011447Y011741D01*
X011643Y011741D01*
X011742Y011642D01*
X011348Y011248D01*
X011447Y011150D01*
X011643Y011150D01*
X011742Y011248D01*
X011742Y011642D01*
X011993Y011642D02*
X011993Y011248D01*
X012386Y011642D01*
X012386Y011248D01*
X012288Y011150D01*
X012091Y011150D01*
X011993Y011248D01*
X011993Y011642D02*
X012091Y011741D01*
X012288Y011741D01*
X012386Y011642D01*
X012637Y011445D02*
X013031Y011445D01*
X013282Y011248D02*
X013282Y011150D01*
X013282Y011248D02*
X013675Y011642D01*
X013675Y011741D01*
X013282Y011741D01*
X013926Y011741D02*
X013926Y011150D01*
X013926Y011445D02*
X014123Y011445D01*
X013926Y011741D02*
X014320Y011741D01*
X014571Y011741D02*
X014965Y011741D01*
X014768Y011445D02*
X014571Y011445D01*
X014571Y011150D02*
X014571Y011741D01*
X015215Y011741D02*
X015215Y011150D01*
X015215Y011445D02*
X015412Y011445D01*
X015215Y011741D02*
X015609Y011741D01*
X011348Y011642D02*
X011348Y011248D01*
X009182Y011150D02*
X009083Y011248D01*
X009083Y011642D01*
X008985Y011544D02*
X009182Y011544D01*
X008734Y011445D02*
X008734Y011150D01*
X008439Y011150D01*
X008340Y011248D01*
X008439Y011347D01*
X008734Y011347D01*
X008734Y011445D02*
X008635Y011544D01*
X008439Y011544D01*
X007445Y011741D02*
X007445Y011150D01*
X007248Y011544D02*
X007445Y011741D01*
X007248Y011544D02*
X007051Y011741D01*
X007051Y011150D01*
X006800Y011150D02*
X006800Y011544D01*
X006603Y011741D01*
X006407Y011544D01*
X006407Y011150D01*
X006156Y011150D02*
X005959Y011347D01*
X006057Y011347D02*
X005762Y011347D01*
X005762Y011150D02*
X005762Y011741D01*
X006057Y011741D01*
X006156Y011642D01*
X006156Y011445D01*
X006057Y011347D01*
X006407Y011445D02*
X006800Y011445D01*
X005511Y011741D02*
X005117Y011150D01*
X004867Y011150D02*
X004867Y011741D01*
X004670Y011544D01*
X004473Y011741D01*
X004473Y011150D01*
X004222Y011248D02*
X004222Y011642D01*
X004124Y011741D01*
X003927Y011741D01*
X003828Y011642D01*
X003828Y011248D01*
X003927Y011150D01*
X004124Y011150D01*
X004222Y011248D01*
X003578Y011150D02*
X003381Y011347D01*
X003479Y011347D02*
X003184Y011347D01*
X003184Y011150D02*
X003184Y011741D01*
X003479Y011741D01*
X003578Y011642D01*
X003578Y011445D01*
X003479Y011347D01*
X003578Y022400D02*
X003381Y022597D01*
X003479Y022597D02*
X003184Y022597D01*
X003184Y022400D02*
X003184Y022991D01*
X003479Y022991D01*
X003578Y022892D01*
X003578Y022695D01*
X003479Y022597D01*
X003828Y022498D02*
X003927Y022400D01*
X004124Y022400D01*
X004222Y022498D01*
X004222Y022892D01*
X004124Y022991D01*
X003927Y022991D01*
X003828Y022892D01*
X003828Y022498D01*
X004473Y022400D02*
X004473Y022991D01*
X004670Y022794D01*
X004867Y022991D01*
X004867Y022400D01*
X005117Y022400D02*
X005511Y022991D01*
X005762Y022991D02*
X006057Y022991D01*
X006156Y022892D01*
X006156Y022695D01*
X006057Y022597D01*
X005762Y022597D01*
X005959Y022597D02*
X006156Y022400D01*
X006407Y022400D02*
X006407Y022794D01*
X006603Y022991D01*
X006800Y022794D01*
X006800Y022400D01*
X006800Y022695D02*
X006407Y022695D01*
X005762Y022400D02*
X005762Y022991D01*
X007051Y022991D02*
X007051Y022400D01*
X007248Y022794D02*
X007445Y022991D01*
X007445Y022400D01*
X007248Y022794D02*
X007051Y022991D01*
X008340Y022498D02*
X008439Y022597D01*
X008734Y022597D01*
X008734Y022695D02*
X008734Y022400D01*
X008439Y022400D01*
X008340Y022498D01*
X008439Y022794D02*
X008635Y022794D01*
X008734Y022695D01*
X008985Y022794D02*
X009182Y022794D01*
X009083Y022892D02*
X009083Y022498D01*
X009182Y022400D01*
X010059Y022498D02*
X010059Y022597D01*
X010157Y022695D01*
X010354Y022695D01*
X010453Y022597D01*
X010453Y022498D01*
X010354Y022400D01*
X010157Y022400D01*
X010059Y022498D01*
X010157Y022695D02*
X010059Y022794D01*
X010059Y022892D01*
X010157Y022991D01*
X010354Y022991D01*
X010453Y022892D01*
X010453Y022794D01*
X010354Y022695D01*
X010704Y022498D02*
X011097Y022892D01*
X011097Y022498D01*
X010999Y022400D01*
X010802Y022400D01*
X010704Y022498D01*
X010704Y022892D01*
X010802Y022991D01*
X010999Y022991D01*
X011097Y022892D01*
X011348Y022892D02*
X011348Y022498D01*
X011742Y022892D01*
X011742Y022498D01*
X011643Y022400D01*
X011447Y022400D01*
X011348Y022498D01*
X011348Y022892D02*
X011447Y022991D01*
X011643Y022991D01*
X011742Y022892D01*
X011993Y022892D02*
X011993Y022498D01*
X012386Y022892D01*
X012386Y022498D01*
X012288Y022400D01*
X012091Y022400D01*
X011993Y022498D01*
X011993Y022892D02*
X012091Y022991D01*
X012288Y022991D01*
X012386Y022892D01*
X012637Y022695D02*
X013031Y022695D01*
X013282Y022695D02*
X013577Y022695D01*
X013675Y022597D01*
X013675Y022498D01*
X013577Y022400D01*
X013282Y022400D01*
X013282Y022991D01*
X013577Y022991D01*
X013675Y022892D01*
X013675Y022794D01*
X013577Y022695D01*
X013926Y022695D02*
X014123Y022695D01*
X013926Y022400D02*
X013926Y022991D01*
X014320Y022991D01*
X014571Y022991D02*
X014965Y022991D01*
X014768Y022695D02*
X014571Y022695D01*
X014571Y022400D02*
X014571Y022991D01*
X015215Y022991D02*
X015215Y022400D01*
X015215Y022695D02*
X015412Y022695D01*
X015215Y022991D02*
X015609Y022991D01*
X015215Y030525D02*
X015215Y031116D01*
X015609Y031116D01*
X015412Y030820D02*
X015215Y030820D01*
X014965Y031116D02*
X014571Y031116D01*
X014571Y030525D01*
X014571Y030820D02*
X014768Y030820D01*
X014320Y031116D02*
X013926Y031116D01*
X013926Y030525D01*
X013926Y030820D02*
X014123Y030820D01*
X013675Y031116D02*
X013282Y031116D01*
X013282Y030525D01*
X013282Y030820D02*
X013479Y030820D01*
X013031Y030820D02*
X012637Y030820D01*
X012386Y030623D02*
X012288Y030525D01*
X012091Y030525D01*
X011993Y030623D01*
X012386Y031017D01*
X012386Y030623D01*
X011993Y030623D02*
X011993Y031017D01*
X012091Y031116D01*
X012288Y031116D01*
X012386Y031017D01*
X011742Y031017D02*
X011742Y030623D01*
X011643Y030525D01*
X011447Y030525D01*
X011348Y030623D01*
X011742Y031017D01*
X011643Y031116D01*
X011447Y031116D01*
X011348Y031017D01*
X011348Y030623D01*
X011097Y030623D02*
X010999Y030525D01*
X010802Y030525D01*
X010704Y030623D01*
X011097Y031017D01*
X011097Y030623D01*
X010704Y030623D02*
X010704Y031017D01*
X010802Y031116D01*
X010999Y031116D01*
X011097Y031017D01*
X010453Y031017D02*
X010354Y031116D01*
X010157Y031116D01*
X010059Y031017D01*
X010059Y030623D01*
X010157Y030525D01*
X010354Y030525D01*
X010453Y030623D01*
X009182Y030525D02*
X009083Y030623D01*
X009083Y031017D01*
X008985Y030919D02*
X009182Y030919D01*
X008734Y030820D02*
X008734Y030525D01*
X008439Y030525D01*
X008340Y030623D01*
X008439Y030722D01*
X008734Y030722D01*
X008734Y030820D02*
X008635Y030919D01*
X008439Y030919D01*
X007445Y031116D02*
X007445Y030525D01*
X007248Y030919D02*
X007445Y031116D01*
X007248Y030919D02*
X007051Y031116D01*
X007051Y030525D01*
X006800Y030525D02*
X006800Y030919D01*
X006603Y031116D01*
X006407Y030919D01*
X006407Y030525D01*
X006156Y030525D02*
X005959Y030722D01*
X006057Y030722D02*
X005762Y030722D01*
X005762Y030525D02*
X005762Y031116D01*
X006057Y031116D01*
X006156Y031017D01*
X006156Y030820D01*
X006057Y030722D01*
X006407Y030820D02*
X006800Y030820D01*
X005511Y031116D02*
X005117Y030525D01*
X004867Y030525D02*
X004867Y031116D01*
X004670Y030919D01*
X004473Y031116D01*
X004473Y030525D01*
X004222Y030623D02*
X004222Y031017D01*
X004124Y031116D01*
X003927Y031116D01*
X003828Y031017D01*
X003828Y030623D01*
X003927Y030525D01*
X004124Y030525D01*
X004222Y030623D01*
X003578Y030525D02*
X003381Y030722D01*
X003479Y030722D02*
X003184Y030722D01*
X003184Y030525D02*
X003184Y031116D01*
X003479Y031116D01*
X003578Y031017D01*
X003578Y030820D01*
X003479Y030722D01*
M02*
