G75*
%MOIN*%
%OFA0B0*%
%FSLAX24Y24*%
%IPPOS*%
%LPD*%
%AMOC8*
5,1,8,0,0,1.08239X$1,22.5*
%
%ADD10R,0.0680X0.2630*%
%ADD11C,0.0600*%
%ADD12R,0.0671X0.0592*%
%ADD13R,0.0340X0.0880*%
D10*
X000930Y003800D03*
X001930Y003800D03*
X003930Y003800D03*
X004930Y003800D03*
X005930Y003800D03*
X006930Y003800D03*
X007930Y003800D03*
X008930Y003800D03*
X009930Y003800D03*
X010930Y003800D03*
X011930Y003800D03*
X012930Y003800D03*
X013930Y003800D03*
X014930Y003800D03*
X016930Y003800D03*
X017930Y003800D03*
D11*
X015930Y008165D02*
X015930Y008685D01*
X014930Y008685D02*
X014930Y008165D01*
X013930Y008165D02*
X013930Y008685D01*
X012930Y008685D02*
X012930Y008165D01*
X011930Y008165D02*
X011930Y008685D01*
X010930Y008685D02*
X010930Y008165D01*
X009930Y008165D02*
X009930Y008685D01*
X008930Y008685D02*
X008930Y008165D01*
X007930Y008165D02*
X007930Y008685D01*
X006930Y008685D02*
X006930Y008165D01*
X005930Y008165D02*
X005930Y008685D01*
X004930Y008685D02*
X004930Y008165D01*
X003930Y008165D02*
X003930Y008685D01*
X002930Y008685D02*
X002930Y008165D01*
X002930Y014165D02*
X002930Y014685D01*
X003930Y014685D02*
X003930Y014165D01*
X004930Y014165D02*
X004930Y014685D01*
X005930Y014685D02*
X005930Y014165D01*
X006930Y014165D02*
X006930Y014685D01*
X007930Y014685D02*
X007930Y014165D01*
X008930Y014165D02*
X008930Y014685D01*
X009930Y014685D02*
X009930Y014165D01*
X010930Y014165D02*
X010930Y014685D01*
X011930Y014685D02*
X011930Y014165D01*
X012930Y014165D02*
X012930Y014685D01*
X013930Y014685D02*
X013930Y014165D01*
X014930Y014165D02*
X014930Y014685D01*
X015930Y014685D02*
X015930Y014165D01*
X015930Y019415D02*
X015930Y019935D01*
X014930Y019935D02*
X014930Y019415D01*
X013930Y019415D02*
X013930Y019935D01*
X012930Y019935D02*
X012930Y019415D01*
X011930Y019415D02*
X011930Y019935D01*
X010930Y019935D02*
X010930Y019415D01*
X009930Y019415D02*
X009930Y019935D01*
X008930Y019935D02*
X008930Y019415D01*
X007930Y019415D02*
X007930Y019935D01*
X006930Y019935D02*
X006930Y019415D01*
X005930Y019415D02*
X005930Y019935D01*
X004930Y019935D02*
X004930Y019415D01*
X003930Y019415D02*
X003930Y019935D01*
X002930Y019935D02*
X002930Y019415D01*
X002930Y025415D02*
X002930Y025935D01*
X003930Y025935D02*
X003930Y025415D01*
X004930Y025415D02*
X004930Y025935D01*
X004930Y027540D02*
X004930Y028060D01*
X003930Y028060D02*
X003930Y027540D01*
X002930Y027540D02*
X002930Y028060D01*
X005930Y028060D02*
X005930Y027540D01*
X006930Y027540D02*
X006930Y028060D01*
X007930Y028060D02*
X007930Y027540D01*
X007930Y025935D02*
X007930Y025415D01*
X006930Y025415D02*
X006930Y025935D01*
X005930Y025935D02*
X005930Y025415D01*
X008930Y025415D02*
X008930Y025935D01*
X009930Y025935D02*
X009930Y025415D01*
X010930Y025415D02*
X010930Y025935D01*
X011930Y025935D02*
X011930Y025415D01*
X012930Y025415D02*
X012930Y025935D01*
X013930Y025935D02*
X013930Y025415D01*
X014930Y025415D02*
X014930Y025935D01*
X015930Y025935D02*
X015930Y025415D01*
X015930Y027540D02*
X015930Y028060D01*
X014930Y028060D02*
X014930Y027540D01*
X013930Y027540D02*
X013930Y028060D01*
X012930Y028060D02*
X012930Y027540D01*
X011930Y027540D02*
X011930Y028060D01*
X010930Y028060D02*
X010930Y027540D01*
X009930Y027540D02*
X009930Y028060D01*
X008930Y028060D02*
X008930Y027540D01*
X008930Y033540D02*
X008930Y034060D01*
X009930Y034060D02*
X009930Y033540D01*
X010930Y033540D02*
X010930Y034060D01*
X011930Y034060D02*
X011930Y033540D01*
X012930Y033540D02*
X012930Y034060D01*
X013930Y034060D02*
X013930Y033540D01*
X014930Y033540D02*
X014930Y034060D01*
X015930Y034060D02*
X015930Y033540D01*
X007930Y033540D02*
X007930Y034060D01*
X006930Y034060D02*
X006930Y033540D01*
X005930Y033540D02*
X005930Y034060D01*
X004930Y034060D02*
X004930Y033540D01*
X003930Y033540D02*
X003930Y034060D01*
X002930Y034060D02*
X002930Y033540D01*
D12*
X010805Y018299D03*
X010805Y017551D03*
X007305Y012674D03*
X007305Y011926D03*
X015930Y010424D03*
X015930Y009676D03*
X015930Y020926D03*
X015930Y021674D03*
X015930Y029051D03*
X015930Y029799D03*
D13*
X009430Y018260D03*
X008930Y018260D03*
X008430Y018260D03*
X007930Y018260D03*
X007430Y018260D03*
X006930Y018260D03*
X006430Y018260D03*
X005930Y018260D03*
X005930Y015840D03*
X006430Y015840D03*
X006930Y015840D03*
X007430Y015840D03*
X007930Y015840D03*
X008430Y015840D03*
X008930Y015840D03*
X009430Y015840D03*
X005930Y012635D03*
X005430Y012635D03*
X004930Y012635D03*
X004430Y012635D03*
X003930Y012635D03*
X003430Y012635D03*
X002930Y012635D03*
X002930Y010215D03*
X003430Y010215D03*
X003930Y010215D03*
X004430Y010215D03*
X004930Y010215D03*
X005430Y010215D03*
X005930Y010215D03*
M02*
