%
M48
M72
T01C0.0150
T02C0.0320
%
T01
X4430Y5800
X5430Y5800
X6430Y5800
X7430Y5800
X8430Y5800
X9430Y5800
X9930Y7175
X10430Y5800
X11430Y5800
X12430Y5800
X13430Y5800
X14430Y9550
X14680Y10300
X14930Y11050
X16930Y12550
X16930Y7300
X9930Y9550
X8430Y9925
X9430Y17050
X2055Y8425
X1055Y11425
T02
X2930Y8425
X3930Y8425
X4930Y8425
X5930Y8425
X6930Y8425
X7930Y8425
X8930Y8425
X9930Y8425
X10930Y8425
X11930Y8425
X12930Y8425
X13930Y8425
X14930Y8425
X15930Y8425
X15930Y14425
X14930Y14425
X13930Y14425
X12930Y14425
X11930Y14425
X10930Y14425
X9930Y14425
X8930Y14425
X7930Y14425
X6930Y14425
X5930Y14425
X4930Y14425
X3930Y14425
X2930Y14425
X2930Y19675
X3930Y19675
X4930Y19675
X5930Y19675
X6930Y19675
X7930Y19675
X8930Y19675
X9930Y19675
X10930Y19675
X11930Y19675
X12930Y19675
X13930Y19675
X14930Y19675
X15930Y19675
X15930Y25675
X14930Y25675
X13930Y25675
X12930Y25675
X11930Y25675
X10930Y25675
X9930Y25675
X8930Y25675
X7930Y25675
X6930Y25675
X5930Y25675
X4930Y25675
X3930Y25675
X2930Y25675
X2930Y27800
X3930Y27800
X4930Y27800
X5930Y27800
X6930Y27800
X7930Y27800
X8930Y27800
X9930Y27800
X10930Y27800
X11930Y27800
X12930Y27800
X13930Y27800
X14930Y27800
X15930Y27800
X15930Y33800
X14930Y33800
X13930Y33800
X12930Y33800
X11930Y33800
X10930Y33800
X9930Y33800
X8930Y33800
X7930Y33800
X6930Y33800
X5930Y33800
X4930Y33800
X3930Y33800
X2930Y33800
M30
