G75*
%MOIN*%
%OFA0B0*%
%FSLAX24Y24*%
%IPPOS*%
%LPD*%
%AMOC8*
5,1,8,0,0,1.08239X$1,22.5*
%
%ADD10R,0.0600X0.2550*%
%ADD11C,0.0520*%
%ADD12R,0.0591X0.0512*%
%ADD13R,0.0260X0.0800*%
%ADD14C,0.0160*%
%ADD15C,0.0310*%
%ADD16C,0.0120*%
D10*
X000930Y003800D03*
X001930Y003800D03*
X003930Y003800D03*
X004930Y003800D03*
X005930Y003800D03*
X006930Y003800D03*
X007930Y003800D03*
X008930Y003800D03*
X009930Y003800D03*
X010930Y003800D03*
X011930Y003800D03*
X012930Y003800D03*
X013930Y003800D03*
X014930Y003800D03*
X016930Y003800D03*
X017930Y003800D03*
D11*
X015930Y008165D02*
X015930Y008685D01*
X014930Y008685D02*
X014930Y008165D01*
X013930Y008165D02*
X013930Y008685D01*
X012930Y008685D02*
X012930Y008165D01*
X011930Y008165D02*
X011930Y008685D01*
X010930Y008685D02*
X010930Y008165D01*
X009930Y008165D02*
X009930Y008685D01*
X008930Y008685D02*
X008930Y008165D01*
X007930Y008165D02*
X007930Y008685D01*
X006930Y008685D02*
X006930Y008165D01*
X005930Y008165D02*
X005930Y008685D01*
X004930Y008685D02*
X004930Y008165D01*
X003930Y008165D02*
X003930Y008685D01*
X002930Y008685D02*
X002930Y008165D01*
X002930Y014165D02*
X002930Y014685D01*
X003930Y014685D02*
X003930Y014165D01*
X004930Y014165D02*
X004930Y014685D01*
X005930Y014685D02*
X005930Y014165D01*
X006930Y014165D02*
X006930Y014685D01*
X007930Y014685D02*
X007930Y014165D01*
X008930Y014165D02*
X008930Y014685D01*
X009930Y014685D02*
X009930Y014165D01*
X010930Y014165D02*
X010930Y014685D01*
X011930Y014685D02*
X011930Y014165D01*
X012930Y014165D02*
X012930Y014685D01*
X013930Y014685D02*
X013930Y014165D01*
X014930Y014165D02*
X014930Y014685D01*
X015930Y014685D02*
X015930Y014165D01*
X015930Y019415D02*
X015930Y019935D01*
X014930Y019935D02*
X014930Y019415D01*
X013930Y019415D02*
X013930Y019935D01*
X012930Y019935D02*
X012930Y019415D01*
X011930Y019415D02*
X011930Y019935D01*
X010930Y019935D02*
X010930Y019415D01*
X009930Y019415D02*
X009930Y019935D01*
X008930Y019935D02*
X008930Y019415D01*
X007930Y019415D02*
X007930Y019935D01*
X006930Y019935D02*
X006930Y019415D01*
X005930Y019415D02*
X005930Y019935D01*
X004930Y019935D02*
X004930Y019415D01*
X003930Y019415D02*
X003930Y019935D01*
X002930Y019935D02*
X002930Y019415D01*
X002930Y025415D02*
X002930Y025935D01*
X003930Y025935D02*
X003930Y025415D01*
X004930Y025415D02*
X004930Y025935D01*
X004930Y027540D02*
X004930Y028060D01*
X003930Y028060D02*
X003930Y027540D01*
X002930Y027540D02*
X002930Y028060D01*
X005930Y028060D02*
X005930Y027540D01*
X006930Y027540D02*
X006930Y028060D01*
X007930Y028060D02*
X007930Y027540D01*
X007930Y025935D02*
X007930Y025415D01*
X006930Y025415D02*
X006930Y025935D01*
X005930Y025935D02*
X005930Y025415D01*
X008930Y025415D02*
X008930Y025935D01*
X009930Y025935D02*
X009930Y025415D01*
X010930Y025415D02*
X010930Y025935D01*
X011930Y025935D02*
X011930Y025415D01*
X012930Y025415D02*
X012930Y025935D01*
X013930Y025935D02*
X013930Y025415D01*
X014930Y025415D02*
X014930Y025935D01*
X015930Y025935D02*
X015930Y025415D01*
X015930Y027540D02*
X015930Y028060D01*
X014930Y028060D02*
X014930Y027540D01*
X013930Y027540D02*
X013930Y028060D01*
X012930Y028060D02*
X012930Y027540D01*
X011930Y027540D02*
X011930Y028060D01*
X010930Y028060D02*
X010930Y027540D01*
X009930Y027540D02*
X009930Y028060D01*
X008930Y028060D02*
X008930Y027540D01*
X008930Y033540D02*
X008930Y034060D01*
X009930Y034060D02*
X009930Y033540D01*
X010930Y033540D02*
X010930Y034060D01*
X011930Y034060D02*
X011930Y033540D01*
X012930Y033540D02*
X012930Y034060D01*
X013930Y034060D02*
X013930Y033540D01*
X014930Y033540D02*
X014930Y034060D01*
X015930Y034060D02*
X015930Y033540D01*
X007930Y033540D02*
X007930Y034060D01*
X006930Y034060D02*
X006930Y033540D01*
X005930Y033540D02*
X005930Y034060D01*
X004930Y034060D02*
X004930Y033540D01*
X003930Y033540D02*
X003930Y034060D01*
X002930Y034060D02*
X002930Y033540D01*
D12*
X010805Y018299D03*
X010805Y017551D03*
X007305Y012674D03*
X007305Y011926D03*
X015930Y010424D03*
X015930Y009676D03*
X015930Y020926D03*
X015930Y021674D03*
X015930Y029051D03*
X015930Y029799D03*
D13*
X009430Y018260D03*
X008930Y018260D03*
X008430Y018260D03*
X007930Y018260D03*
X007430Y018260D03*
X006930Y018260D03*
X006430Y018260D03*
X005930Y018260D03*
X005930Y015840D03*
X006430Y015840D03*
X006930Y015840D03*
X007430Y015840D03*
X007930Y015840D03*
X008430Y015840D03*
X008930Y015840D03*
X009430Y015840D03*
X005930Y012635D03*
X005430Y012635D03*
X004930Y012635D03*
X004430Y012635D03*
X003930Y012635D03*
X003430Y012635D03*
X002930Y012635D03*
X002930Y010215D03*
X003430Y010215D03*
X003930Y010215D03*
X004430Y010215D03*
X004930Y010215D03*
X005430Y010215D03*
X005930Y010215D03*
D14*
X006290Y010158D02*
X007503Y010158D01*
X007661Y010317D02*
X006290Y010317D01*
X006290Y010475D02*
X007820Y010475D01*
X007809Y010464D02*
X007185Y009840D01*
X006290Y009840D01*
X006290Y010710D01*
X006155Y010845D01*
X005720Y010845D01*
X005720Y011233D01*
X005676Y011339D01*
X005426Y011589D01*
X005344Y011671D01*
X005238Y011715D01*
X001309Y011715D01*
X001273Y011751D01*
X001132Y011810D01*
X000978Y011810D01*
X000837Y011751D01*
X000729Y011643D01*
X000670Y011502D01*
X000670Y011348D01*
X000729Y011207D01*
X000828Y011108D01*
X000809Y011089D01*
X000765Y010983D01*
X000765Y005305D01*
X000660Y005305D01*
X000660Y015070D01*
X001400Y015070D01*
X001577Y015143D01*
X001712Y015278D01*
X001785Y015455D01*
X001785Y015820D01*
X002025Y015820D01*
X002202Y015893D01*
X002337Y016028D01*
X002410Y016205D01*
X002410Y018145D01*
X002337Y018322D01*
X002202Y018457D01*
X002025Y018530D01*
X001785Y018530D01*
X001785Y022145D01*
X001712Y022322D01*
X001577Y022457D01*
X001400Y022530D01*
X000660Y022530D01*
X000660Y034570D01*
X018200Y034570D01*
X018200Y022530D01*
X017460Y022530D01*
X017283Y022457D01*
X017148Y022322D01*
X017075Y022145D01*
X017075Y018530D01*
X016835Y018530D01*
X016658Y018457D01*
X016523Y018322D01*
X016450Y018145D01*
X016450Y016205D01*
X016523Y016028D01*
X016658Y015893D01*
X016835Y015820D01*
X017075Y015820D01*
X017075Y015455D01*
X017148Y015278D01*
X017283Y015143D01*
X017460Y015070D01*
X018200Y015070D01*
X018200Y005305D01*
X018095Y005305D01*
X018095Y012358D01*
X018051Y012464D01*
X017969Y012546D01*
X017220Y013295D01*
X017220Y015108D01*
X017176Y015214D01*
X017094Y015296D01*
X015469Y016921D01*
X015363Y016965D01*
X009812Y016965D01*
X009815Y016973D01*
X009815Y017127D01*
X009756Y017268D01*
X009648Y017376D01*
X009507Y017435D01*
X009353Y017435D01*
X009212Y017376D01*
X009176Y017340D01*
X008800Y017340D01*
X008720Y017420D01*
X008720Y017630D01*
X009155Y017630D01*
X009180Y017655D01*
X009205Y017630D01*
X009655Y017630D01*
X009790Y017765D01*
X009790Y017970D01*
X010280Y017970D01*
X010280Y017948D01*
X010345Y017882D01*
X010342Y017876D01*
X010330Y017831D01*
X010330Y017599D01*
X010757Y017599D01*
X010757Y017503D01*
X010330Y017503D01*
X010330Y017271D01*
X010342Y017226D01*
X010366Y017185D01*
X010399Y017151D01*
X010440Y017127D01*
X010486Y017115D01*
X010757Y017115D01*
X010757Y017503D01*
X010853Y017503D01*
X010853Y017599D01*
X011280Y017599D01*
X011280Y017831D01*
X011268Y017876D01*
X011265Y017882D01*
X011330Y017948D01*
X011330Y017970D01*
X015698Y017970D01*
X015804Y018014D01*
X016094Y018304D01*
X016176Y018386D01*
X016220Y018492D01*
X016220Y019012D01*
X016345Y019137D01*
X016420Y019318D01*
X016420Y020032D01*
X016345Y020213D01*
X016220Y020338D01*
X016220Y020440D01*
X016321Y020440D01*
X016455Y020575D01*
X016455Y021277D01*
X016390Y021343D01*
X016393Y021349D01*
X016405Y021394D01*
X016405Y021626D01*
X015978Y021626D01*
X015978Y021722D01*
X016405Y021722D01*
X016405Y021954D01*
X016393Y021999D01*
X016369Y022040D01*
X016336Y022074D01*
X016295Y022098D01*
X016249Y022110D01*
X015978Y022110D01*
X015978Y021722D01*
X015882Y021722D01*
X015882Y021626D01*
X015455Y021626D01*
X015455Y021394D01*
X015467Y021349D01*
X015470Y021343D01*
X015405Y021277D01*
X015405Y020575D01*
X015539Y020440D01*
X015640Y020440D01*
X015640Y020338D01*
X015515Y020213D01*
X015440Y020032D01*
X015440Y019318D01*
X015515Y019137D01*
X015640Y019012D01*
X015640Y018670D01*
X015520Y018550D01*
X011330Y018550D01*
X011330Y018650D01*
X011196Y018785D01*
X010414Y018785D01*
X010280Y018650D01*
X010280Y018550D01*
X009790Y018550D01*
X009790Y018755D01*
X009655Y018890D01*
X009205Y018890D01*
X009180Y018865D01*
X009155Y018890D01*
X008705Y018890D01*
X008680Y018865D01*
X008655Y018890D01*
X008220Y018890D01*
X008220Y019012D01*
X008345Y019137D01*
X008420Y019318D01*
X008420Y020032D01*
X008345Y020213D01*
X008208Y020350D01*
X008027Y020425D01*
X007833Y020425D01*
X007720Y020378D01*
X007720Y024972D01*
X007833Y024925D01*
X008027Y024925D01*
X008208Y025000D01*
X008345Y025137D01*
X008420Y025318D01*
X008420Y026032D01*
X008345Y026213D01*
X008208Y026350D01*
X008027Y026425D01*
X007840Y026425D01*
X008094Y026679D01*
X008176Y026761D01*
X008220Y026867D01*
X008220Y027137D01*
X008345Y027262D01*
X008420Y027443D01*
X008420Y028157D01*
X008345Y028338D01*
X008208Y028475D01*
X008027Y028550D01*
X007833Y028550D01*
X007652Y028475D01*
X007515Y028338D01*
X007440Y028157D01*
X007440Y027443D01*
X007515Y027262D01*
X007640Y027137D01*
X007640Y027045D01*
X007184Y026589D01*
X007140Y026483D01*
X007140Y026378D01*
X007027Y026425D01*
X006833Y026425D01*
X006652Y026350D01*
X006515Y026213D01*
X006440Y026032D01*
X006440Y025318D01*
X006515Y025137D01*
X006652Y025000D01*
X006833Y024925D01*
X007027Y024925D01*
X007140Y024972D01*
X007140Y020378D01*
X007027Y020425D01*
X006833Y020425D01*
X006652Y020350D01*
X006515Y020213D01*
X006440Y020032D01*
X006440Y019318D01*
X006515Y019137D01*
X006652Y019000D01*
X006833Y018925D01*
X007027Y018925D01*
X007140Y018972D01*
X007140Y018890D01*
X006705Y018890D01*
X006680Y018865D01*
X006655Y018890D01*
X006205Y018890D01*
X006180Y018865D01*
X006155Y018890D01*
X005705Y018890D01*
X005570Y018755D01*
X005570Y017765D01*
X005705Y017630D01*
X006155Y017630D01*
X006180Y017655D01*
X006205Y017630D01*
X006655Y017630D01*
X006680Y017655D01*
X006705Y017630D01*
X007155Y017630D01*
X007180Y017655D01*
X007205Y017630D01*
X007655Y017630D01*
X007680Y017655D01*
X007705Y017630D01*
X008140Y017630D01*
X008140Y017242D01*
X008184Y017136D01*
X008434Y016886D01*
X008516Y016804D01*
X008622Y016760D01*
X008855Y016760D01*
X008766Y016671D01*
X008684Y016589D01*
X008640Y016483D01*
X008640Y016405D01*
X008638Y016403D01*
X008629Y016408D01*
X008584Y016420D01*
X008430Y016420D01*
X008430Y015840D01*
X008430Y015840D01*
X008430Y016420D01*
X008276Y016420D01*
X008231Y016408D01*
X008189Y016384D01*
X008180Y016375D01*
X008171Y016384D01*
X008129Y016408D01*
X008084Y016420D01*
X007930Y016420D01*
X007930Y015840D01*
X007930Y015840D01*
X008240Y015840D01*
X008430Y015840D01*
X008430Y015260D01*
X008584Y015260D01*
X008629Y015272D01*
X008638Y015277D01*
X008705Y015210D01*
X009155Y015210D01*
X009180Y015235D01*
X009205Y015210D01*
X009655Y015210D01*
X009790Y015345D01*
X009790Y016000D01*
X009800Y016010D01*
X015060Y016010D01*
X015895Y015175D01*
X015833Y015175D01*
X015652Y015100D01*
X015515Y014963D01*
X015440Y014782D01*
X015440Y014068D01*
X015515Y013887D01*
X015640Y013762D01*
X015640Y013045D01*
X015520Y012925D01*
X007830Y012925D01*
X007830Y013025D01*
X007696Y013160D01*
X006914Y013160D01*
X006780Y013025D01*
X006780Y012925D01*
X006290Y012925D01*
X006290Y013130D01*
X006155Y013265D01*
X005720Y013265D01*
X005720Y013722D01*
X005833Y013675D01*
X006027Y013675D01*
X006208Y013750D01*
X006345Y013887D01*
X006420Y014068D01*
X006420Y014782D01*
X006345Y014963D01*
X006208Y015100D01*
X006027Y015175D01*
X005833Y015175D01*
X005720Y015128D01*
X005720Y015278D01*
X005731Y015272D01*
X005776Y015260D01*
X005930Y015260D01*
X006084Y015260D01*
X006129Y015272D01*
X006138Y015277D01*
X006205Y015210D01*
X006655Y015210D01*
X006680Y015235D01*
X006705Y015210D01*
X007155Y015210D01*
X007222Y015277D01*
X007231Y015272D01*
X007276Y015260D01*
X007430Y015260D01*
X007584Y015260D01*
X007629Y015272D01*
X007671Y015296D01*
X007680Y015305D01*
X007689Y015296D01*
X007731Y015272D01*
X007776Y015260D01*
X007930Y015260D01*
X008084Y015260D01*
X008129Y015272D01*
X008171Y015296D01*
X008180Y015305D01*
X008189Y015296D01*
X008231Y015272D01*
X008276Y015260D01*
X008430Y015260D01*
X008430Y015840D01*
X008430Y015840D01*
X008430Y015840D01*
X007930Y015840D01*
X007930Y015840D01*
X007930Y016420D01*
X007776Y016420D01*
X007731Y016408D01*
X007689Y016384D01*
X007680Y016375D01*
X007671Y016384D01*
X007629Y016408D01*
X007584Y016420D01*
X007430Y016420D01*
X007430Y015840D01*
X007430Y015840D01*
X007740Y015840D01*
X007930Y015840D01*
X007930Y015260D01*
X007930Y015840D01*
X007930Y015840D01*
X007930Y015840D01*
X007430Y015840D01*
X007430Y015840D01*
X007430Y016420D01*
X007276Y016420D01*
X007231Y016408D01*
X007222Y016403D01*
X007220Y016405D01*
X007220Y016858D01*
X007176Y016964D01*
X006926Y017214D01*
X006844Y017296D01*
X006738Y017340D01*
X005622Y017340D01*
X005516Y017296D01*
X005266Y017046D01*
X005184Y016964D01*
X005140Y016858D01*
X005140Y015128D01*
X005027Y015175D01*
X004833Y015175D01*
X004652Y015100D01*
X004515Y014963D01*
X004440Y014782D01*
X004440Y014068D01*
X004515Y013887D01*
X004652Y013750D01*
X004833Y013675D01*
X005027Y013675D01*
X005140Y013722D01*
X005140Y013265D01*
X004705Y013265D01*
X004680Y013240D01*
X004655Y013265D01*
X004205Y013265D01*
X004180Y013240D01*
X004155Y013265D01*
X003705Y013265D01*
X003680Y013240D01*
X003655Y013265D01*
X003205Y013265D01*
X003180Y013240D01*
X003155Y013265D01*
X002705Y013265D01*
X002570Y013130D01*
X002570Y012140D01*
X002705Y012005D01*
X003155Y012005D01*
X003180Y012030D01*
X003205Y012005D01*
X003655Y012005D01*
X003680Y012030D01*
X003705Y012005D01*
X004155Y012005D01*
X004180Y012030D01*
X004205Y012005D01*
X004655Y012005D01*
X004680Y012030D01*
X004705Y012005D01*
X005155Y012005D01*
X005180Y012030D01*
X005205Y012005D01*
X005655Y012005D01*
X005680Y012030D01*
X005705Y012005D01*
X006155Y012005D01*
X006290Y012140D01*
X006290Y012345D01*
X006780Y012345D01*
X006780Y012323D01*
X006845Y012257D01*
X006842Y012251D01*
X006830Y012206D01*
X006830Y011974D01*
X007257Y011974D01*
X007257Y011878D01*
X006830Y011878D01*
X006830Y011646D01*
X006842Y011601D01*
X006866Y011560D01*
X006899Y011526D01*
X006940Y011502D01*
X006986Y011490D01*
X007257Y011490D01*
X007257Y011878D01*
X007353Y011878D01*
X007353Y011974D01*
X007780Y011974D01*
X007780Y012206D01*
X007768Y012251D01*
X007765Y012257D01*
X007830Y012323D01*
X007830Y012345D01*
X015698Y012345D01*
X015804Y012389D01*
X016094Y012679D01*
X016176Y012761D01*
X016220Y012867D01*
X016220Y013762D01*
X016265Y013807D01*
X016265Y012867D01*
X016309Y012761D01*
X016545Y012525D01*
X016545Y012473D01*
X016604Y012332D01*
X016712Y012224D01*
X016853Y012165D01*
X017007Y012165D01*
X017148Y012224D01*
X017256Y012332D01*
X017288Y012407D01*
X017515Y012180D01*
X017515Y005285D01*
X017430Y005200D01*
X017325Y005305D01*
X016910Y005305D01*
X016910Y006395D01*
X016837Y006572D01*
X016702Y006707D01*
X016525Y006780D01*
X015710Y006780D01*
X015533Y006707D01*
X015398Y006572D01*
X015325Y006395D01*
X015325Y005305D01*
X015220Y005305D01*
X015220Y005733D01*
X015176Y005839D01*
X013720Y007295D01*
X013720Y007475D01*
X013766Y007429D01*
X014141Y007054D01*
X014247Y007010D01*
X016676Y007010D01*
X016712Y006974D01*
X016853Y006915D01*
X017007Y006915D01*
X017148Y006974D01*
X017256Y007082D01*
X017315Y007223D01*
X017315Y007377D01*
X017256Y007518D01*
X017148Y007626D01*
X017007Y007685D01*
X016853Y007685D01*
X016712Y007626D01*
X016676Y007590D01*
X014425Y007590D01*
X014237Y007779D01*
X014345Y007887D01*
X014420Y008068D01*
X014420Y008782D01*
X014345Y008963D01*
X014208Y009100D01*
X014027Y009175D01*
X013833Y009175D01*
X013720Y009128D01*
X013720Y009180D01*
X013800Y009260D01*
X014176Y009260D01*
X014212Y009224D01*
X014353Y009165D01*
X014507Y009165D01*
X014648Y009224D01*
X014756Y009332D01*
X014815Y009473D01*
X014815Y009627D01*
X014812Y009635D01*
X014863Y009635D01*
X014969Y009679D01*
X015219Y009929D01*
X015219Y009929D01*
X015301Y010011D01*
X015345Y010117D01*
X015345Y010983D01*
X015315Y011055D01*
X015315Y011127D01*
X015256Y011268D01*
X015148Y011376D01*
X015007Y011435D01*
X014853Y011435D01*
X014712Y011376D01*
X014604Y011268D01*
X014545Y011127D01*
X014545Y010973D01*
X014604Y010832D01*
X014712Y010724D01*
X014765Y010702D01*
X014765Y010682D01*
X014757Y010685D01*
X014603Y010685D01*
X014462Y010626D01*
X014426Y010590D01*
X007997Y010590D01*
X007891Y010546D01*
X007809Y010464D01*
X008045Y009880D02*
X008045Y009848D01*
X008059Y009814D01*
X008016Y009796D01*
X007934Y009714D01*
X007684Y009464D01*
X007640Y009358D01*
X007640Y009088D01*
X007515Y008963D01*
X007440Y008782D01*
X007440Y008068D01*
X007515Y007887D01*
X007652Y007750D01*
X007833Y007675D01*
X008027Y007675D01*
X008208Y007750D01*
X008345Y007887D01*
X008420Y008068D01*
X008420Y008782D01*
X008345Y008963D01*
X008220Y009088D01*
X008220Y009180D01*
X008300Y009260D01*
X009640Y009260D01*
X009640Y009088D01*
X009515Y008963D01*
X009440Y008782D01*
X009440Y008068D01*
X009515Y007887D01*
X009652Y007750D01*
X009833Y007675D01*
X010027Y007675D01*
X010208Y007750D01*
X010345Y007887D01*
X010420Y008068D01*
X010420Y008782D01*
X010345Y008963D01*
X010220Y009088D01*
X010220Y009296D01*
X010256Y009332D01*
X010315Y009473D01*
X010315Y009627D01*
X010312Y009635D01*
X013355Y009635D01*
X013184Y009464D01*
X013140Y009358D01*
X013140Y009128D01*
X013027Y009175D01*
X012833Y009175D01*
X012652Y009100D01*
X012515Y008963D01*
X012440Y008782D01*
X012440Y008068D01*
X012515Y007887D01*
X012652Y007750D01*
X012833Y007675D01*
X013027Y007675D01*
X013140Y007722D01*
X013140Y007117D01*
X013184Y007011D01*
X013266Y006929D01*
X014640Y005555D01*
X014640Y005305D01*
X014535Y005305D01*
X014430Y005200D01*
X014325Y005305D01*
X014220Y005305D01*
X014220Y005358D01*
X014176Y005464D01*
X013815Y005825D01*
X013815Y005877D01*
X013756Y006018D01*
X013648Y006126D01*
X013507Y006185D01*
X013353Y006185D01*
X013212Y006126D01*
X013104Y006018D01*
X013045Y005877D01*
X013045Y005723D01*
X013104Y005582D01*
X013212Y005474D01*
X013353Y005415D01*
X013405Y005415D01*
X013525Y005295D01*
X013430Y005200D01*
X013325Y005305D01*
X013220Y005305D01*
X013220Y005358D01*
X013176Y005464D01*
X012815Y005825D01*
X012815Y005877D01*
X012756Y006018D01*
X012648Y006126D01*
X012507Y006185D01*
X012353Y006185D01*
X012212Y006126D01*
X012104Y006018D01*
X012045Y005877D01*
X012045Y005723D01*
X012104Y005582D01*
X012212Y005474D01*
X012353Y005415D01*
X012405Y005415D01*
X012525Y005295D01*
X012430Y005200D01*
X012325Y005305D01*
X012220Y005305D01*
X012220Y005358D01*
X012176Y005464D01*
X011815Y005825D01*
X011815Y005877D01*
X011756Y006018D01*
X011648Y006126D01*
X011507Y006185D01*
X011353Y006185D01*
X011212Y006126D01*
X011104Y006018D01*
X011045Y005877D01*
X011045Y005723D01*
X011104Y005582D01*
X011212Y005474D01*
X011353Y005415D01*
X011405Y005415D01*
X011525Y005295D01*
X011430Y005200D01*
X011325Y005305D01*
X011220Y005305D01*
X011220Y005358D01*
X011176Y005464D01*
X010815Y005825D01*
X010815Y005877D01*
X010756Y006018D01*
X010648Y006126D01*
X010507Y006185D01*
X010353Y006185D01*
X010212Y006126D01*
X010104Y006018D01*
X010045Y005877D01*
X010045Y005723D01*
X010104Y005582D01*
X010212Y005474D01*
X010353Y005415D01*
X010405Y005415D01*
X010525Y005295D01*
X010430Y005200D01*
X010325Y005305D01*
X010220Y005305D01*
X010220Y005358D01*
X010176Y005464D01*
X009815Y005825D01*
X009815Y005877D01*
X009756Y006018D01*
X009648Y006126D01*
X009507Y006185D01*
X009353Y006185D01*
X009212Y006126D01*
X009104Y006018D01*
X009045Y005877D01*
X009045Y005723D01*
X009104Y005582D01*
X009212Y005474D01*
X009353Y005415D01*
X009405Y005415D01*
X009525Y005295D01*
X009430Y005200D01*
X009325Y005305D01*
X009220Y005305D01*
X009220Y005358D01*
X009176Y005464D01*
X008815Y005825D01*
X008815Y005877D01*
X008756Y006018D01*
X008648Y006126D01*
X008507Y006185D01*
X008353Y006185D01*
X008212Y006126D01*
X008104Y006018D01*
X008045Y005877D01*
X008045Y005723D01*
X008104Y005582D01*
X008212Y005474D01*
X008353Y005415D01*
X008405Y005415D01*
X008525Y005295D01*
X008430Y005200D01*
X008325Y005305D01*
X008220Y005305D01*
X008220Y005358D01*
X008176Y005464D01*
X007815Y005825D01*
X007815Y005877D01*
X007756Y006018D01*
X007648Y006126D01*
X007507Y006185D01*
X007353Y006185D01*
X007212Y006126D01*
X007104Y006018D01*
X007045Y005877D01*
X007045Y005723D01*
X007104Y005582D01*
X007212Y005474D01*
X007353Y005415D01*
X007405Y005415D01*
X007525Y005295D01*
X007430Y005200D01*
X007325Y005305D01*
X007220Y005305D01*
X007220Y005358D01*
X007176Y005464D01*
X006815Y005825D01*
X006815Y005877D01*
X006756Y006018D01*
X006648Y006126D01*
X006507Y006185D01*
X006353Y006185D01*
X006212Y006126D01*
X006104Y006018D01*
X006045Y005877D01*
X006045Y005723D01*
X006104Y005582D01*
X006212Y005474D01*
X006353Y005415D01*
X006405Y005415D01*
X006525Y005295D01*
X006430Y005200D01*
X006325Y005305D01*
X006220Y005305D01*
X006220Y005358D01*
X006176Y005464D01*
X005815Y005825D01*
X005815Y005877D01*
X005756Y006018D01*
X005648Y006126D01*
X005507Y006185D01*
X005353Y006185D01*
X005212Y006126D01*
X005104Y006018D01*
X005045Y005877D01*
X005045Y005723D01*
X005104Y005582D01*
X005212Y005474D01*
X005353Y005415D01*
X005405Y005415D01*
X005525Y005295D01*
X005430Y005200D01*
X005325Y005305D01*
X005220Y005305D01*
X005220Y005358D01*
X005176Y005464D01*
X004815Y005825D01*
X004815Y005877D01*
X004756Y006018D01*
X004648Y006126D01*
X004507Y006185D01*
X004353Y006185D01*
X004212Y006126D01*
X004104Y006018D01*
X004045Y005877D01*
X004045Y005723D01*
X004104Y005582D01*
X004212Y005474D01*
X004353Y005415D01*
X004405Y005415D01*
X004525Y005295D01*
X004400Y005170D01*
X004400Y005136D01*
X004398Y005144D01*
X004374Y005186D01*
X004341Y005219D01*
X004299Y005243D01*
X004254Y005255D01*
X004000Y005255D01*
X004000Y004800D01*
X003860Y004800D01*
X003860Y005255D01*
X003606Y005255D01*
X003561Y005243D01*
X003535Y005228D01*
X003535Y006395D01*
X003462Y006572D01*
X003327Y006707D01*
X003150Y006780D01*
X002335Y006780D01*
X002158Y006707D01*
X002023Y006572D01*
X001950Y006395D01*
X001950Y005305D01*
X001535Y005305D01*
X001430Y005200D01*
X001345Y005285D01*
X001345Y010805D01*
X001425Y010885D01*
X003560Y010885D01*
X003600Y010845D01*
X003205Y010845D01*
X003138Y010778D01*
X003129Y010783D01*
X003084Y010795D01*
X002930Y010795D01*
X002930Y010215D01*
X002930Y010215D01*
X002930Y009635D01*
X003084Y009635D01*
X003129Y009647D01*
X003138Y009652D01*
X003140Y009650D01*
X003140Y009617D01*
X003184Y009511D01*
X003309Y009386D01*
X003391Y009304D01*
X003497Y009260D01*
X007363Y009260D01*
X007469Y009304D01*
X008045Y009880D01*
X008048Y009841D02*
X008006Y009841D01*
X007902Y009683D02*
X007848Y009683D01*
X007744Y009524D02*
X007689Y009524D01*
X007643Y009366D02*
X007531Y009366D01*
X007640Y009207D02*
X001345Y009207D01*
X001345Y009049D02*
X002601Y009049D01*
X002652Y009100D02*
X002515Y008963D01*
X002440Y008782D01*
X002440Y008068D01*
X002515Y007887D01*
X002652Y007750D01*
X002833Y007675D01*
X003027Y007675D01*
X003208Y007750D01*
X003345Y007887D01*
X003420Y008068D01*
X003420Y008782D01*
X003345Y008963D01*
X003208Y009100D01*
X003027Y009175D01*
X002833Y009175D01*
X002652Y009100D01*
X002485Y008890D02*
X001345Y008890D01*
X001345Y008732D02*
X002440Y008732D01*
X002440Y008573D02*
X001345Y008573D01*
X001345Y008415D02*
X002440Y008415D01*
X002440Y008256D02*
X001345Y008256D01*
X001345Y008098D02*
X002440Y008098D01*
X002493Y007939D02*
X001345Y007939D01*
X001345Y007781D02*
X002622Y007781D01*
X003238Y007781D02*
X003622Y007781D01*
X003652Y007750D02*
X003833Y007675D01*
X004027Y007675D01*
X004208Y007750D01*
X004345Y007887D01*
X004420Y008068D01*
X004420Y008782D01*
X004345Y008963D01*
X004208Y009100D01*
X004027Y009175D01*
X003833Y009175D01*
X003652Y009100D01*
X003515Y008963D01*
X003440Y008782D01*
X003440Y008068D01*
X003515Y007887D01*
X003652Y007750D01*
X003493Y007939D02*
X003367Y007939D01*
X003420Y008098D02*
X003440Y008098D01*
X003440Y008256D02*
X003420Y008256D01*
X003420Y008415D02*
X003440Y008415D01*
X003440Y008573D02*
X003420Y008573D01*
X003420Y008732D02*
X003440Y008732D01*
X003485Y008890D02*
X003375Y008890D01*
X003259Y009049D02*
X003601Y009049D01*
X003329Y009366D02*
X001345Y009366D01*
X001345Y009524D02*
X003179Y009524D01*
X002930Y009635D02*
X002930Y010215D01*
X002930Y010215D01*
X002930Y010215D01*
X002620Y010215D01*
X002620Y010639D01*
X002632Y010684D01*
X002656Y010726D01*
X002689Y010759D01*
X002731Y010783D01*
X002776Y010795D01*
X002930Y010795D01*
X002930Y010215D01*
X002620Y010215D01*
X002620Y009791D01*
X002632Y009746D01*
X002656Y009704D01*
X002689Y009671D01*
X002731Y009647D01*
X002776Y009635D01*
X002930Y009635D01*
X002930Y009683D02*
X002930Y009683D01*
X002930Y009841D02*
X002930Y009841D01*
X002930Y010000D02*
X002930Y010000D01*
X002930Y010158D02*
X002930Y010158D01*
X002930Y010317D02*
X002930Y010317D01*
X002930Y010475D02*
X002930Y010475D01*
X002930Y010634D02*
X002930Y010634D01*
X002930Y010792D02*
X002930Y010792D01*
X002765Y010792D02*
X001345Y010792D01*
X001345Y010634D02*
X002620Y010634D01*
X002620Y010475D02*
X001345Y010475D01*
X001345Y010317D02*
X002620Y010317D01*
X002620Y010158D02*
X001345Y010158D01*
X001345Y010000D02*
X002620Y010000D01*
X002620Y009841D02*
X001345Y009841D01*
X001345Y009683D02*
X002678Y009683D01*
X003095Y010792D02*
X003152Y010792D01*
X002650Y012060D02*
X000660Y012060D01*
X000660Y011902D02*
X007257Y011902D01*
X007353Y011902D02*
X017515Y011902D01*
X017515Y012060D02*
X007780Y012060D01*
X007777Y012219D02*
X016724Y012219D01*
X016585Y012377D02*
X015775Y012377D01*
X015951Y012536D02*
X016534Y012536D01*
X016376Y012694D02*
X016109Y012694D01*
X016214Y012853D02*
X016271Y012853D01*
X016265Y013011D02*
X016220Y013011D01*
X016220Y013170D02*
X016265Y013170D01*
X016265Y013328D02*
X016220Y013328D01*
X016220Y013487D02*
X016265Y013487D01*
X016265Y013645D02*
X016220Y013645D01*
X016261Y013804D02*
X016265Y013804D01*
X015640Y013645D02*
X005720Y013645D01*
X005720Y013487D02*
X015640Y013487D01*
X015640Y013328D02*
X005720Y013328D01*
X006251Y013170D02*
X015640Y013170D01*
X015606Y013011D02*
X007830Y013011D01*
X007833Y013675D02*
X008027Y013675D01*
X008208Y013750D01*
X008345Y013887D01*
X008420Y014068D01*
X008420Y014782D01*
X008345Y014963D01*
X008208Y015100D01*
X008027Y015175D01*
X007833Y015175D01*
X007652Y015100D01*
X007515Y014963D01*
X007440Y014782D01*
X007440Y014068D01*
X007515Y013887D01*
X007652Y013750D01*
X007833Y013675D01*
X007599Y013804D02*
X007261Y013804D01*
X007208Y013750D02*
X007345Y013887D01*
X007420Y014068D01*
X007420Y014782D01*
X007345Y014963D01*
X007208Y015100D01*
X007027Y015175D01*
X006833Y015175D01*
X006652Y015100D01*
X006515Y014963D01*
X006440Y014782D01*
X006440Y014068D01*
X006515Y013887D01*
X006652Y013750D01*
X006833Y013675D01*
X007027Y013675D01*
X007208Y013750D01*
X007376Y013962D02*
X007484Y013962D01*
X007440Y014121D02*
X007420Y014121D01*
X007420Y014279D02*
X007440Y014279D01*
X007440Y014438D02*
X007420Y014438D01*
X007420Y014596D02*
X007440Y014596D01*
X007440Y014755D02*
X007420Y014755D01*
X007366Y014913D02*
X007494Y014913D01*
X007624Y015072D02*
X007236Y015072D01*
X007175Y015230D02*
X008685Y015230D01*
X008652Y015100D02*
X008515Y014963D01*
X008440Y014782D01*
X008440Y014068D01*
X008515Y013887D01*
X008652Y013750D01*
X008833Y013675D01*
X009027Y013675D01*
X009208Y013750D01*
X009345Y013887D01*
X009420Y014068D01*
X009420Y014782D01*
X009345Y014963D01*
X009208Y015100D01*
X009027Y015175D01*
X008833Y015175D01*
X008652Y015100D01*
X008624Y015072D02*
X008236Y015072D01*
X008366Y014913D02*
X008494Y014913D01*
X008440Y014755D02*
X008420Y014755D01*
X008420Y014596D02*
X008440Y014596D01*
X008440Y014438D02*
X008420Y014438D01*
X008420Y014279D02*
X008440Y014279D01*
X008440Y014121D02*
X008420Y014121D01*
X008376Y013962D02*
X008484Y013962D01*
X008599Y013804D02*
X008261Y013804D01*
X008430Y015389D02*
X008430Y015389D01*
X008430Y015547D02*
X008430Y015547D01*
X008430Y015706D02*
X008430Y015706D01*
X008430Y015864D02*
X008430Y015864D01*
X008430Y016023D02*
X008430Y016023D01*
X008430Y016181D02*
X008430Y016181D01*
X008430Y016340D02*
X008430Y016340D01*
X008646Y016498D02*
X007220Y016498D01*
X007220Y016657D02*
X008751Y016657D01*
X008505Y016815D02*
X007220Y016815D01*
X007167Y016974D02*
X008346Y016974D01*
X008188Y017132D02*
X007008Y017132D01*
X006850Y017291D02*
X008140Y017291D01*
X008140Y017449D02*
X002410Y017449D01*
X002410Y017291D02*
X005510Y017291D01*
X005352Y017132D02*
X002410Y017132D01*
X002410Y016974D02*
X005193Y016974D01*
X005140Y016815D02*
X002410Y016815D01*
X002410Y016657D02*
X005140Y016657D01*
X005140Y016498D02*
X002410Y016498D01*
X002410Y016340D02*
X005140Y016340D01*
X005140Y016181D02*
X002400Y016181D01*
X002331Y016023D02*
X005140Y016023D01*
X005140Y015864D02*
X002132Y015864D01*
X001785Y015706D02*
X005140Y015706D01*
X005140Y015547D02*
X001785Y015547D01*
X001758Y015389D02*
X005140Y015389D01*
X005140Y015230D02*
X001664Y015230D01*
X001404Y015072D02*
X002719Y015072D01*
X002699Y015061D02*
X002643Y015021D01*
X002594Y014972D01*
X002554Y014916D01*
X002522Y014854D01*
X002501Y014788D01*
X002490Y014720D01*
X002490Y014425D01*
X002930Y014425D01*
X002930Y014425D01*
X002930Y015125D01*
X002965Y015125D01*
X003033Y015114D01*
X003099Y015093D01*
X003161Y015061D01*
X003217Y015021D01*
X003266Y014972D01*
X003306Y014916D01*
X003338Y014854D01*
X003359Y014788D01*
X003370Y014720D01*
X003370Y014425D01*
X002930Y014425D01*
X002930Y014425D01*
X002930Y014425D01*
X002930Y015125D01*
X002895Y015125D01*
X002827Y015114D01*
X002761Y015093D01*
X002699Y015061D01*
X002552Y014913D02*
X000660Y014913D01*
X000660Y014755D02*
X002496Y014755D01*
X002490Y014596D02*
X000660Y014596D01*
X000660Y014438D02*
X002490Y014438D01*
X002490Y014425D02*
X002490Y014130D01*
X002501Y014062D01*
X002522Y013996D01*
X002554Y013934D01*
X002594Y013878D01*
X002643Y013829D01*
X002699Y013789D01*
X002761Y013757D01*
X002827Y013736D01*
X002895Y013725D01*
X002930Y013725D01*
X002965Y013725D01*
X003033Y013736D01*
X003099Y013757D01*
X003161Y013789D01*
X003217Y013829D01*
X003266Y013878D01*
X003306Y013934D01*
X003338Y013996D01*
X003359Y014062D01*
X003370Y014130D01*
X003370Y014425D01*
X002930Y014425D01*
X002930Y013725D01*
X002930Y014425D01*
X002930Y014425D01*
X002490Y014425D01*
X002490Y014279D02*
X000660Y014279D01*
X000660Y014121D02*
X002492Y014121D01*
X002540Y013962D02*
X000660Y013962D01*
X000660Y013804D02*
X002679Y013804D01*
X002930Y013804D02*
X002930Y013804D01*
X002930Y013962D02*
X002930Y013962D01*
X002930Y014121D02*
X002930Y014121D01*
X002930Y014279D02*
X002930Y014279D01*
X002930Y014438D02*
X002930Y014438D01*
X002930Y014596D02*
X002930Y014596D01*
X002930Y014755D02*
X002930Y014755D01*
X002930Y014913D02*
X002930Y014913D01*
X002930Y015072D02*
X002930Y015072D01*
X003141Y015072D02*
X003624Y015072D01*
X003652Y015100D02*
X003515Y014963D01*
X003440Y014782D01*
X003440Y014068D01*
X003515Y013887D01*
X003652Y013750D01*
X003833Y013675D01*
X004027Y013675D01*
X004208Y013750D01*
X004345Y013887D01*
X004420Y014068D01*
X004420Y014782D01*
X004345Y014963D01*
X004208Y015100D01*
X004027Y015175D01*
X003833Y015175D01*
X003652Y015100D01*
X003494Y014913D02*
X003308Y014913D01*
X003364Y014755D02*
X003440Y014755D01*
X003440Y014596D02*
X003370Y014596D01*
X003370Y014438D02*
X003440Y014438D01*
X003440Y014279D02*
X003370Y014279D01*
X003368Y014121D02*
X003440Y014121D01*
X003484Y013962D02*
X003320Y013962D01*
X003181Y013804D02*
X003599Y013804D01*
X004261Y013804D02*
X004599Y013804D01*
X004484Y013962D02*
X004376Y013962D01*
X004420Y014121D02*
X004440Y014121D01*
X004440Y014279D02*
X004420Y014279D01*
X004420Y014438D02*
X004440Y014438D01*
X004440Y014596D02*
X004420Y014596D01*
X004420Y014755D02*
X004440Y014755D01*
X004494Y014913D02*
X004366Y014913D01*
X004236Y015072D02*
X004624Y015072D01*
X005140Y013645D02*
X000660Y013645D01*
X000660Y013487D02*
X005140Y013487D01*
X005140Y013328D02*
X000660Y013328D01*
X000660Y013170D02*
X002609Y013170D01*
X002570Y013011D02*
X000660Y013011D01*
X000660Y012853D02*
X002570Y012853D01*
X002570Y012694D02*
X000660Y012694D01*
X000660Y012536D02*
X002570Y012536D01*
X002570Y012377D02*
X000660Y012377D01*
X000660Y012219D02*
X002570Y012219D01*
X001281Y011743D02*
X006830Y011743D01*
X006851Y011585D02*
X005431Y011585D01*
X005589Y011426D02*
X014832Y011426D01*
X015028Y011426D02*
X017515Y011426D01*
X017515Y011268D02*
X015257Y011268D01*
X015315Y011109D02*
X017515Y011109D01*
X017515Y010951D02*
X015345Y010951D01*
X015345Y010792D02*
X015492Y010792D01*
X015491Y010790D02*
X015467Y010749D01*
X015455Y010704D01*
X015455Y010472D01*
X015882Y010472D01*
X015882Y010376D01*
X015455Y010376D01*
X015455Y010144D01*
X015467Y010099D01*
X015470Y010093D01*
X015405Y010027D01*
X015405Y009325D01*
X015539Y009190D01*
X015640Y009190D01*
X015640Y009088D01*
X015515Y008963D01*
X015440Y008782D01*
X015440Y008068D01*
X015515Y007887D01*
X015652Y007750D01*
X015833Y007675D01*
X016027Y007675D01*
X016208Y007750D01*
X016345Y007887D01*
X016420Y008068D01*
X016420Y008782D01*
X016345Y008963D01*
X016220Y009088D01*
X016220Y009190D01*
X016321Y009190D01*
X016455Y009325D01*
X016455Y010027D01*
X016390Y010093D01*
X016393Y010099D01*
X016405Y010144D01*
X016405Y010376D01*
X015978Y010376D01*
X015978Y010472D01*
X016405Y010472D01*
X016405Y010704D01*
X016393Y010749D01*
X016369Y010790D01*
X016336Y010824D01*
X016295Y010848D01*
X016249Y010860D01*
X015978Y010860D01*
X015978Y010472D01*
X015882Y010472D01*
X015882Y010860D01*
X015611Y010860D01*
X015565Y010848D01*
X015524Y010824D01*
X015491Y010790D01*
X015455Y010634D02*
X015345Y010634D01*
X015345Y010475D02*
X015455Y010475D01*
X015455Y010317D02*
X015345Y010317D01*
X015345Y010158D02*
X015455Y010158D01*
X015405Y010000D02*
X015290Y010000D01*
X015405Y009841D02*
X015131Y009841D01*
X014973Y009683D02*
X015405Y009683D01*
X015405Y009524D02*
X014815Y009524D01*
X014770Y009366D02*
X015405Y009366D01*
X015523Y009207D02*
X014608Y009207D01*
X014652Y009100D02*
X014515Y008963D01*
X014440Y008782D01*
X014440Y008068D01*
X014515Y007887D01*
X014652Y007750D01*
X014833Y007675D01*
X015027Y007675D01*
X015208Y007750D01*
X015345Y007887D01*
X015420Y008068D01*
X015420Y008782D01*
X015345Y008963D01*
X015208Y009100D01*
X015027Y009175D01*
X014833Y009175D01*
X014652Y009100D01*
X014601Y009049D02*
X014259Y009049D01*
X014252Y009207D02*
X013747Y009207D01*
X013244Y009524D02*
X010315Y009524D01*
X010270Y009366D02*
X013143Y009366D01*
X013140Y009207D02*
X010220Y009207D01*
X010259Y009049D02*
X010601Y009049D01*
X010652Y009100D02*
X010515Y008963D01*
X010440Y008782D01*
X010440Y008068D01*
X010515Y007887D01*
X010652Y007750D01*
X010833Y007675D01*
X011027Y007675D01*
X011208Y007750D01*
X011345Y007887D01*
X011420Y008068D01*
X011420Y008782D01*
X011345Y008963D01*
X011208Y009100D01*
X011027Y009175D01*
X010833Y009175D01*
X010652Y009100D01*
X010485Y008890D02*
X010375Y008890D01*
X010420Y008732D02*
X010440Y008732D01*
X010440Y008573D02*
X010420Y008573D01*
X010420Y008415D02*
X010440Y008415D01*
X010440Y008256D02*
X010420Y008256D01*
X010420Y008098D02*
X010440Y008098D01*
X010493Y007939D02*
X010367Y007939D01*
X010238Y007781D02*
X010622Y007781D01*
X010256Y007393D02*
X010148Y007501D01*
X010007Y007560D01*
X009853Y007560D01*
X009712Y007501D01*
X009676Y007465D01*
X009425Y007465D01*
X009220Y007670D01*
X009220Y007762D01*
X009345Y007887D01*
X009420Y008068D01*
X009420Y008782D01*
X009345Y008963D01*
X009208Y009100D01*
X009027Y009175D01*
X008833Y009175D01*
X008652Y009100D01*
X008515Y008963D01*
X008440Y008782D01*
X008440Y008068D01*
X008515Y007887D01*
X008640Y007762D01*
X008640Y007492D01*
X008684Y007386D01*
X008766Y007304D01*
X009141Y006929D01*
X009247Y006885D01*
X009676Y006885D01*
X009712Y006849D01*
X009853Y006790D01*
X010007Y006790D01*
X010148Y006849D01*
X010256Y006957D01*
X010315Y007098D01*
X010315Y007252D01*
X010256Y007393D01*
X010293Y007305D02*
X013140Y007305D01*
X013140Y007147D02*
X010315Y007147D01*
X010269Y006988D02*
X013207Y006988D01*
X013365Y006830D02*
X010102Y006830D01*
X009758Y006830D02*
X001345Y006830D01*
X001345Y006988D02*
X009082Y006988D01*
X008923Y007147D02*
X001345Y007147D01*
X001345Y007305D02*
X008765Y007305D01*
X008652Y007464D02*
X001345Y007464D01*
X001345Y007622D02*
X008640Y007622D01*
X008622Y007781D02*
X008238Y007781D01*
X008367Y007939D02*
X008493Y007939D01*
X008440Y008098D02*
X008420Y008098D01*
X008420Y008256D02*
X008440Y008256D01*
X008440Y008415D02*
X008420Y008415D01*
X008420Y008573D02*
X008440Y008573D01*
X008440Y008732D02*
X008420Y008732D01*
X008375Y008890D02*
X008485Y008890D01*
X008601Y009049D02*
X008259Y009049D01*
X008247Y009207D02*
X009640Y009207D01*
X009601Y009049D02*
X009259Y009049D01*
X009375Y008890D02*
X009485Y008890D01*
X009440Y008732D02*
X009420Y008732D01*
X009420Y008573D02*
X009440Y008573D01*
X009440Y008415D02*
X009420Y008415D01*
X009420Y008256D02*
X009440Y008256D01*
X009440Y008098D02*
X009420Y008098D01*
X009367Y007939D02*
X009493Y007939D01*
X009622Y007781D02*
X009238Y007781D01*
X009268Y007622D02*
X013140Y007622D01*
X013140Y007464D02*
X010186Y007464D01*
X010123Y006037D02*
X009737Y006037D01*
X009814Y005879D02*
X010046Y005879D01*
X010046Y005720D02*
X009920Y005720D01*
X010079Y005562D02*
X010124Y005562D01*
X010201Y005403D02*
X010417Y005403D01*
X010386Y005245D02*
X010474Y005245D01*
X010920Y005720D02*
X011046Y005720D01*
X011046Y005879D02*
X010814Y005879D01*
X010737Y006037D02*
X011123Y006037D01*
X011124Y005562D02*
X011079Y005562D01*
X011201Y005403D02*
X011417Y005403D01*
X011386Y005245D02*
X011474Y005245D01*
X011920Y005720D02*
X012046Y005720D01*
X012046Y005879D02*
X011814Y005879D01*
X011737Y006037D02*
X012123Y006037D01*
X012124Y005562D02*
X012079Y005562D01*
X012201Y005403D02*
X012417Y005403D01*
X012386Y005245D02*
X012474Y005245D01*
X012814Y005879D02*
X013046Y005879D01*
X013046Y005720D02*
X012920Y005720D01*
X013079Y005562D02*
X013124Y005562D01*
X013201Y005403D02*
X013417Y005403D01*
X013386Y005245D02*
X013474Y005245D01*
X013814Y005879D02*
X014316Y005879D01*
X014158Y006037D02*
X013737Y006037D01*
X013999Y006196D02*
X003535Y006196D01*
X003535Y006354D02*
X013841Y006354D01*
X013682Y006513D02*
X003487Y006513D01*
X003363Y006671D02*
X013524Y006671D01*
X013869Y007147D02*
X014048Y007147D01*
X014027Y006988D02*
X016698Y006988D01*
X016738Y006671D02*
X017515Y006671D01*
X017515Y006513D02*
X016862Y006513D01*
X016910Y006354D02*
X017515Y006354D01*
X017515Y006196D02*
X016910Y006196D01*
X016910Y006037D02*
X017515Y006037D01*
X017515Y005879D02*
X016910Y005879D01*
X016910Y005720D02*
X017515Y005720D01*
X017515Y005562D02*
X016910Y005562D01*
X016910Y005403D02*
X017515Y005403D01*
X017474Y005245D02*
X017386Y005245D01*
X018095Y005403D02*
X018200Y005403D01*
X018200Y005562D02*
X018095Y005562D01*
X018095Y005720D02*
X018200Y005720D01*
X018200Y005879D02*
X018095Y005879D01*
X018095Y006037D02*
X018200Y006037D01*
X018200Y006196D02*
X018095Y006196D01*
X018095Y006354D02*
X018200Y006354D01*
X018200Y006513D02*
X018095Y006513D01*
X018095Y006671D02*
X018200Y006671D01*
X018200Y006830D02*
X018095Y006830D01*
X018095Y006988D02*
X018200Y006988D01*
X018200Y007147D02*
X018095Y007147D01*
X018095Y007305D02*
X018200Y007305D01*
X018200Y007464D02*
X018095Y007464D01*
X018095Y007622D02*
X018200Y007622D01*
X018200Y007781D02*
X018095Y007781D01*
X018095Y007939D02*
X018200Y007939D01*
X018200Y008098D02*
X018095Y008098D01*
X018095Y008256D02*
X018200Y008256D01*
X018200Y008415D02*
X018095Y008415D01*
X018095Y008573D02*
X018200Y008573D01*
X018200Y008732D02*
X018095Y008732D01*
X018095Y008890D02*
X018200Y008890D01*
X018200Y009049D02*
X018095Y009049D01*
X018095Y009207D02*
X018200Y009207D01*
X018200Y009366D02*
X018095Y009366D01*
X018095Y009524D02*
X018200Y009524D01*
X018200Y009683D02*
X018095Y009683D01*
X018095Y009841D02*
X018200Y009841D01*
X018200Y010000D02*
X018095Y010000D01*
X018095Y010158D02*
X018200Y010158D01*
X018200Y010317D02*
X018095Y010317D01*
X018095Y010475D02*
X018200Y010475D01*
X018200Y010634D02*
X018095Y010634D01*
X018095Y010792D02*
X018200Y010792D01*
X018200Y010951D02*
X018095Y010951D01*
X018095Y011109D02*
X018200Y011109D01*
X018200Y011268D02*
X018095Y011268D01*
X018095Y011426D02*
X018200Y011426D01*
X018200Y011585D02*
X018095Y011585D01*
X018095Y011743D02*
X018200Y011743D01*
X018200Y011902D02*
X018095Y011902D01*
X018095Y012060D02*
X018200Y012060D01*
X018200Y012219D02*
X018095Y012219D01*
X018087Y012377D02*
X018200Y012377D01*
X018200Y012536D02*
X017980Y012536D01*
X017821Y012694D02*
X018200Y012694D01*
X018200Y012853D02*
X017663Y012853D01*
X017504Y013011D02*
X018200Y013011D01*
X018200Y013170D02*
X017346Y013170D01*
X017220Y013328D02*
X018200Y013328D01*
X018200Y013487D02*
X017220Y013487D01*
X017220Y013645D02*
X018200Y013645D01*
X018200Y013804D02*
X017220Y013804D01*
X017220Y013962D02*
X018200Y013962D01*
X018200Y014121D02*
X017220Y014121D01*
X017220Y014279D02*
X018200Y014279D01*
X018200Y014438D02*
X017220Y014438D01*
X017220Y014596D02*
X018200Y014596D01*
X018200Y014755D02*
X017220Y014755D01*
X017220Y014913D02*
X018200Y014913D01*
X017456Y015072D02*
X017220Y015072D01*
X017196Y015230D02*
X017160Y015230D01*
X017102Y015389D02*
X017002Y015389D01*
X017075Y015547D02*
X016843Y015547D01*
X016685Y015706D02*
X017075Y015706D01*
X016728Y015864D02*
X016526Y015864D01*
X016529Y016023D02*
X016368Y016023D01*
X016460Y016181D02*
X016209Y016181D01*
X016051Y016340D02*
X016450Y016340D01*
X016450Y016498D02*
X015892Y016498D01*
X015734Y016657D02*
X016450Y016657D01*
X016450Y016815D02*
X015575Y016815D01*
X015206Y015864D02*
X009790Y015864D01*
X009790Y015706D02*
X015364Y015706D01*
X015523Y015547D02*
X009790Y015547D01*
X009790Y015389D02*
X015681Y015389D01*
X015840Y015230D02*
X009675Y015230D01*
X009652Y015100D02*
X009515Y014963D01*
X009440Y014782D01*
X009440Y014068D01*
X009515Y013887D01*
X009652Y013750D01*
X009833Y013675D01*
X010027Y013675D01*
X010208Y013750D01*
X010345Y013887D01*
X010420Y014068D01*
X010420Y014782D01*
X010345Y014963D01*
X010208Y015100D01*
X010027Y015175D01*
X009833Y015175D01*
X009652Y015100D01*
X009624Y015072D02*
X009236Y015072D01*
X009185Y015230D02*
X009175Y015230D01*
X009366Y014913D02*
X009494Y014913D01*
X009440Y014755D02*
X009420Y014755D01*
X009420Y014596D02*
X009440Y014596D01*
X009440Y014438D02*
X009420Y014438D01*
X009420Y014279D02*
X009440Y014279D01*
X009440Y014121D02*
X009420Y014121D01*
X009376Y013962D02*
X009484Y013962D01*
X009599Y013804D02*
X009261Y013804D01*
X010236Y015072D02*
X010624Y015072D01*
X010652Y015100D02*
X010515Y014963D01*
X010440Y014782D01*
X010440Y014068D01*
X010515Y013887D01*
X010652Y013750D01*
X010833Y013675D01*
X011027Y013675D01*
X011208Y013750D01*
X011345Y013887D01*
X011420Y014068D01*
X011420Y014782D01*
X011345Y014963D01*
X011208Y015100D01*
X011027Y015175D01*
X010833Y015175D01*
X010652Y015100D01*
X010494Y014913D02*
X010366Y014913D01*
X010420Y014755D02*
X010440Y014755D01*
X010440Y014596D02*
X010420Y014596D01*
X010420Y014438D02*
X010440Y014438D01*
X010440Y014279D02*
X010420Y014279D01*
X010420Y014121D02*
X010440Y014121D01*
X010484Y013962D02*
X010376Y013962D01*
X010261Y013804D02*
X010599Y013804D01*
X011261Y013804D02*
X011599Y013804D01*
X011652Y013750D02*
X011833Y013675D01*
X012027Y013675D01*
X012208Y013750D01*
X012345Y013887D01*
X012420Y014068D01*
X012420Y014782D01*
X012345Y014963D01*
X012208Y015100D01*
X012027Y015175D01*
X011833Y015175D01*
X011652Y015100D01*
X011515Y014963D01*
X011440Y014782D01*
X011440Y014068D01*
X011515Y013887D01*
X011652Y013750D01*
X011484Y013962D02*
X011376Y013962D01*
X011420Y014121D02*
X011440Y014121D01*
X011440Y014279D02*
X011420Y014279D01*
X011420Y014438D02*
X011440Y014438D01*
X011440Y014596D02*
X011420Y014596D01*
X011420Y014755D02*
X011440Y014755D01*
X011494Y014913D02*
X011366Y014913D01*
X011236Y015072D02*
X011624Y015072D01*
X012236Y015072D02*
X012624Y015072D01*
X012652Y015100D02*
X012515Y014963D01*
X012440Y014782D01*
X012440Y014068D01*
X012515Y013887D01*
X012652Y013750D01*
X012833Y013675D01*
X013027Y013675D01*
X013208Y013750D01*
X013345Y013887D01*
X013420Y014068D01*
X013420Y014782D01*
X013345Y014963D01*
X013208Y015100D01*
X013027Y015175D01*
X012833Y015175D01*
X012652Y015100D01*
X012494Y014913D02*
X012366Y014913D01*
X012420Y014755D02*
X012440Y014755D01*
X012440Y014596D02*
X012420Y014596D01*
X012420Y014438D02*
X012440Y014438D01*
X012440Y014279D02*
X012420Y014279D01*
X012420Y014121D02*
X012440Y014121D01*
X012484Y013962D02*
X012376Y013962D01*
X012261Y013804D02*
X012599Y013804D01*
X013261Y013804D02*
X013599Y013804D01*
X013652Y013750D02*
X013833Y013675D01*
X014027Y013675D01*
X014208Y013750D01*
X014345Y013887D01*
X014420Y014068D01*
X014420Y014782D01*
X014345Y014963D01*
X014208Y015100D01*
X014027Y015175D01*
X013833Y015175D01*
X013652Y015100D01*
X013515Y014963D01*
X013440Y014782D01*
X013440Y014068D01*
X013515Y013887D01*
X013652Y013750D01*
X013484Y013962D02*
X013376Y013962D01*
X013420Y014121D02*
X013440Y014121D01*
X013440Y014279D02*
X013420Y014279D01*
X013420Y014438D02*
X013440Y014438D01*
X013440Y014596D02*
X013420Y014596D01*
X013420Y014755D02*
X013440Y014755D01*
X013494Y014913D02*
X013366Y014913D01*
X013236Y015072D02*
X013624Y015072D01*
X014236Y015072D02*
X014624Y015072D01*
X014652Y015100D02*
X014515Y014963D01*
X014440Y014782D01*
X014440Y014068D01*
X014515Y013887D01*
X014652Y013750D01*
X014833Y013675D01*
X015027Y013675D01*
X015208Y013750D01*
X015345Y013887D01*
X015420Y014068D01*
X015420Y014782D01*
X015345Y014963D01*
X015208Y015100D01*
X015027Y015175D01*
X014833Y015175D01*
X014652Y015100D01*
X014494Y014913D02*
X014366Y014913D01*
X014420Y014755D02*
X014440Y014755D01*
X014440Y014596D02*
X014420Y014596D01*
X014420Y014438D02*
X014440Y014438D01*
X014440Y014279D02*
X014420Y014279D01*
X014420Y014121D02*
X014440Y014121D01*
X014484Y013962D02*
X014376Y013962D01*
X014261Y013804D02*
X014599Y013804D01*
X015261Y013804D02*
X015599Y013804D01*
X015484Y013962D02*
X015376Y013962D01*
X015420Y014121D02*
X015440Y014121D01*
X015440Y014279D02*
X015420Y014279D01*
X015420Y014438D02*
X015440Y014438D01*
X015440Y014596D02*
X015420Y014596D01*
X015420Y014755D02*
X015440Y014755D01*
X015494Y014913D02*
X015366Y014913D01*
X015236Y015072D02*
X015624Y015072D01*
X016450Y016974D02*
X009815Y016974D01*
X009813Y017132D02*
X010432Y017132D01*
X010330Y017291D02*
X009734Y017291D01*
X009790Y017766D02*
X010330Y017766D01*
X010330Y017608D02*
X008720Y017608D01*
X008720Y017449D02*
X010330Y017449D01*
X010303Y017925D02*
X009790Y017925D01*
X009790Y018559D02*
X010280Y018559D01*
X010347Y018717D02*
X009790Y018717D01*
X009670Y018876D02*
X015640Y018876D01*
X015640Y018717D02*
X011263Y018717D01*
X011330Y018559D02*
X015528Y018559D01*
X015208Y019000D02*
X015345Y019137D01*
X015420Y019318D01*
X015420Y020032D01*
X015345Y020213D01*
X015208Y020350D01*
X015027Y020425D01*
X014833Y020425D01*
X014652Y020350D01*
X014515Y020213D01*
X014440Y020032D01*
X014440Y019318D01*
X014515Y019137D01*
X014652Y019000D01*
X014833Y018925D01*
X015027Y018925D01*
X015208Y019000D01*
X015242Y019034D02*
X015618Y019034D01*
X015492Y019193D02*
X015368Y019193D01*
X015420Y019351D02*
X015440Y019351D01*
X015440Y019510D02*
X015420Y019510D01*
X015420Y019668D02*
X015440Y019668D01*
X015440Y019827D02*
X015420Y019827D01*
X015420Y019985D02*
X015440Y019985D01*
X015486Y020144D02*
X015374Y020144D01*
X015256Y020302D02*
X015604Y020302D01*
X015519Y020461D02*
X007720Y020461D01*
X007720Y020619D02*
X015405Y020619D01*
X015405Y020778D02*
X007720Y020778D01*
X007720Y020936D02*
X015405Y020936D01*
X015405Y021095D02*
X007720Y021095D01*
X007720Y021253D02*
X015405Y021253D01*
X015455Y021412D02*
X007720Y021412D01*
X007720Y021570D02*
X015455Y021570D01*
X015455Y021722D02*
X015882Y021722D01*
X015882Y022110D01*
X015611Y022110D01*
X015565Y022098D01*
X015524Y022074D01*
X015491Y022040D01*
X015467Y021999D01*
X015455Y021954D01*
X015455Y021722D01*
X015455Y021729D02*
X007720Y021729D01*
X007720Y021887D02*
X015455Y021887D01*
X015496Y022046D02*
X007720Y022046D01*
X007720Y022204D02*
X017099Y022204D01*
X017075Y022046D02*
X016364Y022046D01*
X016405Y021887D02*
X017075Y021887D01*
X017075Y021729D02*
X016405Y021729D01*
X016405Y021570D02*
X017075Y021570D01*
X017075Y021412D02*
X016405Y021412D01*
X016455Y021253D02*
X017075Y021253D01*
X017075Y021095D02*
X016455Y021095D01*
X016455Y020936D02*
X017075Y020936D01*
X017075Y020778D02*
X016455Y020778D01*
X016455Y020619D02*
X017075Y020619D01*
X017075Y020461D02*
X016341Y020461D01*
X016256Y020302D02*
X017075Y020302D01*
X017075Y020144D02*
X016374Y020144D01*
X016420Y019985D02*
X017075Y019985D01*
X017075Y019827D02*
X016420Y019827D01*
X016420Y019668D02*
X017075Y019668D01*
X017075Y019510D02*
X016420Y019510D01*
X016420Y019351D02*
X017075Y019351D01*
X017075Y019193D02*
X016368Y019193D01*
X016242Y019034D02*
X017075Y019034D01*
X017075Y018876D02*
X016220Y018876D01*
X016220Y018717D02*
X017075Y018717D01*
X017075Y018559D02*
X016220Y018559D01*
X016182Y018400D02*
X016601Y018400D01*
X016490Y018242D02*
X016032Y018242D01*
X015873Y018083D02*
X016450Y018083D01*
X016450Y017925D02*
X011307Y017925D01*
X011280Y017766D02*
X016450Y017766D01*
X016450Y017608D02*
X011280Y017608D01*
X011280Y017503D02*
X010853Y017503D01*
X010853Y017115D01*
X011124Y017115D01*
X011170Y017127D01*
X011211Y017151D01*
X011244Y017185D01*
X011268Y017226D01*
X011280Y017271D01*
X011280Y017503D01*
X011280Y017449D02*
X016450Y017449D01*
X016450Y017291D02*
X011280Y017291D01*
X011178Y017132D02*
X016450Y017132D01*
X014618Y019034D02*
X014242Y019034D01*
X014208Y019000D02*
X014345Y019137D01*
X014420Y019318D01*
X014420Y020032D01*
X014345Y020213D01*
X014208Y020350D01*
X014027Y020425D01*
X013833Y020425D01*
X013652Y020350D01*
X013515Y020213D01*
X013440Y020032D01*
X013440Y019318D01*
X013515Y019137D01*
X013652Y019000D01*
X013833Y018925D01*
X014027Y018925D01*
X014208Y019000D01*
X014368Y019193D02*
X014492Y019193D01*
X014440Y019351D02*
X014420Y019351D01*
X014420Y019510D02*
X014440Y019510D01*
X014440Y019668D02*
X014420Y019668D01*
X014420Y019827D02*
X014440Y019827D01*
X014440Y019985D02*
X014420Y019985D01*
X014374Y020144D02*
X014486Y020144D01*
X014604Y020302D02*
X014256Y020302D01*
X013604Y020302D02*
X013256Y020302D01*
X013208Y020350D02*
X013027Y020425D01*
X012833Y020425D01*
X012652Y020350D01*
X012515Y020213D01*
X012440Y020032D01*
X012440Y019318D01*
X012515Y019137D01*
X012652Y019000D01*
X012833Y018925D01*
X013027Y018925D01*
X013208Y019000D01*
X013345Y019137D01*
X013420Y019318D01*
X013420Y020032D01*
X013345Y020213D01*
X013208Y020350D01*
X013374Y020144D02*
X013486Y020144D01*
X013440Y019985D02*
X013420Y019985D01*
X013420Y019827D02*
X013440Y019827D01*
X013440Y019668D02*
X013420Y019668D01*
X013420Y019510D02*
X013440Y019510D01*
X013440Y019351D02*
X013420Y019351D01*
X013368Y019193D02*
X013492Y019193D01*
X013618Y019034D02*
X013242Y019034D01*
X012618Y019034D02*
X012242Y019034D01*
X012208Y019000D02*
X012027Y018925D01*
X011833Y018925D01*
X011652Y019000D01*
X011515Y019137D01*
X011440Y019318D01*
X011440Y020032D01*
X011515Y020213D01*
X011652Y020350D01*
X011833Y020425D01*
X012027Y020425D01*
X012208Y020350D01*
X012345Y020213D01*
X012420Y020032D01*
X012420Y019318D01*
X012345Y019137D01*
X012208Y019000D01*
X012368Y019193D02*
X012492Y019193D01*
X012440Y019351D02*
X012420Y019351D01*
X012420Y019510D02*
X012440Y019510D01*
X012440Y019668D02*
X012420Y019668D01*
X012420Y019827D02*
X012440Y019827D01*
X012440Y019985D02*
X012420Y019985D01*
X012374Y020144D02*
X012486Y020144D01*
X012604Y020302D02*
X012256Y020302D01*
X011604Y020302D02*
X011256Y020302D01*
X011208Y020350D02*
X011027Y020425D01*
X010833Y020425D01*
X010652Y020350D01*
X010515Y020213D01*
X010440Y020032D01*
X010440Y019318D01*
X010515Y019137D01*
X010652Y019000D01*
X010833Y018925D01*
X011027Y018925D01*
X011208Y019000D01*
X011345Y019137D01*
X011420Y019318D01*
X011420Y020032D01*
X011345Y020213D01*
X011208Y020350D01*
X011374Y020144D02*
X011486Y020144D01*
X011440Y019985D02*
X011420Y019985D01*
X011420Y019827D02*
X011440Y019827D01*
X011440Y019668D02*
X011420Y019668D01*
X011420Y019510D02*
X011440Y019510D01*
X011440Y019351D02*
X011420Y019351D01*
X011368Y019193D02*
X011492Y019193D01*
X011618Y019034D02*
X011242Y019034D01*
X010618Y019034D02*
X010151Y019034D01*
X010161Y019039D02*
X010217Y019079D01*
X010266Y019128D01*
X010306Y019184D01*
X010338Y019246D01*
X010359Y019312D01*
X010370Y019380D01*
X010370Y019675D01*
X010370Y019970D01*
X010359Y020038D01*
X010338Y020104D01*
X010306Y020166D01*
X010266Y020222D01*
X010217Y020271D01*
X010161Y020311D01*
X010099Y020343D01*
X010033Y020364D01*
X009965Y020375D01*
X009930Y020375D01*
X009930Y019675D01*
X009930Y019675D01*
X010370Y019675D01*
X009930Y019675D01*
X009930Y019675D01*
X009930Y019675D01*
X009490Y019675D01*
X009490Y019970D01*
X009501Y020038D01*
X009522Y020104D01*
X009554Y020166D01*
X009594Y020222D01*
X009643Y020271D01*
X009699Y020311D01*
X009761Y020343D01*
X009827Y020364D01*
X009895Y020375D01*
X009930Y020375D01*
X009930Y019675D01*
X009930Y018975D01*
X009965Y018975D01*
X010033Y018986D01*
X010099Y019007D01*
X010161Y019039D01*
X010310Y019193D02*
X010492Y019193D01*
X010440Y019351D02*
X010365Y019351D01*
X010370Y019510D02*
X010440Y019510D01*
X010440Y019668D02*
X010370Y019668D01*
X010370Y019827D02*
X010440Y019827D01*
X010440Y019985D02*
X010368Y019985D01*
X010318Y020144D02*
X010486Y020144D01*
X010604Y020302D02*
X010173Y020302D01*
X009930Y020302D02*
X009930Y020302D01*
X009930Y020144D02*
X009930Y020144D01*
X009930Y019985D02*
X009930Y019985D01*
X009930Y019827D02*
X009930Y019827D01*
X009930Y019675D02*
X009490Y019675D01*
X009490Y019380D01*
X009501Y019312D01*
X009522Y019246D01*
X009554Y019184D01*
X009594Y019128D01*
X009643Y019079D01*
X009699Y019039D01*
X009761Y019007D01*
X009827Y018986D01*
X009895Y018975D01*
X009930Y018975D01*
X009930Y019675D01*
X009930Y019675D01*
X009930Y019668D02*
X009930Y019668D01*
X009930Y019510D02*
X009930Y019510D01*
X009930Y019351D02*
X009930Y019351D01*
X009930Y019193D02*
X009930Y019193D01*
X009930Y019034D02*
X009930Y019034D01*
X009709Y019034D02*
X009242Y019034D01*
X009208Y019000D02*
X009027Y018925D01*
X008833Y018925D01*
X008652Y019000D01*
X008515Y019137D01*
X008440Y019318D01*
X008440Y020032D01*
X008515Y020213D01*
X008652Y020350D01*
X008833Y020425D01*
X009027Y020425D01*
X009208Y020350D01*
X009345Y020213D01*
X009420Y020032D01*
X009420Y019318D01*
X009345Y019137D01*
X009208Y019000D01*
X009190Y018876D02*
X009170Y018876D01*
X009368Y019193D02*
X009550Y019193D01*
X009495Y019351D02*
X009420Y019351D01*
X009420Y019510D02*
X009490Y019510D01*
X009490Y019668D02*
X009420Y019668D01*
X009420Y019827D02*
X009490Y019827D01*
X009492Y019985D02*
X009420Y019985D01*
X009374Y020144D02*
X009542Y020144D01*
X009687Y020302D02*
X009256Y020302D01*
X008604Y020302D02*
X008256Y020302D01*
X008374Y020144D02*
X008486Y020144D01*
X008440Y019985D02*
X008420Y019985D01*
X008420Y019827D02*
X008440Y019827D01*
X008440Y019668D02*
X008420Y019668D01*
X008420Y019510D02*
X008440Y019510D01*
X008440Y019351D02*
X008420Y019351D01*
X008368Y019193D02*
X008492Y019193D01*
X008618Y019034D02*
X008242Y019034D01*
X008670Y018876D02*
X008690Y018876D01*
X008140Y017608D02*
X002410Y017608D01*
X002410Y017766D02*
X005570Y017766D01*
X005570Y017925D02*
X002410Y017925D01*
X002410Y018083D02*
X005570Y018083D01*
X005570Y018242D02*
X002370Y018242D01*
X002259Y018400D02*
X005570Y018400D01*
X005570Y018559D02*
X001785Y018559D01*
X001785Y018717D02*
X005570Y018717D01*
X005690Y018876D02*
X001785Y018876D01*
X001785Y019034D02*
X002618Y019034D01*
X002652Y019000D02*
X002515Y019137D01*
X002440Y019318D01*
X002440Y020032D01*
X002515Y020213D01*
X002652Y020350D01*
X002833Y020425D01*
X003027Y020425D01*
X003208Y020350D01*
X003345Y020213D01*
X003420Y020032D01*
X003420Y019318D01*
X003345Y019137D01*
X003208Y019000D01*
X003027Y018925D01*
X002833Y018925D01*
X002652Y019000D01*
X002492Y019193D02*
X001785Y019193D01*
X001785Y019351D02*
X002440Y019351D01*
X002440Y019510D02*
X001785Y019510D01*
X001785Y019668D02*
X002440Y019668D01*
X002440Y019827D02*
X001785Y019827D01*
X001785Y019985D02*
X002440Y019985D01*
X002486Y020144D02*
X001785Y020144D01*
X001785Y020302D02*
X002604Y020302D01*
X003256Y020302D02*
X003604Y020302D01*
X003652Y020350D02*
X003515Y020213D01*
X003440Y020032D01*
X003440Y019318D01*
X003515Y019137D01*
X003652Y019000D01*
X003833Y018925D01*
X004027Y018925D01*
X004208Y019000D01*
X004345Y019137D01*
X004420Y019318D01*
X004420Y020032D01*
X004345Y020213D01*
X004208Y020350D01*
X004027Y020425D01*
X003833Y020425D01*
X003652Y020350D01*
X003486Y020144D02*
X003374Y020144D01*
X003420Y019985D02*
X003440Y019985D01*
X003440Y019827D02*
X003420Y019827D01*
X003420Y019668D02*
X003440Y019668D01*
X003440Y019510D02*
X003420Y019510D01*
X003420Y019351D02*
X003440Y019351D01*
X003492Y019193D02*
X003368Y019193D01*
X003242Y019034D02*
X003618Y019034D01*
X004242Y019034D02*
X004618Y019034D01*
X004652Y019000D02*
X004833Y018925D01*
X005027Y018925D01*
X005208Y019000D01*
X005345Y019137D01*
X005420Y019318D01*
X005420Y020032D01*
X005345Y020213D01*
X005208Y020350D01*
X005027Y020425D01*
X004833Y020425D01*
X004652Y020350D01*
X004515Y020213D01*
X004440Y020032D01*
X004440Y019318D01*
X004515Y019137D01*
X004652Y019000D01*
X004492Y019193D02*
X004368Y019193D01*
X004420Y019351D02*
X004440Y019351D01*
X004440Y019510D02*
X004420Y019510D01*
X004420Y019668D02*
X004440Y019668D01*
X004440Y019827D02*
X004420Y019827D01*
X004420Y019985D02*
X004440Y019985D01*
X004486Y020144D02*
X004374Y020144D01*
X004256Y020302D02*
X004604Y020302D01*
X005256Y020302D02*
X005604Y020302D01*
X005652Y020350D02*
X005515Y020213D01*
X005440Y020032D01*
X005440Y019318D01*
X005515Y019137D01*
X005652Y019000D01*
X005833Y018925D01*
X006027Y018925D01*
X006208Y019000D01*
X006345Y019137D01*
X006420Y019318D01*
X006420Y020032D01*
X006345Y020213D01*
X006208Y020350D01*
X006027Y020425D01*
X005833Y020425D01*
X005652Y020350D01*
X005486Y020144D02*
X005374Y020144D01*
X005420Y019985D02*
X005440Y019985D01*
X005440Y019827D02*
X005420Y019827D01*
X005420Y019668D02*
X005440Y019668D01*
X005440Y019510D02*
X005420Y019510D01*
X005420Y019351D02*
X005440Y019351D01*
X005492Y019193D02*
X005368Y019193D01*
X005242Y019034D02*
X005618Y019034D01*
X006170Y018876D02*
X006190Y018876D01*
X006242Y019034D02*
X006618Y019034D01*
X006670Y018876D02*
X006690Y018876D01*
X006492Y019193D02*
X006368Y019193D01*
X006420Y019351D02*
X006440Y019351D01*
X006440Y019510D02*
X006420Y019510D01*
X006420Y019668D02*
X006440Y019668D01*
X006440Y019827D02*
X006420Y019827D01*
X006420Y019985D02*
X006440Y019985D01*
X006486Y020144D02*
X006374Y020144D01*
X006256Y020302D02*
X006604Y020302D01*
X007140Y020461D02*
X001785Y020461D01*
X001785Y020619D02*
X007140Y020619D01*
X007140Y020778D02*
X001785Y020778D01*
X001785Y020936D02*
X007140Y020936D01*
X007140Y021095D02*
X001785Y021095D01*
X001785Y021253D02*
X007140Y021253D01*
X007140Y021412D02*
X001785Y021412D01*
X001785Y021570D02*
X007140Y021570D01*
X007140Y021729D02*
X001785Y021729D01*
X001785Y021887D02*
X007140Y021887D01*
X007140Y022046D02*
X001785Y022046D01*
X001761Y022204D02*
X007140Y022204D01*
X007140Y022363D02*
X001671Y022363D01*
X001422Y022521D02*
X007140Y022521D01*
X007140Y022680D02*
X000660Y022680D01*
X000660Y022838D02*
X007140Y022838D01*
X007140Y022997D02*
X000660Y022997D01*
X000660Y023155D02*
X007140Y023155D01*
X007140Y023314D02*
X000660Y023314D01*
X000660Y023472D02*
X007140Y023472D01*
X007140Y023631D02*
X000660Y023631D01*
X000660Y023789D02*
X007140Y023789D01*
X007140Y023948D02*
X000660Y023948D01*
X000660Y024106D02*
X007140Y024106D01*
X007140Y024265D02*
X000660Y024265D01*
X000660Y024423D02*
X007140Y024423D01*
X007140Y024582D02*
X000660Y024582D01*
X000660Y024740D02*
X007140Y024740D01*
X007140Y024899D02*
X000660Y024899D01*
X000660Y025057D02*
X002674Y025057D01*
X002699Y025039D02*
X002761Y025007D01*
X002827Y024986D01*
X002895Y024975D01*
X002930Y024975D01*
X002965Y024975D01*
X003033Y024986D01*
X003099Y025007D01*
X003161Y025039D01*
X003217Y025079D01*
X003266Y025128D01*
X003306Y025184D01*
X003338Y025246D01*
X003359Y025312D01*
X003370Y025380D01*
X003370Y025675D01*
X003370Y025970D01*
X003359Y026038D01*
X003338Y026104D01*
X003306Y026166D01*
X003266Y026222D01*
X003217Y026271D01*
X003161Y026311D01*
X003099Y026343D01*
X003033Y026364D01*
X002965Y026375D01*
X002930Y026375D01*
X002930Y025675D01*
X002930Y025675D01*
X003370Y025675D01*
X002930Y025675D01*
X002930Y025675D01*
X002930Y025675D01*
X002490Y025675D01*
X002490Y025970D01*
X002501Y026038D01*
X002522Y026104D01*
X002554Y026166D01*
X002594Y026222D01*
X002643Y026271D01*
X002699Y026311D01*
X002761Y026343D01*
X002827Y026364D01*
X002895Y026375D01*
X002930Y026375D01*
X002930Y025675D01*
X002930Y024975D01*
X002930Y025675D01*
X002930Y025675D01*
X002490Y025675D01*
X002490Y025380D01*
X002501Y025312D01*
X002522Y025246D01*
X002554Y025184D01*
X002594Y025128D01*
X002643Y025079D01*
X002699Y025039D01*
X002930Y025057D02*
X002930Y025057D01*
X002930Y025216D02*
X002930Y025216D01*
X002930Y025374D02*
X002930Y025374D01*
X002930Y025533D02*
X002930Y025533D01*
X002930Y025691D02*
X002930Y025691D01*
X002930Y025850D02*
X002930Y025850D01*
X002930Y026008D02*
X002930Y026008D01*
X002930Y026167D02*
X002930Y026167D01*
X002930Y026325D02*
X002930Y026325D01*
X002726Y026325D02*
X000660Y026325D01*
X000660Y026167D02*
X002554Y026167D01*
X002496Y026008D02*
X000660Y026008D01*
X000660Y025850D02*
X002490Y025850D01*
X002490Y025691D02*
X000660Y025691D01*
X000660Y025533D02*
X002490Y025533D01*
X002491Y025374D02*
X000660Y025374D01*
X000660Y025216D02*
X002538Y025216D01*
X003186Y025057D02*
X003595Y025057D01*
X003652Y025000D02*
X003515Y025137D01*
X003440Y025318D01*
X003440Y026032D01*
X003515Y026213D01*
X003652Y026350D01*
X003833Y026425D01*
X004027Y026425D01*
X004208Y026350D01*
X004345Y026213D01*
X004420Y026032D01*
X004420Y025318D01*
X004345Y025137D01*
X004208Y025000D01*
X004027Y024925D01*
X003833Y024925D01*
X003652Y025000D01*
X003482Y025216D02*
X003322Y025216D01*
X003369Y025374D02*
X003440Y025374D01*
X003440Y025533D02*
X003370Y025533D01*
X003370Y025691D02*
X003440Y025691D01*
X003440Y025850D02*
X003370Y025850D01*
X003364Y026008D02*
X003440Y026008D01*
X003496Y026167D02*
X003306Y026167D01*
X003134Y026325D02*
X003627Y026325D01*
X003833Y027050D02*
X003652Y027125D01*
X003515Y027262D01*
X003440Y027443D01*
X003440Y028157D01*
X003515Y028338D01*
X003652Y028475D01*
X003833Y028550D01*
X004027Y028550D01*
X004208Y028475D01*
X004345Y028338D01*
X004420Y028157D01*
X004420Y027443D01*
X004345Y027262D01*
X004208Y027125D01*
X004027Y027050D01*
X003833Y027050D01*
X003669Y027118D02*
X003191Y027118D01*
X003208Y027125D02*
X003345Y027262D01*
X003420Y027443D01*
X003420Y028157D01*
X003345Y028338D01*
X003208Y028475D01*
X003027Y028550D01*
X002833Y028550D01*
X002652Y028475D01*
X002515Y028338D01*
X002440Y028157D01*
X002440Y027443D01*
X002515Y027262D01*
X002652Y027125D01*
X002833Y027050D01*
X003027Y027050D01*
X003208Y027125D01*
X003351Y027276D02*
X003509Y027276D01*
X003443Y027435D02*
X003417Y027435D01*
X003420Y027593D02*
X003440Y027593D01*
X003440Y027752D02*
X003420Y027752D01*
X003420Y027910D02*
X003440Y027910D01*
X003440Y028069D02*
X003420Y028069D01*
X003391Y028227D02*
X003469Y028227D01*
X003563Y028386D02*
X003297Y028386D01*
X003042Y028544D02*
X003818Y028544D01*
X004042Y028544D02*
X004818Y028544D01*
X004833Y028550D02*
X004652Y028475D01*
X004515Y028338D01*
X004440Y028157D01*
X004440Y027443D01*
X004515Y027262D01*
X004652Y027125D01*
X004833Y027050D01*
X005027Y027050D01*
X005208Y027125D01*
X005345Y027262D01*
X005420Y027443D01*
X005420Y028157D01*
X005345Y028338D01*
X005208Y028475D01*
X005027Y028550D01*
X004833Y028550D01*
X005042Y028544D02*
X005818Y028544D01*
X005833Y028550D02*
X005652Y028475D01*
X005515Y028338D01*
X005440Y028157D01*
X005440Y027443D01*
X005515Y027262D01*
X005652Y027125D01*
X005833Y027050D01*
X006027Y027050D01*
X006208Y027125D01*
X006345Y027262D01*
X006420Y027443D01*
X006420Y028157D01*
X006345Y028338D01*
X006208Y028475D01*
X006027Y028550D01*
X005833Y028550D01*
X006042Y028544D02*
X006818Y028544D01*
X006833Y028550D02*
X006652Y028475D01*
X006515Y028338D01*
X006440Y028157D01*
X006440Y027443D01*
X006515Y027262D01*
X006652Y027125D01*
X006833Y027050D01*
X007027Y027050D01*
X007208Y027125D01*
X007345Y027262D01*
X007420Y027443D01*
X007420Y028157D01*
X007345Y028338D01*
X007208Y028475D01*
X007027Y028550D01*
X006833Y028550D01*
X006563Y028386D02*
X006297Y028386D01*
X006391Y028227D02*
X006469Y028227D01*
X006440Y028069D02*
X006420Y028069D01*
X006420Y027910D02*
X006440Y027910D01*
X006440Y027752D02*
X006420Y027752D01*
X006420Y027593D02*
X006440Y027593D01*
X006443Y027435D02*
X006417Y027435D01*
X006351Y027276D02*
X006509Y027276D01*
X006669Y027118D02*
X006191Y027118D01*
X006027Y026425D02*
X005833Y026425D01*
X005652Y026350D01*
X005515Y026213D01*
X005440Y026032D01*
X005440Y025318D01*
X005515Y025137D01*
X005652Y025000D01*
X005833Y024925D01*
X006027Y024925D01*
X006208Y025000D01*
X006345Y025137D01*
X006420Y025318D01*
X006420Y026032D01*
X006345Y026213D01*
X006208Y026350D01*
X006027Y026425D01*
X006233Y026325D02*
X006627Y026325D01*
X006496Y026167D02*
X006364Y026167D01*
X006420Y026008D02*
X006440Y026008D01*
X006440Y025850D02*
X006420Y025850D01*
X006420Y025691D02*
X006440Y025691D01*
X006440Y025533D02*
X006420Y025533D01*
X006420Y025374D02*
X006440Y025374D01*
X006482Y025216D02*
X006378Y025216D01*
X006265Y025057D02*
X006595Y025057D01*
X007140Y026484D02*
X000660Y026484D01*
X000660Y026642D02*
X007237Y026642D01*
X007395Y026801D02*
X000660Y026801D01*
X000660Y026959D02*
X007554Y026959D01*
X007640Y027118D02*
X007191Y027118D01*
X007351Y027276D02*
X007509Y027276D01*
X007443Y027435D02*
X007417Y027435D01*
X007420Y027593D02*
X007440Y027593D01*
X007440Y027752D02*
X007420Y027752D01*
X007420Y027910D02*
X007440Y027910D01*
X007440Y028069D02*
X007420Y028069D01*
X007391Y028227D02*
X007469Y028227D01*
X007563Y028386D02*
X007297Y028386D01*
X007042Y028544D02*
X007818Y028544D01*
X008042Y028544D02*
X008818Y028544D01*
X008833Y028550D02*
X008652Y028475D01*
X008515Y028338D01*
X008440Y028157D01*
X008440Y027443D01*
X008515Y027262D01*
X008652Y027125D01*
X008833Y027050D01*
X009027Y027050D01*
X009208Y027125D01*
X009345Y027262D01*
X009420Y027443D01*
X009420Y028157D01*
X009345Y028338D01*
X009208Y028475D01*
X009027Y028550D01*
X008833Y028550D01*
X009042Y028544D02*
X010818Y028544D01*
X010833Y028550D02*
X010652Y028475D01*
X010515Y028338D01*
X010440Y028157D01*
X010440Y027443D01*
X010515Y027262D01*
X010652Y027125D01*
X010833Y027050D01*
X011027Y027050D01*
X011208Y027125D01*
X011345Y027262D01*
X011420Y027443D01*
X011420Y028157D01*
X011345Y028338D01*
X011208Y028475D01*
X011027Y028550D01*
X010833Y028550D01*
X011042Y028544D02*
X011818Y028544D01*
X011833Y028550D02*
X011652Y028475D01*
X011515Y028338D01*
X011440Y028157D01*
X011440Y027443D01*
X011515Y027262D01*
X011652Y027125D01*
X011833Y027050D01*
X012027Y027050D01*
X012208Y027125D01*
X012345Y027262D01*
X012420Y027443D01*
X012420Y028157D01*
X012345Y028338D01*
X012208Y028475D01*
X012027Y028550D01*
X011833Y028550D01*
X012042Y028544D02*
X012818Y028544D01*
X012833Y028550D02*
X012652Y028475D01*
X012515Y028338D01*
X012440Y028157D01*
X012440Y027443D01*
X012515Y027262D01*
X012652Y027125D01*
X012833Y027050D01*
X013027Y027050D01*
X013208Y027125D01*
X013345Y027262D01*
X013420Y027443D01*
X013420Y028157D01*
X013345Y028338D01*
X013208Y028475D01*
X013027Y028550D01*
X012833Y028550D01*
X013042Y028544D02*
X013818Y028544D01*
X013833Y028550D02*
X013652Y028475D01*
X013515Y028338D01*
X013440Y028157D01*
X013440Y027443D01*
X013515Y027262D01*
X013652Y027125D01*
X013833Y027050D01*
X014027Y027050D01*
X014208Y027125D01*
X014345Y027262D01*
X014420Y027443D01*
X014420Y028157D01*
X014345Y028338D01*
X014208Y028475D01*
X014027Y028550D01*
X013833Y028550D01*
X014042Y028544D02*
X014818Y028544D01*
X014833Y028550D02*
X014652Y028475D01*
X014515Y028338D01*
X014440Y028157D01*
X014440Y027443D01*
X014515Y027262D01*
X014652Y027125D01*
X014833Y027050D01*
X015027Y027050D01*
X015208Y027125D01*
X015345Y027262D01*
X015420Y027443D01*
X015420Y028157D01*
X015345Y028338D01*
X015208Y028475D01*
X015027Y028550D01*
X014833Y028550D01*
X015042Y028544D02*
X015640Y028544D01*
X015640Y028565D02*
X015640Y028463D01*
X015515Y028338D01*
X015440Y028157D01*
X015440Y027443D01*
X015515Y027262D01*
X015652Y027125D01*
X015833Y027050D01*
X016027Y027050D01*
X016208Y027125D01*
X016345Y027262D01*
X016420Y027443D01*
X016420Y028157D01*
X016345Y028338D01*
X016220Y028463D01*
X016220Y028565D01*
X016321Y028565D01*
X016455Y028700D01*
X016455Y029402D01*
X016390Y029468D01*
X016393Y029474D01*
X016405Y029519D01*
X016405Y029751D01*
X015978Y029751D01*
X015978Y029847D01*
X016405Y029847D01*
X016405Y030079D01*
X016393Y030124D01*
X016369Y030165D01*
X016336Y030199D01*
X016295Y030223D01*
X016249Y030235D01*
X015978Y030235D01*
X015978Y029847D01*
X015882Y029847D01*
X015882Y029751D01*
X015455Y029751D01*
X015455Y029519D01*
X015467Y029474D01*
X015470Y029468D01*
X015405Y029402D01*
X015405Y028700D01*
X015539Y028565D01*
X015640Y028565D01*
X015563Y028386D02*
X015297Y028386D01*
X015391Y028227D02*
X015469Y028227D01*
X015440Y028069D02*
X015420Y028069D01*
X015420Y027910D02*
X015440Y027910D01*
X015440Y027752D02*
X015420Y027752D01*
X015420Y027593D02*
X015440Y027593D01*
X015443Y027435D02*
X015417Y027435D01*
X015351Y027276D02*
X015509Y027276D01*
X015669Y027118D02*
X015191Y027118D01*
X015027Y026425D02*
X014833Y026425D01*
X014652Y026350D01*
X014515Y026213D01*
X014440Y026032D01*
X014440Y025318D01*
X014515Y025137D01*
X014652Y025000D01*
X014833Y024925D01*
X015027Y024925D01*
X015208Y025000D01*
X015345Y025137D01*
X015420Y025318D01*
X015420Y026032D01*
X015345Y026213D01*
X015208Y026350D01*
X015027Y026425D01*
X015233Y026325D02*
X015627Y026325D01*
X015652Y026350D02*
X015515Y026213D01*
X015440Y026032D01*
X015440Y025318D01*
X015515Y025137D01*
X015652Y025000D01*
X015833Y024925D01*
X016027Y024925D01*
X016208Y025000D01*
X016345Y025137D01*
X016420Y025318D01*
X016420Y026032D01*
X016345Y026213D01*
X016208Y026350D01*
X016027Y026425D01*
X015833Y026425D01*
X015652Y026350D01*
X015496Y026167D02*
X015364Y026167D01*
X015420Y026008D02*
X015440Y026008D01*
X015440Y025850D02*
X015420Y025850D01*
X015420Y025691D02*
X015440Y025691D01*
X015440Y025533D02*
X015420Y025533D01*
X015420Y025374D02*
X015440Y025374D01*
X015482Y025216D02*
X015378Y025216D01*
X015265Y025057D02*
X015595Y025057D01*
X016265Y025057D02*
X018200Y025057D01*
X018200Y024899D02*
X007720Y024899D01*
X007720Y024740D02*
X018200Y024740D01*
X018200Y024582D02*
X007720Y024582D01*
X007720Y024423D02*
X018200Y024423D01*
X018200Y024265D02*
X007720Y024265D01*
X007720Y024106D02*
X018200Y024106D01*
X018200Y023948D02*
X007720Y023948D01*
X007720Y023789D02*
X018200Y023789D01*
X018200Y023631D02*
X007720Y023631D01*
X007720Y023472D02*
X018200Y023472D01*
X018200Y023314D02*
X007720Y023314D01*
X007720Y023155D02*
X018200Y023155D01*
X018200Y022997D02*
X007720Y022997D01*
X007720Y022838D02*
X018200Y022838D01*
X018200Y022680D02*
X007720Y022680D01*
X007720Y022521D02*
X017438Y022521D01*
X017189Y022363D02*
X007720Y022363D01*
X008833Y024925D02*
X008652Y025000D01*
X008515Y025137D01*
X008440Y025318D01*
X008440Y026032D01*
X008515Y026213D01*
X008652Y026350D01*
X008833Y026425D01*
X009027Y026425D01*
X009208Y026350D01*
X009345Y026213D01*
X009420Y026032D01*
X009420Y025318D01*
X009345Y025137D01*
X009208Y025000D01*
X009027Y024925D01*
X008833Y024925D01*
X008595Y025057D02*
X008265Y025057D01*
X008378Y025216D02*
X008482Y025216D01*
X008440Y025374D02*
X008420Y025374D01*
X008420Y025533D02*
X008440Y025533D01*
X008440Y025691D02*
X008420Y025691D01*
X008420Y025850D02*
X008440Y025850D01*
X008440Y026008D02*
X008420Y026008D01*
X008364Y026167D02*
X008496Y026167D01*
X008627Y026325D02*
X008233Y026325D01*
X008057Y026642D02*
X018200Y026642D01*
X018200Y026484D02*
X007899Y026484D01*
X008192Y026801D02*
X018200Y026801D01*
X018200Y026959D02*
X008220Y026959D01*
X008220Y027118D02*
X008669Y027118D01*
X008509Y027276D02*
X008351Y027276D01*
X008417Y027435D02*
X008443Y027435D01*
X008440Y027593D02*
X008420Y027593D01*
X008420Y027752D02*
X008440Y027752D01*
X008440Y027910D02*
X008420Y027910D01*
X008420Y028069D02*
X008440Y028069D01*
X008469Y028227D02*
X008391Y028227D01*
X008297Y028386D02*
X008563Y028386D01*
X009297Y028386D02*
X009633Y028386D01*
X009643Y028396D02*
X009594Y028347D01*
X009554Y028291D01*
X009522Y028229D01*
X009501Y028163D01*
X009490Y028095D01*
X009490Y027800D01*
X009930Y027800D01*
X009930Y027800D01*
X009930Y028500D01*
X009965Y028500D01*
X010033Y028489D01*
X010099Y028468D01*
X010161Y028436D01*
X010217Y028396D01*
X010266Y028347D01*
X010306Y028291D01*
X010338Y028229D01*
X010359Y028163D01*
X010370Y028095D01*
X010370Y027800D01*
X009930Y027800D01*
X009930Y027800D01*
X009930Y027800D01*
X009930Y028500D01*
X009895Y028500D01*
X009827Y028489D01*
X009761Y028468D01*
X009699Y028436D01*
X009643Y028396D01*
X009522Y028227D02*
X009391Y028227D01*
X009420Y028069D02*
X009490Y028069D01*
X009490Y027910D02*
X009420Y027910D01*
X009490Y027800D02*
X009490Y027505D01*
X009501Y027437D01*
X009522Y027371D01*
X009554Y027309D01*
X009594Y027253D01*
X009643Y027204D01*
X009699Y027164D01*
X009761Y027132D01*
X009827Y027111D01*
X009895Y027100D01*
X009930Y027100D01*
X009965Y027100D01*
X010033Y027111D01*
X010099Y027132D01*
X010161Y027164D01*
X010217Y027204D01*
X010266Y027253D01*
X010306Y027309D01*
X010338Y027371D01*
X010359Y027437D01*
X010370Y027505D01*
X010370Y027800D01*
X009930Y027800D01*
X009930Y027100D01*
X009930Y027800D01*
X009930Y027800D01*
X009490Y027800D01*
X009490Y027752D02*
X009420Y027752D01*
X009420Y027593D02*
X009490Y027593D01*
X009502Y027435D02*
X009417Y027435D01*
X009351Y027276D02*
X009578Y027276D01*
X009806Y027118D02*
X009191Y027118D01*
X009233Y026325D02*
X009627Y026325D01*
X009652Y026350D02*
X009515Y026213D01*
X009440Y026032D01*
X009440Y025318D01*
X009515Y025137D01*
X009652Y025000D01*
X009833Y024925D01*
X010027Y024925D01*
X010208Y025000D01*
X010345Y025137D01*
X010420Y025318D01*
X010420Y026032D01*
X010345Y026213D01*
X010208Y026350D01*
X010027Y026425D01*
X009833Y026425D01*
X009652Y026350D01*
X009496Y026167D02*
X009364Y026167D01*
X009420Y026008D02*
X009440Y026008D01*
X009440Y025850D02*
X009420Y025850D01*
X009420Y025691D02*
X009440Y025691D01*
X009440Y025533D02*
X009420Y025533D01*
X009420Y025374D02*
X009440Y025374D01*
X009482Y025216D02*
X009378Y025216D01*
X009265Y025057D02*
X009595Y025057D01*
X010233Y026325D02*
X010627Y026325D01*
X010652Y026350D02*
X010515Y026213D01*
X010440Y026032D01*
X010440Y025318D01*
X010515Y025137D01*
X010652Y025000D01*
X010833Y024925D01*
X011027Y024925D01*
X011208Y025000D01*
X011345Y025137D01*
X011420Y025318D01*
X011420Y026032D01*
X011345Y026213D01*
X011208Y026350D01*
X011027Y026425D01*
X010833Y026425D01*
X010652Y026350D01*
X010496Y026167D02*
X010364Y026167D01*
X010420Y026008D02*
X010440Y026008D01*
X010440Y025850D02*
X010420Y025850D01*
X010420Y025691D02*
X010440Y025691D01*
X010440Y025533D02*
X010420Y025533D01*
X010420Y025374D02*
X010440Y025374D01*
X010482Y025216D02*
X010378Y025216D01*
X010265Y025057D02*
X010595Y025057D01*
X011265Y025057D02*
X011595Y025057D01*
X011652Y025000D02*
X011833Y024925D01*
X012027Y024925D01*
X012208Y025000D01*
X012345Y025137D01*
X012420Y025318D01*
X012420Y026032D01*
X012345Y026213D01*
X012208Y026350D01*
X012027Y026425D01*
X011833Y026425D01*
X011652Y026350D01*
X011515Y026213D01*
X011440Y026032D01*
X011440Y025318D01*
X011515Y025137D01*
X011652Y025000D01*
X011482Y025216D02*
X011378Y025216D01*
X011420Y025374D02*
X011440Y025374D01*
X011440Y025533D02*
X011420Y025533D01*
X011420Y025691D02*
X011440Y025691D01*
X011440Y025850D02*
X011420Y025850D01*
X011420Y026008D02*
X011440Y026008D01*
X011496Y026167D02*
X011364Y026167D01*
X011233Y026325D02*
X011627Y026325D01*
X011669Y027118D02*
X011191Y027118D01*
X011351Y027276D02*
X011509Y027276D01*
X011443Y027435D02*
X011417Y027435D01*
X011420Y027593D02*
X011440Y027593D01*
X011440Y027752D02*
X011420Y027752D01*
X011420Y027910D02*
X011440Y027910D01*
X011440Y028069D02*
X011420Y028069D01*
X011391Y028227D02*
X011469Y028227D01*
X011563Y028386D02*
X011297Y028386D01*
X010563Y028386D02*
X010227Y028386D01*
X010338Y028227D02*
X010469Y028227D01*
X010440Y028069D02*
X010370Y028069D01*
X010370Y027910D02*
X010440Y027910D01*
X010440Y027752D02*
X010370Y027752D01*
X010370Y027593D02*
X010440Y027593D01*
X010443Y027435D02*
X010358Y027435D01*
X010282Y027276D02*
X010509Y027276D01*
X010669Y027118D02*
X010054Y027118D01*
X009930Y027118D02*
X009930Y027118D01*
X009930Y027276D02*
X009930Y027276D01*
X009930Y027435D02*
X009930Y027435D01*
X009930Y027593D02*
X009930Y027593D01*
X009930Y027752D02*
X009930Y027752D01*
X009930Y027910D02*
X009930Y027910D01*
X009930Y028069D02*
X009930Y028069D01*
X009930Y028227D02*
X009930Y028227D01*
X009930Y028386D02*
X009930Y028386D01*
X012297Y028386D02*
X012563Y028386D01*
X012469Y028227D02*
X012391Y028227D01*
X012420Y028069D02*
X012440Y028069D01*
X012440Y027910D02*
X012420Y027910D01*
X012420Y027752D02*
X012440Y027752D01*
X012440Y027593D02*
X012420Y027593D01*
X012417Y027435D02*
X012443Y027435D01*
X012509Y027276D02*
X012351Y027276D01*
X012191Y027118D02*
X012669Y027118D01*
X012833Y026425D02*
X012652Y026350D01*
X012515Y026213D01*
X012440Y026032D01*
X012440Y025318D01*
X012515Y025137D01*
X012652Y025000D01*
X012833Y024925D01*
X013027Y024925D01*
X013208Y025000D01*
X013345Y025137D01*
X013420Y025318D01*
X013420Y026032D01*
X013345Y026213D01*
X013208Y026350D01*
X013027Y026425D01*
X012833Y026425D01*
X012627Y026325D02*
X012233Y026325D01*
X012364Y026167D02*
X012496Y026167D01*
X012440Y026008D02*
X012420Y026008D01*
X012420Y025850D02*
X012440Y025850D01*
X012440Y025691D02*
X012420Y025691D01*
X012420Y025533D02*
X012440Y025533D01*
X012440Y025374D02*
X012420Y025374D01*
X012378Y025216D02*
X012482Y025216D01*
X012595Y025057D02*
X012265Y025057D01*
X013265Y025057D02*
X013595Y025057D01*
X013652Y025000D02*
X013515Y025137D01*
X013440Y025318D01*
X013440Y026032D01*
X013515Y026213D01*
X013652Y026350D01*
X013833Y026425D01*
X014027Y026425D01*
X014208Y026350D01*
X014345Y026213D01*
X014420Y026032D01*
X014420Y025318D01*
X014345Y025137D01*
X014208Y025000D01*
X014027Y024925D01*
X013833Y024925D01*
X013652Y025000D01*
X013482Y025216D02*
X013378Y025216D01*
X013420Y025374D02*
X013440Y025374D01*
X013440Y025533D02*
X013420Y025533D01*
X013420Y025691D02*
X013440Y025691D01*
X013440Y025850D02*
X013420Y025850D01*
X013420Y026008D02*
X013440Y026008D01*
X013496Y026167D02*
X013364Y026167D01*
X013233Y026325D02*
X013627Y026325D01*
X013669Y027118D02*
X013191Y027118D01*
X013351Y027276D02*
X013509Y027276D01*
X013443Y027435D02*
X013417Y027435D01*
X013420Y027593D02*
X013440Y027593D01*
X013440Y027752D02*
X013420Y027752D01*
X013420Y027910D02*
X013440Y027910D01*
X013440Y028069D02*
X013420Y028069D01*
X013391Y028227D02*
X013469Y028227D01*
X013563Y028386D02*
X013297Y028386D01*
X014191Y027118D02*
X014669Y027118D01*
X014509Y027276D02*
X014351Y027276D01*
X014417Y027435D02*
X014443Y027435D01*
X014440Y027593D02*
X014420Y027593D01*
X014420Y027752D02*
X014440Y027752D01*
X014440Y027910D02*
X014420Y027910D01*
X014420Y028069D02*
X014440Y028069D01*
X014469Y028227D02*
X014391Y028227D01*
X014297Y028386D02*
X014563Y028386D01*
X015405Y028703D02*
X000660Y028703D01*
X000660Y028861D02*
X015405Y028861D01*
X015405Y029020D02*
X000660Y029020D01*
X000660Y029178D02*
X015405Y029178D01*
X015405Y029337D02*
X000660Y029337D01*
X000660Y029495D02*
X015461Y029495D01*
X015455Y029654D02*
X000660Y029654D01*
X000660Y029812D02*
X015882Y029812D01*
X015882Y029847D02*
X015455Y029847D01*
X015455Y030079D01*
X015467Y030124D01*
X015491Y030165D01*
X015524Y030199D01*
X015565Y030223D01*
X015611Y030235D01*
X015882Y030235D01*
X015882Y029847D01*
X015978Y029812D02*
X018200Y029812D01*
X018200Y029654D02*
X016405Y029654D01*
X016399Y029495D02*
X018200Y029495D01*
X018200Y029337D02*
X016455Y029337D01*
X016455Y029178D02*
X018200Y029178D01*
X018200Y029020D02*
X016455Y029020D01*
X016455Y028861D02*
X018200Y028861D01*
X018200Y028703D02*
X016455Y028703D01*
X016220Y028544D02*
X018200Y028544D01*
X018200Y028386D02*
X016297Y028386D01*
X016391Y028227D02*
X018200Y028227D01*
X018200Y028069D02*
X016420Y028069D01*
X016420Y027910D02*
X018200Y027910D01*
X018200Y027752D02*
X016420Y027752D01*
X016420Y027593D02*
X018200Y027593D01*
X018200Y027435D02*
X016417Y027435D01*
X016351Y027276D02*
X018200Y027276D01*
X018200Y027118D02*
X016191Y027118D01*
X016233Y026325D02*
X018200Y026325D01*
X018200Y026167D02*
X016364Y026167D01*
X016420Y026008D02*
X018200Y026008D01*
X018200Y025850D02*
X016420Y025850D01*
X016420Y025691D02*
X018200Y025691D01*
X018200Y025533D02*
X016420Y025533D01*
X016420Y025374D02*
X018200Y025374D01*
X018200Y025216D02*
X016378Y025216D01*
X014627Y026325D02*
X014233Y026325D01*
X014364Y026167D02*
X014496Y026167D01*
X014440Y026008D02*
X014420Y026008D01*
X014420Y025850D02*
X014440Y025850D01*
X014440Y025691D02*
X014420Y025691D01*
X014420Y025533D02*
X014440Y025533D01*
X014440Y025374D02*
X014420Y025374D01*
X014378Y025216D02*
X014482Y025216D01*
X014595Y025057D02*
X014265Y025057D01*
X015882Y022046D02*
X015978Y022046D01*
X015978Y021887D02*
X015882Y021887D01*
X015882Y021729D02*
X015978Y021729D01*
X015882Y029971D02*
X015978Y029971D01*
X015978Y030129D02*
X015882Y030129D01*
X015470Y030129D02*
X000660Y030129D01*
X000660Y029971D02*
X015455Y029971D01*
X016390Y030129D02*
X018200Y030129D01*
X018200Y029971D02*
X016405Y029971D01*
X016027Y033050D02*
X015833Y033050D01*
X015652Y033125D01*
X015515Y033262D01*
X015440Y033443D01*
X015440Y034157D01*
X015515Y034338D01*
X015652Y034475D01*
X015833Y034550D01*
X016027Y034550D01*
X016208Y034475D01*
X016345Y034338D01*
X016420Y034157D01*
X016420Y033443D01*
X016345Y033262D01*
X016208Y033125D01*
X016027Y033050D01*
X016224Y033141D02*
X018200Y033141D01*
X018200Y033299D02*
X016361Y033299D01*
X016420Y033458D02*
X018200Y033458D01*
X018200Y033616D02*
X016420Y033616D01*
X016420Y033775D02*
X018200Y033775D01*
X018200Y033933D02*
X016420Y033933D01*
X016420Y034092D02*
X018200Y034092D01*
X018200Y034250D02*
X016382Y034250D01*
X016274Y034409D02*
X018200Y034409D01*
X018200Y034567D02*
X000660Y034567D01*
X000660Y034409D02*
X002661Y034409D01*
X002643Y034396D02*
X002699Y034436D01*
X002761Y034468D01*
X002827Y034489D01*
X002895Y034500D01*
X002930Y034500D01*
X002930Y033800D01*
X002930Y033800D01*
X003370Y033800D01*
X003370Y034095D01*
X003359Y034163D01*
X003338Y034229D01*
X003306Y034291D01*
X003266Y034347D01*
X003217Y034396D01*
X003161Y034436D01*
X003099Y034468D01*
X003033Y034489D01*
X002965Y034500D01*
X002930Y034500D01*
X002930Y033800D01*
X002930Y033800D01*
X002930Y033800D01*
X002490Y033800D01*
X002490Y034095D01*
X002501Y034163D01*
X002522Y034229D01*
X002554Y034291D01*
X002594Y034347D01*
X002643Y034396D01*
X002533Y034250D02*
X000660Y034250D01*
X000660Y034092D02*
X002490Y034092D01*
X002490Y033933D02*
X000660Y033933D01*
X000660Y033775D02*
X002490Y033775D01*
X002490Y033800D02*
X002490Y033505D01*
X002501Y033437D01*
X002522Y033371D01*
X002554Y033309D01*
X002594Y033253D01*
X002643Y033204D01*
X002699Y033164D01*
X002761Y033132D01*
X002827Y033111D01*
X002895Y033100D01*
X002930Y033100D01*
X002965Y033100D01*
X003033Y033111D01*
X003099Y033132D01*
X003161Y033164D01*
X003217Y033204D01*
X003266Y033253D01*
X003306Y033309D01*
X003338Y033371D01*
X003359Y033437D01*
X003370Y033505D01*
X003370Y033800D01*
X002930Y033800D01*
X002930Y033100D01*
X002930Y033800D01*
X002930Y033800D01*
X002490Y033800D01*
X002490Y033616D02*
X000660Y033616D01*
X000660Y033458D02*
X002498Y033458D01*
X002561Y033299D02*
X000660Y033299D01*
X000660Y033141D02*
X002745Y033141D01*
X002930Y033141D02*
X002930Y033141D01*
X002930Y033299D02*
X002930Y033299D01*
X002930Y033458D02*
X002930Y033458D01*
X002930Y033616D02*
X002930Y033616D01*
X002930Y033775D02*
X002930Y033775D01*
X002930Y033933D02*
X002930Y033933D01*
X002930Y034092D02*
X002930Y034092D01*
X002930Y034250D02*
X002930Y034250D01*
X002930Y034409D02*
X002930Y034409D01*
X003199Y034409D02*
X003586Y034409D01*
X003652Y034475D02*
X003515Y034338D01*
X003440Y034157D01*
X003440Y033443D01*
X003515Y033262D01*
X003652Y033125D01*
X003833Y033050D01*
X004027Y033050D01*
X004208Y033125D01*
X004345Y033262D01*
X004420Y033443D01*
X004420Y034157D01*
X004345Y034338D01*
X004208Y034475D01*
X004027Y034550D01*
X003833Y034550D01*
X003652Y034475D01*
X003478Y034250D02*
X003327Y034250D01*
X003370Y034092D02*
X003440Y034092D01*
X003440Y033933D02*
X003370Y033933D01*
X003370Y033775D02*
X003440Y033775D01*
X003440Y033616D02*
X003370Y033616D01*
X003362Y033458D02*
X003440Y033458D01*
X003499Y033299D02*
X003299Y033299D01*
X003115Y033141D02*
X003636Y033141D01*
X004224Y033141D02*
X004636Y033141D01*
X004652Y033125D02*
X004833Y033050D01*
X005027Y033050D01*
X005208Y033125D01*
X005345Y033262D01*
X005420Y033443D01*
X005420Y034157D01*
X005345Y034338D01*
X005208Y034475D01*
X005027Y034550D01*
X004833Y034550D01*
X004652Y034475D01*
X004515Y034338D01*
X004440Y034157D01*
X004440Y033443D01*
X004515Y033262D01*
X004652Y033125D01*
X004499Y033299D02*
X004361Y033299D01*
X004420Y033458D02*
X004440Y033458D01*
X004440Y033616D02*
X004420Y033616D01*
X004420Y033775D02*
X004440Y033775D01*
X004440Y033933D02*
X004420Y033933D01*
X004420Y034092D02*
X004440Y034092D01*
X004478Y034250D02*
X004382Y034250D01*
X004274Y034409D02*
X004586Y034409D01*
X005274Y034409D02*
X005586Y034409D01*
X005652Y034475D02*
X005515Y034338D01*
X005440Y034157D01*
X005440Y033443D01*
X005515Y033262D01*
X005652Y033125D01*
X005833Y033050D01*
X006027Y033050D01*
X006208Y033125D01*
X006345Y033262D01*
X006420Y033443D01*
X006420Y034157D01*
X006345Y034338D01*
X006208Y034475D01*
X006027Y034550D01*
X005833Y034550D01*
X005652Y034475D01*
X005478Y034250D02*
X005382Y034250D01*
X005420Y034092D02*
X005440Y034092D01*
X005440Y033933D02*
X005420Y033933D01*
X005420Y033775D02*
X005440Y033775D01*
X005440Y033616D02*
X005420Y033616D01*
X005420Y033458D02*
X005440Y033458D01*
X005499Y033299D02*
X005361Y033299D01*
X005224Y033141D02*
X005636Y033141D01*
X006224Y033141D02*
X006636Y033141D01*
X006652Y033125D02*
X006515Y033262D01*
X006440Y033443D01*
X006440Y034157D01*
X006515Y034338D01*
X006652Y034475D01*
X006833Y034550D01*
X007027Y034550D01*
X007208Y034475D01*
X007345Y034338D01*
X007420Y034157D01*
X007420Y033443D01*
X007345Y033262D01*
X007208Y033125D01*
X007027Y033050D01*
X006833Y033050D01*
X006652Y033125D01*
X006499Y033299D02*
X006361Y033299D01*
X006420Y033458D02*
X006440Y033458D01*
X006440Y033616D02*
X006420Y033616D01*
X006420Y033775D02*
X006440Y033775D01*
X006440Y033933D02*
X006420Y033933D01*
X006420Y034092D02*
X006440Y034092D01*
X006478Y034250D02*
X006382Y034250D01*
X006274Y034409D02*
X006586Y034409D01*
X007274Y034409D02*
X007586Y034409D01*
X007652Y034475D02*
X007515Y034338D01*
X007440Y034157D01*
X007440Y033443D01*
X007515Y033262D01*
X007652Y033125D01*
X007833Y033050D01*
X008027Y033050D01*
X008208Y033125D01*
X008345Y033262D01*
X008420Y033443D01*
X008420Y034157D01*
X008345Y034338D01*
X008208Y034475D01*
X008027Y034550D01*
X007833Y034550D01*
X007652Y034475D01*
X007478Y034250D02*
X007382Y034250D01*
X007420Y034092D02*
X007440Y034092D01*
X007440Y033933D02*
X007420Y033933D01*
X007420Y033775D02*
X007440Y033775D01*
X007440Y033616D02*
X007420Y033616D01*
X007420Y033458D02*
X007440Y033458D01*
X007499Y033299D02*
X007361Y033299D01*
X007224Y033141D02*
X007636Y033141D01*
X008224Y033141D02*
X008636Y033141D01*
X008652Y033125D02*
X008833Y033050D01*
X009027Y033050D01*
X009208Y033125D01*
X009345Y033262D01*
X009420Y033443D01*
X009420Y034157D01*
X009345Y034338D01*
X009208Y034475D01*
X009027Y034550D01*
X008833Y034550D01*
X008652Y034475D01*
X008515Y034338D01*
X008440Y034157D01*
X008440Y033443D01*
X008515Y033262D01*
X008652Y033125D01*
X008499Y033299D02*
X008361Y033299D01*
X008420Y033458D02*
X008440Y033458D01*
X008440Y033616D02*
X008420Y033616D01*
X008420Y033775D02*
X008440Y033775D01*
X008440Y033933D02*
X008420Y033933D01*
X008420Y034092D02*
X008440Y034092D01*
X008478Y034250D02*
X008382Y034250D01*
X008274Y034409D02*
X008586Y034409D01*
X009274Y034409D02*
X009586Y034409D01*
X009652Y034475D02*
X009515Y034338D01*
X009440Y034157D01*
X009440Y033443D01*
X009515Y033262D01*
X009652Y033125D01*
X009833Y033050D01*
X010027Y033050D01*
X010208Y033125D01*
X010345Y033262D01*
X010420Y033443D01*
X010420Y034157D01*
X010345Y034338D01*
X010208Y034475D01*
X010027Y034550D01*
X009833Y034550D01*
X009652Y034475D01*
X009478Y034250D02*
X009382Y034250D01*
X009420Y034092D02*
X009440Y034092D01*
X009440Y033933D02*
X009420Y033933D01*
X009420Y033775D02*
X009440Y033775D01*
X009440Y033616D02*
X009420Y033616D01*
X009420Y033458D02*
X009440Y033458D01*
X009499Y033299D02*
X009361Y033299D01*
X009224Y033141D02*
X009636Y033141D01*
X010224Y033141D02*
X010636Y033141D01*
X010652Y033125D02*
X010833Y033050D01*
X011027Y033050D01*
X011208Y033125D01*
X011345Y033262D01*
X011420Y033443D01*
X011420Y034157D01*
X011345Y034338D01*
X011208Y034475D01*
X011027Y034550D01*
X010833Y034550D01*
X010652Y034475D01*
X010515Y034338D01*
X010440Y034157D01*
X010440Y033443D01*
X010515Y033262D01*
X010652Y033125D01*
X010499Y033299D02*
X010361Y033299D01*
X010420Y033458D02*
X010440Y033458D01*
X010440Y033616D02*
X010420Y033616D01*
X010420Y033775D02*
X010440Y033775D01*
X010440Y033933D02*
X010420Y033933D01*
X010420Y034092D02*
X010440Y034092D01*
X010478Y034250D02*
X010382Y034250D01*
X010274Y034409D02*
X010586Y034409D01*
X011274Y034409D02*
X011586Y034409D01*
X011652Y034475D02*
X011515Y034338D01*
X011440Y034157D01*
X011440Y033443D01*
X011515Y033262D01*
X011652Y033125D01*
X011833Y033050D01*
X012027Y033050D01*
X012208Y033125D01*
X012345Y033262D01*
X012420Y033443D01*
X012420Y034157D01*
X012345Y034338D01*
X012208Y034475D01*
X012027Y034550D01*
X011833Y034550D01*
X011652Y034475D01*
X011478Y034250D02*
X011382Y034250D01*
X011420Y034092D02*
X011440Y034092D01*
X011440Y033933D02*
X011420Y033933D01*
X011420Y033775D02*
X011440Y033775D01*
X011440Y033616D02*
X011420Y033616D01*
X011420Y033458D02*
X011440Y033458D01*
X011499Y033299D02*
X011361Y033299D01*
X011224Y033141D02*
X011636Y033141D01*
X012224Y033141D02*
X012636Y033141D01*
X012652Y033125D02*
X012833Y033050D01*
X013027Y033050D01*
X013208Y033125D01*
X013345Y033262D01*
X013420Y033443D01*
X013420Y034157D01*
X013345Y034338D01*
X013208Y034475D01*
X013027Y034550D01*
X012833Y034550D01*
X012652Y034475D01*
X012515Y034338D01*
X012440Y034157D01*
X012440Y033443D01*
X012515Y033262D01*
X012652Y033125D01*
X012499Y033299D02*
X012361Y033299D01*
X012420Y033458D02*
X012440Y033458D01*
X012440Y033616D02*
X012420Y033616D01*
X012420Y033775D02*
X012440Y033775D01*
X012440Y033933D02*
X012420Y033933D01*
X012420Y034092D02*
X012440Y034092D01*
X012478Y034250D02*
X012382Y034250D01*
X012274Y034409D02*
X012586Y034409D01*
X013274Y034409D02*
X013586Y034409D01*
X013652Y034475D02*
X013515Y034338D01*
X013440Y034157D01*
X013440Y033443D01*
X013515Y033262D01*
X013652Y033125D01*
X013833Y033050D01*
X014027Y033050D01*
X014208Y033125D01*
X014345Y033262D01*
X014420Y033443D01*
X014420Y034157D01*
X014345Y034338D01*
X014208Y034475D01*
X014027Y034550D01*
X013833Y034550D01*
X013652Y034475D01*
X013478Y034250D02*
X013382Y034250D01*
X013420Y034092D02*
X013440Y034092D01*
X013440Y033933D02*
X013420Y033933D01*
X013420Y033775D02*
X013440Y033775D01*
X013440Y033616D02*
X013420Y033616D01*
X013420Y033458D02*
X013440Y033458D01*
X013499Y033299D02*
X013361Y033299D01*
X013224Y033141D02*
X013636Y033141D01*
X014224Y033141D02*
X014636Y033141D01*
X014652Y033125D02*
X014833Y033050D01*
X015027Y033050D01*
X015208Y033125D01*
X015345Y033262D01*
X015420Y033443D01*
X015420Y034157D01*
X015345Y034338D01*
X015208Y034475D01*
X015027Y034550D01*
X014833Y034550D01*
X014652Y034475D01*
X014515Y034338D01*
X014440Y034157D01*
X014440Y033443D01*
X014515Y033262D01*
X014652Y033125D01*
X014499Y033299D02*
X014361Y033299D01*
X014420Y033458D02*
X014440Y033458D01*
X014440Y033616D02*
X014420Y033616D01*
X014420Y033775D02*
X014440Y033775D01*
X014440Y033933D02*
X014420Y033933D01*
X014420Y034092D02*
X014440Y034092D01*
X014478Y034250D02*
X014382Y034250D01*
X014274Y034409D02*
X014586Y034409D01*
X015274Y034409D02*
X015586Y034409D01*
X015478Y034250D02*
X015382Y034250D01*
X015420Y034092D02*
X015440Y034092D01*
X015440Y033933D02*
X015420Y033933D01*
X015420Y033775D02*
X015440Y033775D01*
X015440Y033616D02*
X015420Y033616D01*
X015420Y033458D02*
X015440Y033458D01*
X015499Y033299D02*
X015361Y033299D01*
X015224Y033141D02*
X015636Y033141D01*
X018200Y032982D02*
X000660Y032982D01*
X000660Y032824D02*
X018200Y032824D01*
X018200Y032665D02*
X000660Y032665D01*
X000660Y032507D02*
X018200Y032507D01*
X018200Y032348D02*
X000660Y032348D01*
X000660Y032190D02*
X018200Y032190D01*
X018200Y032031D02*
X000660Y032031D01*
X000660Y031873D02*
X018200Y031873D01*
X018200Y031714D02*
X000660Y031714D01*
X000660Y031556D02*
X018200Y031556D01*
X018200Y031397D02*
X000660Y031397D01*
X000660Y031239D02*
X018200Y031239D01*
X018200Y031080D02*
X000660Y031080D01*
X000660Y030922D02*
X018200Y030922D01*
X018200Y030763D02*
X000660Y030763D01*
X000660Y030605D02*
X018200Y030605D01*
X018200Y030446D02*
X000660Y030446D01*
X000660Y030288D02*
X018200Y030288D01*
X010853Y017449D02*
X010757Y017449D01*
X010757Y017291D02*
X010853Y017291D01*
X010853Y017132D02*
X010757Y017132D01*
X007930Y016340D02*
X007930Y016340D01*
X007930Y016181D02*
X007930Y016181D01*
X007930Y016023D02*
X007930Y016023D01*
X007930Y015864D02*
X007930Y015864D01*
X007930Y015706D02*
X007930Y015706D01*
X007930Y015547D02*
X007930Y015547D01*
X007930Y015389D02*
X007930Y015389D01*
X007430Y015389D02*
X007430Y015389D01*
X007430Y015260D02*
X007430Y015840D01*
X007430Y015840D01*
X007430Y015260D01*
X007430Y015547D02*
X007430Y015547D01*
X007430Y015706D02*
X007430Y015706D01*
X007430Y015864D02*
X007430Y015864D01*
X007430Y016023D02*
X007430Y016023D01*
X007430Y016181D02*
X007430Y016181D01*
X007430Y016340D02*
X007430Y016340D01*
X006685Y015230D02*
X006675Y015230D01*
X006624Y015072D02*
X006236Y015072D01*
X006185Y015230D02*
X005720Y015230D01*
X005930Y015260D02*
X005930Y015840D01*
X005930Y015840D01*
X005930Y016420D01*
X006084Y016420D01*
X006129Y016408D01*
X006138Y016403D01*
X006205Y016470D01*
X006640Y016470D01*
X006640Y016680D01*
X006560Y016760D01*
X005800Y016760D01*
X005720Y016680D01*
X005720Y016402D01*
X005731Y016408D01*
X005776Y016420D01*
X005930Y016420D01*
X005930Y015840D01*
X005930Y015260D01*
X005930Y015389D02*
X005930Y015389D01*
X005930Y015547D02*
X005930Y015547D01*
X005930Y015706D02*
X005930Y015706D01*
X005930Y015840D02*
X005930Y015840D01*
X005930Y015864D02*
X005930Y015864D01*
X005930Y016023D02*
X005930Y016023D01*
X005930Y016181D02*
X005930Y016181D01*
X005930Y016340D02*
X005930Y016340D01*
X005720Y016498D02*
X006640Y016498D01*
X006640Y016657D02*
X005720Y016657D01*
X006366Y014913D02*
X006494Y014913D01*
X006440Y014755D02*
X006420Y014755D01*
X006420Y014596D02*
X006440Y014596D01*
X006440Y014438D02*
X006420Y014438D01*
X006420Y014279D02*
X006440Y014279D01*
X006440Y014121D02*
X006420Y014121D01*
X006376Y013962D02*
X006484Y013962D01*
X006599Y013804D02*
X006261Y013804D01*
X006290Y013011D02*
X006780Y013011D01*
X006833Y012219D02*
X006290Y012219D01*
X006210Y012060D02*
X006830Y012060D01*
X007257Y011743D02*
X007353Y011743D01*
X007353Y011878D02*
X007353Y011490D01*
X007624Y011490D01*
X007670Y011502D01*
X007711Y011526D01*
X007744Y011560D01*
X007768Y011601D01*
X007780Y011646D01*
X007780Y011878D01*
X007353Y011878D01*
X007353Y011585D02*
X007257Y011585D01*
X007759Y011585D02*
X017515Y011585D01*
X017515Y011743D02*
X007780Y011743D01*
X007344Y010000D02*
X006290Y010000D01*
X006290Y009841D02*
X007186Y009841D01*
X007027Y009175D02*
X006833Y009175D01*
X006652Y009100D01*
X006515Y008963D01*
X006440Y008782D01*
X006440Y008068D01*
X006515Y007887D01*
X006652Y007750D01*
X006833Y007675D01*
X007027Y007675D01*
X007208Y007750D01*
X007345Y007887D01*
X007420Y008068D01*
X007420Y008782D01*
X007345Y008963D01*
X007208Y009100D01*
X007027Y009175D01*
X007259Y009049D02*
X007601Y009049D01*
X007485Y008890D02*
X007375Y008890D01*
X007420Y008732D02*
X007440Y008732D01*
X007440Y008573D02*
X007420Y008573D01*
X007420Y008415D02*
X007440Y008415D01*
X007440Y008256D02*
X007420Y008256D01*
X007420Y008098D02*
X007440Y008098D01*
X007493Y007939D02*
X007367Y007939D01*
X007238Y007781D02*
X007622Y007781D01*
X007737Y006037D02*
X008123Y006037D01*
X008046Y005879D02*
X007814Y005879D01*
X007920Y005720D02*
X008046Y005720D01*
X008079Y005562D02*
X008124Y005562D01*
X008201Y005403D02*
X008417Y005403D01*
X008386Y005245D02*
X008474Y005245D01*
X008920Y005720D02*
X009046Y005720D01*
X009046Y005879D02*
X008814Y005879D01*
X008737Y006037D02*
X009123Y006037D01*
X009124Y005562D02*
X009079Y005562D01*
X009201Y005403D02*
X009417Y005403D01*
X009386Y005245D02*
X009474Y005245D01*
X007474Y005245D02*
X007386Y005245D01*
X007417Y005403D02*
X007201Y005403D01*
X007124Y005562D02*
X007079Y005562D01*
X007046Y005720D02*
X006920Y005720D01*
X006814Y005879D02*
X007046Y005879D01*
X007123Y006037D02*
X006737Y006037D01*
X006417Y005403D02*
X006201Y005403D01*
X006124Y005562D02*
X006079Y005562D01*
X006046Y005720D02*
X005920Y005720D01*
X005814Y005879D02*
X006046Y005879D01*
X006123Y006037D02*
X005737Y006037D01*
X005417Y005403D02*
X005201Y005403D01*
X005124Y005562D02*
X005079Y005562D01*
X005046Y005720D02*
X004920Y005720D01*
X004814Y005879D02*
X005046Y005879D01*
X005123Y006037D02*
X004737Y006037D01*
X004417Y005403D02*
X003535Y005403D01*
X003535Y005245D02*
X003567Y005245D01*
X003535Y005562D02*
X004124Y005562D01*
X004046Y005720D02*
X003535Y005720D01*
X003535Y005879D02*
X004046Y005879D01*
X004123Y006037D02*
X003535Y006037D01*
X003860Y005245D02*
X004000Y005245D01*
X004000Y005086D02*
X003860Y005086D01*
X003860Y004928D02*
X004000Y004928D01*
X004293Y005245D02*
X004474Y005245D01*
X005386Y005245D02*
X005474Y005245D01*
X006386Y005245D02*
X006474Y005245D01*
X006027Y007675D02*
X005833Y007675D01*
X005652Y007750D01*
X005515Y007887D01*
X005440Y008068D01*
X005440Y008782D01*
X005515Y008963D01*
X005652Y009100D01*
X005833Y009175D01*
X006027Y009175D01*
X006208Y009100D01*
X006345Y008963D01*
X006420Y008782D01*
X006420Y008068D01*
X006345Y007887D01*
X006208Y007750D01*
X006027Y007675D01*
X006238Y007781D02*
X006622Y007781D01*
X006493Y007939D02*
X006367Y007939D01*
X006420Y008098D02*
X006440Y008098D01*
X006440Y008256D02*
X006420Y008256D01*
X006420Y008415D02*
X006440Y008415D01*
X006440Y008573D02*
X006420Y008573D01*
X006420Y008732D02*
X006440Y008732D01*
X006485Y008890D02*
X006375Y008890D01*
X006259Y009049D02*
X006601Y009049D01*
X005601Y009049D02*
X005259Y009049D01*
X005208Y009100D02*
X005027Y009175D01*
X004833Y009175D01*
X004652Y009100D01*
X004515Y008963D01*
X004440Y008782D01*
X004440Y008068D01*
X004515Y007887D01*
X004652Y007750D01*
X004833Y007675D01*
X005027Y007675D01*
X005208Y007750D01*
X005345Y007887D01*
X005420Y008068D01*
X005420Y008782D01*
X005345Y008963D01*
X005208Y009100D01*
X005375Y008890D02*
X005485Y008890D01*
X005440Y008732D02*
X005420Y008732D01*
X005420Y008573D02*
X005440Y008573D01*
X005440Y008415D02*
X005420Y008415D01*
X005420Y008256D02*
X005440Y008256D01*
X005440Y008098D02*
X005420Y008098D01*
X005367Y007939D02*
X005493Y007939D01*
X005622Y007781D02*
X005238Y007781D01*
X004622Y007781D02*
X004238Y007781D01*
X004367Y007939D02*
X004493Y007939D01*
X004440Y008098D02*
X004420Y008098D01*
X004420Y008256D02*
X004440Y008256D01*
X004440Y008415D02*
X004420Y008415D01*
X004420Y008573D02*
X004440Y008573D01*
X004440Y008732D02*
X004420Y008732D01*
X004375Y008890D02*
X004485Y008890D01*
X004601Y009049D02*
X004259Y009049D01*
X005720Y010951D02*
X014554Y010951D01*
X014545Y011109D02*
X005720Y011109D01*
X005706Y011268D02*
X014603Y011268D01*
X014644Y010792D02*
X006208Y010792D01*
X006290Y010634D02*
X014479Y010634D01*
X014485Y008890D02*
X014375Y008890D01*
X014420Y008732D02*
X014440Y008732D01*
X014440Y008573D02*
X014420Y008573D01*
X014420Y008415D02*
X014440Y008415D01*
X014440Y008256D02*
X014420Y008256D01*
X014420Y008098D02*
X014440Y008098D01*
X014493Y007939D02*
X014367Y007939D01*
X014238Y007781D02*
X014622Y007781D01*
X014393Y007622D02*
X016708Y007622D01*
X017152Y007622D02*
X017515Y007622D01*
X017515Y007464D02*
X017279Y007464D01*
X017315Y007305D02*
X017515Y007305D01*
X017515Y007147D02*
X017283Y007147D01*
X017162Y006988D02*
X017515Y006988D01*
X017515Y006830D02*
X014186Y006830D01*
X014344Y006671D02*
X015497Y006671D01*
X015373Y006513D02*
X014503Y006513D01*
X014661Y006354D02*
X015325Y006354D01*
X015325Y006196D02*
X014820Y006196D01*
X014978Y006037D02*
X015325Y006037D01*
X015325Y005879D02*
X015137Y005879D01*
X015220Y005720D02*
X015325Y005720D01*
X015325Y005562D02*
X015220Y005562D01*
X015220Y005403D02*
X015325Y005403D01*
X014640Y005403D02*
X014201Y005403D01*
X014079Y005562D02*
X014633Y005562D01*
X014475Y005720D02*
X013920Y005720D01*
X014386Y005245D02*
X014474Y005245D01*
X013890Y007305D02*
X013720Y007305D01*
X013720Y007464D02*
X013731Y007464D01*
X013123Y006037D02*
X012737Y006037D01*
X012027Y007675D02*
X012208Y007750D01*
X012345Y007887D01*
X012420Y008068D01*
X012420Y008782D01*
X012345Y008963D01*
X012208Y009100D01*
X012027Y009175D01*
X011833Y009175D01*
X011652Y009100D01*
X011515Y008963D01*
X011440Y008782D01*
X011440Y008068D01*
X011515Y007887D01*
X011652Y007750D01*
X011833Y007675D01*
X012027Y007675D01*
X012238Y007781D02*
X012622Y007781D01*
X012493Y007939D02*
X012367Y007939D01*
X012420Y008098D02*
X012440Y008098D01*
X012440Y008256D02*
X012420Y008256D01*
X012420Y008415D02*
X012440Y008415D01*
X012440Y008573D02*
X012420Y008573D01*
X012420Y008732D02*
X012440Y008732D01*
X012485Y008890D02*
X012375Y008890D01*
X012259Y009049D02*
X012601Y009049D01*
X011601Y009049D02*
X011259Y009049D01*
X011375Y008890D02*
X011485Y008890D01*
X011440Y008732D02*
X011420Y008732D01*
X011420Y008573D02*
X011440Y008573D01*
X011440Y008415D02*
X011420Y008415D01*
X011420Y008256D02*
X011440Y008256D01*
X011440Y008098D02*
X011420Y008098D01*
X011367Y007939D02*
X011493Y007939D01*
X011622Y007781D02*
X011238Y007781D01*
X015238Y007781D02*
X015622Y007781D01*
X015493Y007939D02*
X015367Y007939D01*
X015420Y008098D02*
X015440Y008098D01*
X015440Y008256D02*
X015420Y008256D01*
X015420Y008415D02*
X015440Y008415D01*
X015440Y008573D02*
X015420Y008573D01*
X015420Y008732D02*
X015440Y008732D01*
X015485Y008890D02*
X015375Y008890D01*
X015259Y009049D02*
X015601Y009049D01*
X016259Y009049D02*
X017515Y009049D01*
X017515Y009207D02*
X016337Y009207D01*
X016455Y009366D02*
X017515Y009366D01*
X017515Y009524D02*
X016455Y009524D01*
X016455Y009683D02*
X017515Y009683D01*
X017515Y009841D02*
X016455Y009841D01*
X016455Y010000D02*
X017515Y010000D01*
X017515Y010158D02*
X016405Y010158D01*
X016405Y010317D02*
X017515Y010317D01*
X017515Y010475D02*
X016405Y010475D01*
X016405Y010634D02*
X017515Y010634D01*
X017515Y010792D02*
X016368Y010792D01*
X015978Y010792D02*
X015882Y010792D01*
X015882Y010634D02*
X015978Y010634D01*
X015978Y010475D02*
X015882Y010475D01*
X016375Y008890D02*
X017515Y008890D01*
X017515Y008732D02*
X016420Y008732D01*
X016420Y008573D02*
X017515Y008573D01*
X017515Y008415D02*
X016420Y008415D01*
X016420Y008256D02*
X017515Y008256D01*
X017515Y008098D02*
X016420Y008098D01*
X016367Y007939D02*
X017515Y007939D01*
X017515Y007781D02*
X016238Y007781D01*
X017136Y012219D02*
X017476Y012219D01*
X017318Y012377D02*
X017275Y012377D01*
X005595Y025057D02*
X005265Y025057D01*
X005208Y025000D02*
X005027Y024925D01*
X004833Y024925D01*
X004652Y025000D01*
X004515Y025137D01*
X004440Y025318D01*
X004440Y026032D01*
X004515Y026213D01*
X004652Y026350D01*
X004833Y026425D01*
X005027Y026425D01*
X005208Y026350D01*
X005345Y026213D01*
X005420Y026032D01*
X005420Y025318D01*
X005345Y025137D01*
X005208Y025000D01*
X005378Y025216D02*
X005482Y025216D01*
X005440Y025374D02*
X005420Y025374D01*
X005420Y025533D02*
X005440Y025533D01*
X005440Y025691D02*
X005420Y025691D01*
X005420Y025850D02*
X005440Y025850D01*
X005440Y026008D02*
X005420Y026008D01*
X005364Y026167D02*
X005496Y026167D01*
X005627Y026325D02*
X005233Y026325D01*
X005191Y027118D02*
X005669Y027118D01*
X005509Y027276D02*
X005351Y027276D01*
X005417Y027435D02*
X005443Y027435D01*
X005440Y027593D02*
X005420Y027593D01*
X005420Y027752D02*
X005440Y027752D01*
X005440Y027910D02*
X005420Y027910D01*
X005420Y028069D02*
X005440Y028069D01*
X005469Y028227D02*
X005391Y028227D01*
X005297Y028386D02*
X005563Y028386D01*
X004563Y028386D02*
X004297Y028386D01*
X004391Y028227D02*
X004469Y028227D01*
X004440Y028069D02*
X004420Y028069D01*
X004420Y027910D02*
X004440Y027910D01*
X004440Y027752D02*
X004420Y027752D01*
X004420Y027593D02*
X004440Y027593D01*
X004443Y027435D02*
X004417Y027435D01*
X004351Y027276D02*
X004509Y027276D01*
X004669Y027118D02*
X004191Y027118D01*
X004233Y026325D02*
X004627Y026325D01*
X004496Y026167D02*
X004364Y026167D01*
X004420Y026008D02*
X004440Y026008D01*
X004440Y025850D02*
X004420Y025850D01*
X004420Y025691D02*
X004440Y025691D01*
X004440Y025533D02*
X004420Y025533D01*
X004420Y025374D02*
X004440Y025374D01*
X004482Y025216D02*
X004378Y025216D01*
X004265Y025057D02*
X004595Y025057D01*
X002669Y027118D02*
X000660Y027118D01*
X000660Y027276D02*
X002509Y027276D01*
X002443Y027435D02*
X000660Y027435D01*
X000660Y027593D02*
X002440Y027593D01*
X002440Y027752D02*
X000660Y027752D01*
X000660Y027910D02*
X002440Y027910D01*
X002440Y028069D02*
X000660Y028069D01*
X000660Y028227D02*
X002469Y028227D01*
X002563Y028386D02*
X000660Y028386D01*
X000660Y028544D02*
X002818Y028544D01*
X000829Y011743D02*
X000660Y011743D01*
X000660Y011585D02*
X000704Y011585D01*
X000670Y011426D02*
X000660Y011426D01*
X000660Y011268D02*
X000704Y011268D01*
X000660Y011109D02*
X000827Y011109D01*
X000765Y010951D02*
X000660Y010951D01*
X000660Y010792D02*
X000765Y010792D01*
X000765Y010634D02*
X000660Y010634D01*
X000660Y010475D02*
X000765Y010475D01*
X000765Y010317D02*
X000660Y010317D01*
X000660Y010158D02*
X000765Y010158D01*
X000765Y010000D02*
X000660Y010000D01*
X000660Y009841D02*
X000765Y009841D01*
X000765Y009683D02*
X000660Y009683D01*
X000660Y009524D02*
X000765Y009524D01*
X000765Y009366D02*
X000660Y009366D01*
X000660Y009207D02*
X000765Y009207D01*
X000765Y009049D02*
X000660Y009049D01*
X000660Y008890D02*
X000765Y008890D01*
X000765Y008732D02*
X000660Y008732D01*
X000660Y008573D02*
X000765Y008573D01*
X000765Y008415D02*
X000660Y008415D01*
X000660Y008256D02*
X000765Y008256D01*
X000765Y008098D02*
X000660Y008098D01*
X000660Y007939D02*
X000765Y007939D01*
X000765Y007781D02*
X000660Y007781D01*
X000660Y007622D02*
X000765Y007622D01*
X000765Y007464D02*
X000660Y007464D01*
X000660Y007305D02*
X000765Y007305D01*
X000765Y007147D02*
X000660Y007147D01*
X000660Y006988D02*
X000765Y006988D01*
X000765Y006830D02*
X000660Y006830D01*
X000660Y006671D02*
X000765Y006671D01*
X000765Y006513D02*
X000660Y006513D01*
X000660Y006354D02*
X000765Y006354D01*
X000765Y006196D02*
X000660Y006196D01*
X000660Y006037D02*
X000765Y006037D01*
X000765Y005879D02*
X000660Y005879D01*
X000660Y005720D02*
X000765Y005720D01*
X000765Y005562D02*
X000660Y005562D01*
X000660Y005403D02*
X000765Y005403D01*
X001345Y005403D02*
X001950Y005403D01*
X001950Y005562D02*
X001345Y005562D01*
X001345Y005720D02*
X001950Y005720D01*
X001950Y005879D02*
X001345Y005879D01*
X001345Y006037D02*
X001950Y006037D01*
X001950Y006196D02*
X001345Y006196D01*
X001345Y006354D02*
X001950Y006354D01*
X001998Y006513D02*
X001345Y006513D01*
X001345Y006671D02*
X002122Y006671D01*
X001474Y005245D02*
X001386Y005245D01*
D15*
X002055Y008425D03*
X001055Y011425D03*
X004430Y005800D03*
X005430Y005800D03*
X006430Y005800D03*
X007430Y005800D03*
X008430Y005800D03*
X009430Y005800D03*
X009930Y007175D03*
X010430Y005800D03*
X011430Y005800D03*
X012430Y005800D03*
X013430Y005800D03*
X014430Y009550D03*
X014680Y010300D03*
X014930Y011050D03*
X016930Y012550D03*
X016930Y007300D03*
X009930Y009550D03*
X008430Y009925D03*
X009430Y017050D03*
D16*
X008680Y017050D01*
X008430Y017300D01*
X008430Y018260D01*
X007930Y018260D02*
X007930Y019675D01*
X007430Y018260D02*
X007430Y026425D01*
X007930Y026925D01*
X007930Y027800D01*
X009430Y026425D02*
X009930Y026925D01*
X009930Y027800D01*
X010805Y018299D02*
X010805Y018260D01*
X015640Y018260D01*
X015930Y018550D01*
X015930Y019675D01*
X015930Y020926D01*
X015305Y016675D02*
X016930Y015050D01*
X016930Y013175D01*
X017805Y012300D01*
X017805Y003925D01*
X017930Y003800D01*
X016930Y007300D02*
X014305Y007300D01*
X013930Y007675D01*
X013930Y008425D01*
X013430Y009300D02*
X013430Y007175D01*
X014930Y005675D01*
X014930Y003800D01*
X013930Y003800D02*
X013930Y005300D01*
X013430Y005800D01*
X012930Y005300D02*
X012430Y005800D01*
X011930Y005300D02*
X011430Y005800D01*
X011930Y005300D02*
X011930Y003800D01*
X010930Y003800D02*
X010930Y005300D01*
X010430Y005800D01*
X009930Y005300D02*
X009430Y005800D01*
X008930Y005300D02*
X008430Y005800D01*
X007930Y005300D02*
X007430Y005800D01*
X007930Y005300D02*
X007930Y003800D01*
X006930Y003800D02*
X006930Y005300D01*
X006430Y005800D01*
X005930Y005300D02*
X005430Y005800D01*
X004930Y005300D02*
X004430Y005800D01*
X004930Y005300D02*
X004930Y003800D01*
X005930Y003800D02*
X005930Y005300D01*
X007930Y008425D02*
X007930Y009300D01*
X008180Y009550D01*
X009930Y009550D01*
X009930Y008425D01*
X009930Y007175D02*
X009305Y007175D01*
X008930Y007550D01*
X008930Y008425D01*
X008430Y009925D02*
X014805Y009925D01*
X015055Y010175D01*
X015055Y010925D01*
X014930Y011050D01*
X014680Y010300D02*
X008055Y010300D01*
X007305Y009550D01*
X003555Y009550D01*
X003430Y009675D01*
X003430Y010215D01*
X003930Y010215D02*
X003930Y010925D01*
X003680Y011175D01*
X001305Y011175D01*
X001055Y010925D01*
X001055Y004800D01*
X000930Y004675D01*
X000930Y003800D01*
X004430Y010215D02*
X004930Y010215D01*
X005430Y010215D02*
X005430Y011175D01*
X005180Y011425D01*
X001055Y011425D01*
X003430Y012635D02*
X003930Y012635D01*
X004430Y012635D01*
X004930Y012635D02*
X005430Y012635D01*
X005430Y016800D01*
X005680Y017050D01*
X006680Y017050D01*
X006930Y016800D01*
X006930Y015840D01*
X007305Y012674D02*
X007141Y012635D01*
X005930Y012635D01*
X005430Y012635D01*
X005430Y010215D02*
X005930Y010215D01*
X007141Y012635D02*
X015640Y012635D01*
X015930Y012925D01*
X015930Y014425D01*
X016555Y014925D02*
X016555Y012925D01*
X016930Y012550D01*
X016555Y014925D02*
X015180Y016300D01*
X009680Y016300D01*
X009430Y016050D01*
X009430Y015840D01*
X008930Y015840D02*
X008930Y016425D01*
X009180Y016675D01*
X015305Y016675D01*
X015930Y009676D02*
X015930Y008425D01*
X014430Y009550D02*
X013680Y009550D01*
X013430Y009300D01*
X012930Y005300D02*
X012930Y003800D01*
X009930Y003800D02*
X009930Y005300D01*
X008930Y005300D02*
X008930Y003800D01*
X009430Y018260D02*
X010805Y018260D01*
X015930Y027800D02*
X015930Y029051D01*
M02*
