G75*
%MOIN*%
%OFA0B0*%
%FSLAX24Y24*%
%IPPOS*%
%LPD*%
%AMOC8*
5,1,8,0,0,1.08239X$1,22.5*
%
%ADD10R,0.0600X0.2550*%
%ADD11C,0.0520*%
%ADD12C,0.0160*%
%ADD13C,0.0310*%
%ADD14C,0.0120*%
%ADD15C,0.0240*%
D10*
X000930Y003800D03*
X001930Y003800D03*
X003930Y003800D03*
X004930Y003800D03*
X005930Y003800D03*
X006930Y003800D03*
X007930Y003800D03*
X008930Y003800D03*
X009930Y003800D03*
X010930Y003800D03*
X011930Y003800D03*
X012930Y003800D03*
X013930Y003800D03*
X014930Y003800D03*
X016930Y003800D03*
X017930Y003800D03*
D11*
X015930Y008165D02*
X015930Y008685D01*
X014930Y008685D02*
X014930Y008165D01*
X013930Y008165D02*
X013930Y008685D01*
X012930Y008685D02*
X012930Y008165D01*
X011930Y008165D02*
X011930Y008685D01*
X010930Y008685D02*
X010930Y008165D01*
X009930Y008165D02*
X009930Y008685D01*
X008930Y008685D02*
X008930Y008165D01*
X007930Y008165D02*
X007930Y008685D01*
X006930Y008685D02*
X006930Y008165D01*
X005930Y008165D02*
X005930Y008685D01*
X004930Y008685D02*
X004930Y008165D01*
X003930Y008165D02*
X003930Y008685D01*
X002930Y008685D02*
X002930Y008165D01*
X002930Y014165D02*
X002930Y014685D01*
X003930Y014685D02*
X003930Y014165D01*
X004930Y014165D02*
X004930Y014685D01*
X005930Y014685D02*
X005930Y014165D01*
X006930Y014165D02*
X006930Y014685D01*
X007930Y014685D02*
X007930Y014165D01*
X008930Y014165D02*
X008930Y014685D01*
X009930Y014685D02*
X009930Y014165D01*
X010930Y014165D02*
X010930Y014685D01*
X011930Y014685D02*
X011930Y014165D01*
X012930Y014165D02*
X012930Y014685D01*
X013930Y014685D02*
X013930Y014165D01*
X014930Y014165D02*
X014930Y014685D01*
X015930Y014685D02*
X015930Y014165D01*
X015930Y019415D02*
X015930Y019935D01*
X014930Y019935D02*
X014930Y019415D01*
X013930Y019415D02*
X013930Y019935D01*
X012930Y019935D02*
X012930Y019415D01*
X011930Y019415D02*
X011930Y019935D01*
X010930Y019935D02*
X010930Y019415D01*
X009930Y019415D02*
X009930Y019935D01*
X008930Y019935D02*
X008930Y019415D01*
X007930Y019415D02*
X007930Y019935D01*
X006930Y019935D02*
X006930Y019415D01*
X005930Y019415D02*
X005930Y019935D01*
X004930Y019935D02*
X004930Y019415D01*
X003930Y019415D02*
X003930Y019935D01*
X002930Y019935D02*
X002930Y019415D01*
X002930Y025415D02*
X002930Y025935D01*
X003930Y025935D02*
X003930Y025415D01*
X004930Y025415D02*
X004930Y025935D01*
X004930Y027540D02*
X004930Y028060D01*
X003930Y028060D02*
X003930Y027540D01*
X002930Y027540D02*
X002930Y028060D01*
X005930Y028060D02*
X005930Y027540D01*
X006930Y027540D02*
X006930Y028060D01*
X007930Y028060D02*
X007930Y027540D01*
X007930Y025935D02*
X007930Y025415D01*
X006930Y025415D02*
X006930Y025935D01*
X005930Y025935D02*
X005930Y025415D01*
X008930Y025415D02*
X008930Y025935D01*
X009930Y025935D02*
X009930Y025415D01*
X010930Y025415D02*
X010930Y025935D01*
X011930Y025935D02*
X011930Y025415D01*
X012930Y025415D02*
X012930Y025935D01*
X013930Y025935D02*
X013930Y025415D01*
X014930Y025415D02*
X014930Y025935D01*
X015930Y025935D02*
X015930Y025415D01*
X015930Y027540D02*
X015930Y028060D01*
X014930Y028060D02*
X014930Y027540D01*
X013930Y027540D02*
X013930Y028060D01*
X012930Y028060D02*
X012930Y027540D01*
X011930Y027540D02*
X011930Y028060D01*
X010930Y028060D02*
X010930Y027540D01*
X009930Y027540D02*
X009930Y028060D01*
X008930Y028060D02*
X008930Y027540D01*
X008930Y033540D02*
X008930Y034060D01*
X009930Y034060D02*
X009930Y033540D01*
X010930Y033540D02*
X010930Y034060D01*
X011930Y034060D02*
X011930Y033540D01*
X012930Y033540D02*
X012930Y034060D01*
X013930Y034060D02*
X013930Y033540D01*
X014930Y033540D02*
X014930Y034060D01*
X015930Y034060D02*
X015930Y033540D01*
X007930Y033540D02*
X007930Y034060D01*
X006930Y034060D02*
X006930Y033540D01*
X005930Y033540D02*
X005930Y034060D01*
X004930Y034060D02*
X004930Y033540D01*
X003930Y033540D02*
X003930Y034060D01*
X002930Y034060D02*
X002930Y033540D01*
D12*
X002930Y033616D02*
X002930Y033616D01*
X002930Y033458D02*
X002930Y033458D01*
X002930Y033299D02*
X002930Y033299D01*
X002930Y033141D02*
X002930Y033141D01*
X002930Y033100D02*
X002965Y033100D01*
X003033Y033111D01*
X003099Y033132D01*
X003161Y033164D01*
X003217Y033204D01*
X003266Y033253D01*
X003306Y033309D01*
X003338Y033371D01*
X003359Y033437D01*
X003370Y033505D01*
X003370Y033800D01*
X003370Y034095D01*
X003359Y034163D01*
X003338Y034229D01*
X003306Y034291D01*
X003266Y034347D01*
X003217Y034396D01*
X003161Y034436D01*
X003099Y034468D01*
X003033Y034489D01*
X002965Y034500D01*
X002930Y034500D01*
X002930Y033800D01*
X002930Y033800D01*
X003370Y033800D01*
X002930Y033800D01*
X002930Y033800D01*
X002930Y033800D01*
X002490Y033800D01*
X002490Y034095D01*
X002501Y034163D01*
X002522Y034229D01*
X002554Y034291D01*
X002594Y034347D01*
X002643Y034396D01*
X002699Y034436D01*
X002761Y034468D01*
X002827Y034489D01*
X002895Y034500D01*
X002930Y034500D01*
X002930Y033800D01*
X002930Y033100D01*
X002930Y033800D01*
X002930Y033800D01*
X002490Y033800D01*
X002490Y033505D01*
X002501Y033437D01*
X002522Y033371D01*
X002554Y033309D01*
X002594Y033253D01*
X002643Y033204D01*
X002699Y033164D01*
X002761Y033132D01*
X002827Y033111D01*
X002895Y033100D01*
X002930Y033100D01*
X003115Y033141D02*
X003636Y033141D01*
X003640Y033137D02*
X003640Y029920D01*
X003266Y029546D01*
X003184Y029464D01*
X003140Y029358D01*
X003140Y028503D01*
X003027Y028550D01*
X002833Y028550D01*
X002652Y028475D01*
X002515Y028338D01*
X002440Y028157D01*
X002440Y027443D01*
X002515Y027262D01*
X002640Y027137D01*
X002640Y026867D01*
X002684Y026761D01*
X003105Y026339D01*
X003099Y026343D01*
X003033Y026364D01*
X002965Y026375D01*
X002930Y026375D01*
X002930Y025675D01*
X002930Y025675D01*
X002930Y024975D01*
X002965Y024975D01*
X003033Y024986D01*
X003099Y025007D01*
X003140Y025028D01*
X003140Y021795D01*
X002766Y021421D01*
X002684Y021339D01*
X002640Y021233D01*
X002640Y020338D01*
X002515Y020213D01*
X002440Y020032D01*
X002440Y019318D01*
X002515Y019137D01*
X002640Y019012D01*
X002640Y017867D01*
X002684Y017761D01*
X003140Y017305D01*
X003140Y015072D01*
X003099Y015093D01*
X003033Y015114D01*
X002965Y015125D01*
X002930Y015125D01*
X002930Y014425D01*
X002930Y014425D01*
X002930Y013725D01*
X002965Y013725D01*
X003033Y013736D01*
X003099Y013757D01*
X003140Y013778D01*
X003140Y010670D01*
X002766Y010296D01*
X002684Y010214D01*
X002640Y010108D01*
X002640Y009088D01*
X002515Y008963D01*
X002440Y008782D01*
X002440Y008068D01*
X002515Y007887D01*
X002640Y007762D01*
X002640Y007492D01*
X002684Y007386D01*
X002766Y007304D01*
X003640Y006430D01*
X003640Y005305D01*
X003535Y005305D01*
X003535Y006395D01*
X003462Y006572D01*
X003327Y006707D01*
X003150Y006780D01*
X002335Y006780D01*
X002158Y006707D01*
X002023Y006572D01*
X001950Y006395D01*
X001950Y005305D01*
X001535Y005305D01*
X001430Y005200D01*
X001345Y005285D01*
X001345Y011171D01*
X001381Y011207D01*
X001440Y011348D01*
X001440Y011502D01*
X001381Y011643D01*
X001273Y011751D01*
X001132Y011810D01*
X000978Y011810D01*
X000837Y011751D01*
X000729Y011643D01*
X000670Y011502D01*
X000670Y011348D01*
X000729Y011207D01*
X000765Y011171D01*
X000765Y005305D01*
X000660Y005305D01*
X000660Y015070D01*
X001400Y015070D01*
X001577Y015143D01*
X001712Y015278D01*
X001785Y015455D01*
X001785Y015820D01*
X002025Y015820D01*
X002202Y015893D01*
X002337Y016028D01*
X002410Y016205D01*
X002410Y018145D01*
X002337Y018322D01*
X002202Y018457D01*
X002025Y018530D01*
X001785Y018530D01*
X001785Y022145D01*
X001712Y022322D01*
X001577Y022457D01*
X001400Y022530D01*
X000660Y022530D01*
X000660Y034570D01*
X018200Y034570D01*
X018200Y022530D01*
X017460Y022530D01*
X017283Y022457D01*
X017148Y022322D01*
X017075Y022145D01*
X017075Y018530D01*
X016835Y018530D01*
X016658Y018457D01*
X016523Y018322D01*
X016450Y018145D01*
X016450Y016205D01*
X016523Y016028D01*
X016658Y015893D01*
X016835Y015820D01*
X017075Y015820D01*
X017075Y015455D01*
X017148Y015278D01*
X017283Y015143D01*
X017460Y015070D01*
X018200Y015070D01*
X018200Y005305D01*
X018095Y005305D01*
X018095Y012358D01*
X018051Y012464D01*
X017969Y012546D01*
X017719Y012796D01*
X017613Y012840D01*
X017184Y012840D01*
X017148Y012876D01*
X017007Y012935D01*
X016853Y012935D01*
X016712Y012876D01*
X016604Y012768D01*
X016545Y012627D01*
X016545Y012473D01*
X016604Y012332D01*
X016712Y012224D01*
X016853Y012165D01*
X017007Y012165D01*
X017148Y012224D01*
X017184Y012260D01*
X017435Y012260D01*
X017515Y012180D01*
X017515Y005285D01*
X017430Y005200D01*
X017325Y005305D01*
X017220Y005305D01*
X017220Y007046D01*
X017256Y007082D01*
X017315Y007223D01*
X017315Y007377D01*
X017256Y007518D01*
X017148Y007626D01*
X017007Y007685D01*
X016853Y007685D01*
X016712Y007626D01*
X016604Y007518D01*
X016545Y007377D01*
X016545Y007223D01*
X016604Y007082D01*
X016640Y007046D01*
X016640Y006733D01*
X016525Y006780D01*
X015710Y006780D01*
X015533Y006707D01*
X015398Y006572D01*
X015325Y006395D01*
X015325Y005228D01*
X015299Y005243D01*
X015254Y005255D01*
X015000Y005255D01*
X015000Y004800D01*
X014860Y004800D01*
X014860Y005255D01*
X014606Y005255D01*
X014561Y005243D01*
X014519Y005219D01*
X014486Y005186D01*
X014462Y005144D01*
X014460Y005136D01*
X014460Y005170D01*
X014325Y005305D01*
X014280Y005305D01*
X014280Y005530D01*
X016128Y007378D01*
X016128Y007378D01*
X016227Y007477D01*
X016280Y007605D01*
X016280Y007822D01*
X016345Y007887D01*
X016420Y008068D01*
X016420Y008782D01*
X016345Y008963D01*
X016280Y009028D01*
X016280Y013822D01*
X016345Y013887D01*
X016420Y014068D01*
X016420Y014782D01*
X016345Y014963D01*
X016280Y015028D01*
X016280Y019072D01*
X016345Y019137D01*
X016420Y019318D01*
X016420Y020032D01*
X016345Y020213D01*
X016280Y020278D01*
X016280Y025072D01*
X016345Y025137D01*
X016420Y025318D01*
X016420Y026032D01*
X016345Y026213D01*
X016280Y026278D01*
X016280Y027197D01*
X016345Y027262D01*
X016420Y027443D01*
X016420Y028157D01*
X016345Y028338D01*
X016280Y028403D01*
X016280Y033197D01*
X016345Y033262D01*
X016420Y033443D01*
X016420Y034157D01*
X016345Y034338D01*
X016208Y034475D01*
X016027Y034550D01*
X015833Y034550D01*
X015652Y034475D01*
X015515Y034338D01*
X015440Y034157D01*
X015440Y033443D01*
X015515Y033262D01*
X015580Y033197D01*
X015580Y029560D01*
X015220Y029920D01*
X015220Y033137D01*
X015345Y033262D01*
X015420Y033443D01*
X015420Y034157D01*
X015345Y034338D01*
X015208Y034475D01*
X015027Y034550D01*
X014833Y034550D01*
X014652Y034475D01*
X014515Y034338D01*
X014440Y034157D01*
X014440Y033443D01*
X014515Y033262D01*
X014640Y033137D01*
X014640Y029742D01*
X014684Y029636D01*
X014766Y029554D01*
X015140Y029180D01*
X015140Y028503D01*
X015027Y028550D01*
X014833Y028550D01*
X014720Y028503D01*
X014720Y029358D01*
X014676Y029464D01*
X014220Y029920D01*
X014220Y033137D01*
X014345Y033262D01*
X014420Y033443D01*
X014420Y034157D01*
X014345Y034338D01*
X014208Y034475D01*
X014027Y034550D01*
X013833Y034550D01*
X013652Y034475D01*
X013515Y034338D01*
X013440Y034157D01*
X013440Y033443D01*
X013515Y033262D01*
X013640Y033137D01*
X013640Y029742D01*
X013684Y029636D01*
X014140Y029180D01*
X014140Y028503D01*
X014027Y028550D01*
X013833Y028550D01*
X013720Y028503D01*
X013720Y029358D01*
X013676Y029464D01*
X013220Y029920D01*
X013220Y033137D01*
X013345Y033262D01*
X013420Y033443D01*
X013420Y034157D01*
X013345Y034338D01*
X013208Y034475D01*
X013027Y034550D01*
X012833Y034550D01*
X012652Y034475D01*
X012515Y034338D01*
X012440Y034157D01*
X012440Y033443D01*
X012515Y033262D01*
X012640Y033137D01*
X012640Y029742D01*
X012684Y029636D01*
X012766Y029554D01*
X013140Y029180D01*
X013140Y028503D01*
X013027Y028550D01*
X012833Y028550D01*
X012720Y028503D01*
X012720Y029358D01*
X012676Y029464D01*
X012220Y029920D01*
X012220Y033137D01*
X012345Y033262D01*
X012420Y033443D01*
X012420Y034157D01*
X012345Y034338D01*
X012208Y034475D01*
X012027Y034550D01*
X011833Y034550D01*
X011652Y034475D01*
X011515Y034338D01*
X011440Y034157D01*
X011440Y033443D01*
X011515Y033262D01*
X011640Y033137D01*
X011640Y029742D01*
X011684Y029636D01*
X011766Y029554D01*
X012140Y029180D01*
X012140Y028503D01*
X012027Y028550D01*
X011833Y028550D01*
X011720Y028503D01*
X011720Y029358D01*
X011676Y029464D01*
X011220Y029920D01*
X011220Y033137D01*
X011345Y033262D01*
X011420Y033443D01*
X011420Y034157D01*
X011345Y034338D01*
X011208Y034475D01*
X011027Y034550D01*
X010833Y034550D01*
X010652Y034475D01*
X010515Y034338D01*
X010440Y034157D01*
X010440Y033443D01*
X010515Y033262D01*
X010640Y033137D01*
X010640Y029742D01*
X010684Y029636D01*
X010766Y029554D01*
X011140Y029180D01*
X011140Y028503D01*
X011027Y028550D01*
X010833Y028550D01*
X010720Y028503D01*
X010720Y029358D01*
X010676Y029464D01*
X010220Y029920D01*
X010220Y033137D01*
X010345Y033262D01*
X010420Y033443D01*
X010420Y034157D01*
X010345Y034338D01*
X010208Y034475D01*
X010027Y034550D01*
X009833Y034550D01*
X009652Y034475D01*
X009515Y034338D01*
X009440Y034157D01*
X009440Y033443D01*
X009515Y033262D01*
X009640Y033137D01*
X009640Y029742D01*
X009684Y029636D01*
X009766Y029554D01*
X010140Y029180D01*
X010140Y028447D01*
X010099Y028468D01*
X010033Y028489D01*
X009965Y028500D01*
X009930Y028500D01*
X009930Y027800D01*
X009930Y027800D01*
X009930Y027100D01*
X009965Y027100D01*
X010033Y027111D01*
X010099Y027132D01*
X010140Y027153D01*
X010140Y027045D01*
X009684Y026589D01*
X009640Y026483D01*
X009640Y026338D01*
X009515Y026213D01*
X009440Y026032D01*
X009440Y025318D01*
X009515Y025137D01*
X009640Y025012D01*
X009640Y021617D01*
X009684Y021511D01*
X009766Y021429D01*
X010140Y021055D01*
X010140Y020322D01*
X010099Y020343D01*
X010033Y020364D01*
X009965Y020375D01*
X009930Y020375D01*
X009930Y019675D01*
X009930Y019675D01*
X009930Y020375D01*
X009895Y020375D01*
X009827Y020364D01*
X009761Y020343D01*
X009720Y020322D01*
X009720Y021233D01*
X009676Y021339D01*
X009220Y021795D01*
X009220Y025012D01*
X009345Y025137D01*
X009420Y025318D01*
X009420Y026032D01*
X009345Y026213D01*
X009237Y026321D01*
X009594Y026679D01*
X009676Y026761D01*
X009720Y026867D01*
X009720Y027153D01*
X009761Y027132D01*
X009827Y027111D01*
X009895Y027100D01*
X009930Y027100D01*
X009930Y027800D01*
X009930Y027800D01*
X009930Y028500D01*
X009895Y028500D01*
X009827Y028489D01*
X009761Y028468D01*
X009720Y028447D01*
X009720Y029358D01*
X009676Y029464D01*
X009220Y029920D01*
X009220Y033137D01*
X009345Y033262D01*
X009420Y033443D01*
X009420Y034157D01*
X009345Y034338D01*
X009208Y034475D01*
X009027Y034550D01*
X008833Y034550D01*
X008652Y034475D01*
X008515Y034338D01*
X008440Y034157D01*
X008440Y033443D01*
X008515Y033262D01*
X008640Y033137D01*
X008640Y029742D01*
X008684Y029636D01*
X008766Y029554D01*
X009140Y029180D01*
X009140Y028503D01*
X009027Y028550D01*
X008833Y028550D01*
X008652Y028475D01*
X008515Y028338D01*
X008440Y028157D01*
X008440Y027443D01*
X008515Y027262D01*
X008640Y027137D01*
X008640Y027045D01*
X008184Y026589D01*
X008180Y026579D01*
X008176Y026589D01*
X007720Y027045D01*
X007720Y027097D01*
X007833Y027050D01*
X008027Y027050D01*
X008208Y027125D01*
X008345Y027262D01*
X008420Y027443D01*
X008420Y028157D01*
X008345Y028338D01*
X008208Y028475D01*
X008027Y028550D01*
X007833Y028550D01*
X007720Y028503D01*
X007720Y029180D01*
X008094Y029554D01*
X008094Y029554D01*
X008176Y029636D01*
X008220Y029742D01*
X008220Y033137D01*
X008345Y033262D01*
X008420Y033443D01*
X008420Y034157D01*
X008345Y034338D01*
X008208Y034475D01*
X008027Y034550D01*
X007833Y034550D01*
X007652Y034475D01*
X007515Y034338D01*
X007440Y034157D01*
X007440Y033443D01*
X007515Y033262D01*
X007640Y033137D01*
X007640Y029920D01*
X007184Y029464D01*
X007140Y029358D01*
X007140Y028503D01*
X007027Y028550D01*
X006833Y028550D01*
X006720Y028503D01*
X006720Y029180D01*
X007176Y029636D01*
X007220Y029742D01*
X007220Y033137D01*
X007345Y033262D01*
X007420Y033443D01*
X007420Y034157D01*
X007345Y034338D01*
X007208Y034475D01*
X007027Y034550D01*
X006833Y034550D01*
X006652Y034475D01*
X006515Y034338D01*
X006440Y034157D01*
X006440Y033443D01*
X006515Y033262D01*
X006640Y033137D01*
X006640Y029920D01*
X006266Y029546D01*
X006184Y029464D01*
X006140Y029358D01*
X006140Y028503D01*
X006027Y028550D01*
X005833Y028550D01*
X005720Y028503D01*
X005720Y029180D01*
X006094Y029554D01*
X006176Y029636D01*
X006220Y029742D01*
X006220Y033137D01*
X006345Y033262D01*
X006420Y033443D01*
X006420Y034157D01*
X006345Y034338D01*
X006208Y034475D01*
X006027Y034550D01*
X005833Y034550D01*
X005652Y034475D01*
X005515Y034338D01*
X005440Y034157D01*
X005440Y033443D01*
X005515Y033262D01*
X005640Y033137D01*
X005640Y029920D01*
X005184Y029464D01*
X005140Y029358D01*
X005140Y028503D01*
X005027Y028550D01*
X004833Y028550D01*
X004720Y028503D01*
X004720Y029180D01*
X005094Y029554D01*
X005176Y029636D01*
X005220Y029742D01*
X005220Y033137D01*
X005345Y033262D01*
X005420Y033443D01*
X005420Y034157D01*
X005345Y034338D01*
X005208Y034475D01*
X005027Y034550D01*
X004833Y034550D01*
X004652Y034475D01*
X004515Y034338D01*
X004440Y034157D01*
X004440Y033443D01*
X004515Y033262D01*
X004640Y033137D01*
X004640Y029920D01*
X004184Y029464D01*
X004140Y029358D01*
X004140Y028503D01*
X004027Y028550D01*
X003833Y028550D01*
X003720Y028503D01*
X003720Y029180D01*
X004176Y029636D01*
X004220Y029742D01*
X004220Y033137D01*
X004345Y033262D01*
X004420Y033443D01*
X004420Y034157D01*
X004345Y034338D01*
X004208Y034475D01*
X004027Y034550D01*
X003833Y034550D01*
X003652Y034475D01*
X003515Y034338D01*
X003440Y034157D01*
X003440Y033443D01*
X003515Y033262D01*
X003640Y033137D01*
X003640Y032982D02*
X000660Y032982D01*
X000660Y032824D02*
X003640Y032824D01*
X003640Y032665D02*
X000660Y032665D01*
X000660Y032507D02*
X003640Y032507D01*
X003640Y032348D02*
X000660Y032348D01*
X000660Y032190D02*
X003640Y032190D01*
X003640Y032031D02*
X000660Y032031D01*
X000660Y031873D02*
X003640Y031873D01*
X003640Y031714D02*
X000660Y031714D01*
X000660Y031556D02*
X003640Y031556D01*
X003640Y031397D02*
X000660Y031397D01*
X000660Y031239D02*
X003640Y031239D01*
X003640Y031080D02*
X000660Y031080D01*
X000660Y030922D02*
X003640Y030922D01*
X003640Y030763D02*
X000660Y030763D01*
X000660Y030605D02*
X003640Y030605D01*
X003640Y030446D02*
X000660Y030446D01*
X000660Y030288D02*
X003640Y030288D01*
X003640Y030129D02*
X000660Y030129D01*
X000660Y029971D02*
X003640Y029971D01*
X003532Y029812D02*
X000660Y029812D01*
X000660Y029654D02*
X003373Y029654D01*
X003215Y029495D02*
X000660Y029495D01*
X000660Y029337D02*
X003140Y029337D01*
X003140Y029178D02*
X000660Y029178D01*
X000660Y029020D02*
X003140Y029020D01*
X003140Y028861D02*
X000660Y028861D01*
X000660Y028703D02*
X003140Y028703D01*
X003140Y028544D02*
X003042Y028544D01*
X002818Y028544D02*
X000660Y028544D01*
X000660Y028386D02*
X002563Y028386D01*
X002469Y028227D02*
X000660Y028227D01*
X000660Y028069D02*
X002440Y028069D01*
X002440Y027910D02*
X000660Y027910D01*
X000660Y027752D02*
X002440Y027752D01*
X002440Y027593D02*
X000660Y027593D01*
X000660Y027435D02*
X002443Y027435D01*
X002509Y027276D02*
X000660Y027276D01*
X000660Y027118D02*
X002640Y027118D01*
X002640Y026959D02*
X000660Y026959D01*
X000660Y026801D02*
X002668Y026801D01*
X002803Y026642D02*
X000660Y026642D01*
X000660Y026484D02*
X002961Y026484D01*
X002930Y026375D02*
X002895Y026375D01*
X002827Y026364D01*
X002761Y026343D01*
X002699Y026311D01*
X002643Y026271D01*
X002594Y026222D01*
X002554Y026166D01*
X002522Y026104D01*
X002501Y026038D01*
X002490Y025970D01*
X002490Y025675D01*
X002930Y025675D01*
X002930Y025675D01*
X002930Y025675D01*
X002930Y026375D01*
X002930Y026325D02*
X002930Y026325D01*
X002930Y026167D02*
X002930Y026167D01*
X002930Y026008D02*
X002930Y026008D01*
X002930Y025850D02*
X002930Y025850D01*
X002930Y025691D02*
X002930Y025691D01*
X002930Y025675D02*
X002490Y025675D01*
X002490Y025380D01*
X002501Y025312D01*
X002522Y025246D01*
X002554Y025184D01*
X002594Y025128D01*
X002643Y025079D01*
X002699Y025039D01*
X002761Y025007D01*
X002827Y024986D01*
X002895Y024975D01*
X002930Y024975D01*
X002930Y025675D01*
X002930Y025533D02*
X002930Y025533D01*
X002930Y025374D02*
X002930Y025374D01*
X002930Y025216D02*
X002930Y025216D01*
X002930Y025057D02*
X002930Y025057D01*
X002674Y025057D02*
X000660Y025057D01*
X000660Y024899D02*
X003140Y024899D01*
X003140Y024740D02*
X000660Y024740D01*
X000660Y024582D02*
X003140Y024582D01*
X003140Y024423D02*
X000660Y024423D01*
X000660Y024265D02*
X003140Y024265D01*
X003140Y024106D02*
X000660Y024106D01*
X000660Y023948D02*
X003140Y023948D01*
X003140Y023789D02*
X000660Y023789D01*
X000660Y023631D02*
X003140Y023631D01*
X003140Y023472D02*
X000660Y023472D01*
X000660Y023314D02*
X003140Y023314D01*
X003140Y023155D02*
X000660Y023155D01*
X000660Y022997D02*
X003140Y022997D01*
X003140Y022838D02*
X000660Y022838D01*
X000660Y022680D02*
X003140Y022680D01*
X003140Y022521D02*
X001422Y022521D01*
X001671Y022363D02*
X003140Y022363D01*
X003140Y022204D02*
X001761Y022204D01*
X001785Y022046D02*
X003140Y022046D01*
X003140Y021887D02*
X001785Y021887D01*
X001785Y021729D02*
X003073Y021729D01*
X002915Y021570D02*
X001785Y021570D01*
X001785Y021412D02*
X002756Y021412D01*
X002648Y021253D02*
X001785Y021253D01*
X001785Y021095D02*
X002640Y021095D01*
X002640Y020936D02*
X001785Y020936D01*
X001785Y020778D02*
X002640Y020778D01*
X002640Y020619D02*
X001785Y020619D01*
X001785Y020461D02*
X002640Y020461D01*
X002604Y020302D02*
X001785Y020302D01*
X001785Y020144D02*
X002486Y020144D01*
X002440Y019985D02*
X001785Y019985D01*
X001785Y019827D02*
X002440Y019827D01*
X002440Y019668D02*
X001785Y019668D01*
X001785Y019510D02*
X002440Y019510D01*
X002440Y019351D02*
X001785Y019351D01*
X001785Y019193D02*
X002492Y019193D01*
X002618Y019034D02*
X001785Y019034D01*
X001785Y018876D02*
X002640Y018876D01*
X002640Y018717D02*
X001785Y018717D01*
X001785Y018559D02*
X002640Y018559D01*
X002640Y018400D02*
X002259Y018400D01*
X002370Y018242D02*
X002640Y018242D01*
X002640Y018083D02*
X002410Y018083D01*
X002410Y017925D02*
X002640Y017925D01*
X002682Y017766D02*
X002410Y017766D01*
X002410Y017608D02*
X002837Y017608D01*
X002996Y017449D02*
X002410Y017449D01*
X002410Y017291D02*
X003140Y017291D01*
X003140Y017132D02*
X002410Y017132D01*
X002410Y016974D02*
X003140Y016974D01*
X003140Y016815D02*
X002410Y016815D01*
X002410Y016657D02*
X003140Y016657D01*
X003140Y016498D02*
X002410Y016498D01*
X002410Y016340D02*
X003140Y016340D01*
X003140Y016181D02*
X002400Y016181D01*
X002331Y016023D02*
X003140Y016023D01*
X003140Y015864D02*
X002132Y015864D01*
X001785Y015706D02*
X003140Y015706D01*
X003140Y015547D02*
X001785Y015547D01*
X001758Y015389D02*
X003140Y015389D01*
X003140Y015230D02*
X001664Y015230D01*
X001404Y015072D02*
X002719Y015072D01*
X002699Y015061D02*
X002643Y015021D01*
X002594Y014972D01*
X002554Y014916D01*
X002522Y014854D01*
X002501Y014788D01*
X002490Y014720D01*
X002490Y014425D01*
X002930Y014425D01*
X002930Y014425D01*
X002930Y014425D01*
X002930Y015125D01*
X002895Y015125D01*
X002827Y015114D01*
X002761Y015093D01*
X002699Y015061D01*
X002552Y014913D02*
X000660Y014913D01*
X000660Y014755D02*
X002496Y014755D01*
X002490Y014596D02*
X000660Y014596D01*
X000660Y014438D02*
X002490Y014438D01*
X002490Y014425D02*
X002490Y014130D01*
X002501Y014062D01*
X002522Y013996D01*
X002554Y013934D01*
X002594Y013878D01*
X002643Y013829D01*
X002699Y013789D01*
X002761Y013757D01*
X002827Y013736D01*
X002895Y013725D01*
X002930Y013725D01*
X002930Y014425D01*
X002490Y014425D01*
X002490Y014279D02*
X000660Y014279D01*
X000660Y014121D02*
X002492Y014121D01*
X002540Y013962D02*
X000660Y013962D01*
X000660Y013804D02*
X002679Y013804D01*
X002930Y013804D02*
X002930Y013804D01*
X002930Y013962D02*
X002930Y013962D01*
X002930Y014121D02*
X002930Y014121D01*
X002930Y014279D02*
X002930Y014279D01*
X002930Y014438D02*
X002930Y014438D01*
X002930Y014596D02*
X002930Y014596D01*
X002930Y014755D02*
X002930Y014755D01*
X002930Y014913D02*
X002930Y014913D01*
X002930Y015072D02*
X002930Y015072D01*
X003140Y013645D02*
X000660Y013645D01*
X000660Y013487D02*
X003140Y013487D01*
X003140Y013328D02*
X000660Y013328D01*
X000660Y013170D02*
X003140Y013170D01*
X003140Y013011D02*
X000660Y013011D01*
X000660Y012853D02*
X003140Y012853D01*
X003140Y012694D02*
X000660Y012694D01*
X000660Y012536D02*
X003140Y012536D01*
X003140Y012377D02*
X000660Y012377D01*
X000660Y012219D02*
X003140Y012219D01*
X003140Y012060D02*
X000660Y012060D01*
X000660Y011902D02*
X003140Y011902D01*
X003140Y011743D02*
X001281Y011743D01*
X001406Y011585D02*
X003140Y011585D01*
X003140Y011426D02*
X001440Y011426D01*
X001406Y011268D02*
X003140Y011268D01*
X003140Y011109D02*
X001345Y011109D01*
X001345Y010951D02*
X003140Y010951D01*
X003140Y010792D02*
X001345Y010792D01*
X001345Y010634D02*
X003103Y010634D01*
X002945Y010475D02*
X001345Y010475D01*
X001345Y010317D02*
X002786Y010317D01*
X002661Y010158D02*
X001345Y010158D01*
X001345Y010000D02*
X002640Y010000D01*
X002640Y009841D02*
X001345Y009841D01*
X001345Y009683D02*
X002640Y009683D01*
X002640Y009524D02*
X001345Y009524D01*
X001345Y009366D02*
X002640Y009366D01*
X002640Y009207D02*
X001345Y009207D01*
X001345Y009049D02*
X002601Y009049D01*
X002485Y008890D02*
X001345Y008890D01*
X001345Y008732D02*
X002440Y008732D01*
X002440Y008573D02*
X001345Y008573D01*
X001345Y008415D02*
X002440Y008415D01*
X002440Y008256D02*
X001345Y008256D01*
X001345Y008098D02*
X002440Y008098D01*
X002493Y007939D02*
X001345Y007939D01*
X001345Y007781D02*
X002622Y007781D01*
X002640Y007622D02*
X001345Y007622D01*
X001345Y007464D02*
X002652Y007464D01*
X002765Y007305D02*
X001345Y007305D01*
X001345Y007147D02*
X002923Y007147D01*
X003082Y006988D02*
X001345Y006988D01*
X001345Y006830D02*
X003240Y006830D01*
X003363Y006671D02*
X003399Y006671D01*
X003487Y006513D02*
X003557Y006513D01*
X003535Y006354D02*
X003640Y006354D01*
X003640Y006196D02*
X003535Y006196D01*
X003535Y006037D02*
X003640Y006037D01*
X003640Y005879D02*
X003535Y005879D01*
X003535Y005720D02*
X003640Y005720D01*
X003640Y005562D02*
X003535Y005562D01*
X003535Y005403D02*
X003640Y005403D01*
X002122Y006671D02*
X001345Y006671D01*
X001345Y006513D02*
X001998Y006513D01*
X001950Y006354D02*
X001345Y006354D01*
X001345Y006196D02*
X001950Y006196D01*
X001950Y006037D02*
X001345Y006037D01*
X001345Y005879D02*
X001950Y005879D01*
X001950Y005720D02*
X001345Y005720D01*
X001345Y005562D02*
X001950Y005562D01*
X001950Y005403D02*
X001345Y005403D01*
X001386Y005245D02*
X001474Y005245D01*
X000765Y005403D02*
X000660Y005403D01*
X000660Y005562D02*
X000765Y005562D01*
X000765Y005720D02*
X000660Y005720D01*
X000660Y005879D02*
X000765Y005879D01*
X000765Y006037D02*
X000660Y006037D01*
X000660Y006196D02*
X000765Y006196D01*
X000765Y006354D02*
X000660Y006354D01*
X000660Y006513D02*
X000765Y006513D01*
X000765Y006671D02*
X000660Y006671D01*
X000660Y006830D02*
X000765Y006830D01*
X000765Y006988D02*
X000660Y006988D01*
X000660Y007147D02*
X000765Y007147D01*
X000765Y007305D02*
X000660Y007305D01*
X000660Y007464D02*
X000765Y007464D01*
X000765Y007622D02*
X000660Y007622D01*
X000660Y007781D02*
X000765Y007781D01*
X000765Y007939D02*
X000660Y007939D01*
X000660Y008098D02*
X000765Y008098D01*
X000765Y008256D02*
X000660Y008256D01*
X000660Y008415D02*
X000765Y008415D01*
X000765Y008573D02*
X000660Y008573D01*
X000660Y008732D02*
X000765Y008732D01*
X000765Y008890D02*
X000660Y008890D01*
X000660Y009049D02*
X000765Y009049D01*
X000765Y009207D02*
X000660Y009207D01*
X000660Y009366D02*
X000765Y009366D01*
X000765Y009524D02*
X000660Y009524D01*
X000660Y009683D02*
X000765Y009683D01*
X000765Y009841D02*
X000660Y009841D01*
X000660Y010000D02*
X000765Y010000D01*
X000765Y010158D02*
X000660Y010158D01*
X000660Y010317D02*
X000765Y010317D01*
X000765Y010475D02*
X000660Y010475D01*
X000660Y010634D02*
X000765Y010634D01*
X000765Y010792D02*
X000660Y010792D01*
X000660Y010951D02*
X000765Y010951D01*
X000765Y011109D02*
X000660Y011109D01*
X000660Y011268D02*
X000704Y011268D01*
X000670Y011426D02*
X000660Y011426D01*
X000660Y011585D02*
X000704Y011585D01*
X000660Y011743D02*
X000829Y011743D01*
X000660Y025216D02*
X002538Y025216D01*
X002491Y025374D02*
X000660Y025374D01*
X000660Y025533D02*
X002490Y025533D01*
X002490Y025691D02*
X000660Y025691D01*
X000660Y025850D02*
X002490Y025850D01*
X002496Y026008D02*
X000660Y026008D01*
X000660Y026167D02*
X002554Y026167D01*
X002726Y026325D02*
X000660Y026325D01*
X003720Y028544D02*
X003818Y028544D01*
X003720Y028703D02*
X004140Y028703D01*
X004140Y028861D02*
X003720Y028861D01*
X003720Y029020D02*
X004140Y029020D01*
X004140Y029178D02*
X003720Y029178D01*
X003877Y029337D02*
X004140Y029337D01*
X004215Y029495D02*
X004035Y029495D01*
X004183Y029654D02*
X004373Y029654D01*
X004220Y029812D02*
X004532Y029812D01*
X004640Y029971D02*
X004220Y029971D01*
X004220Y030129D02*
X004640Y030129D01*
X004640Y030288D02*
X004220Y030288D01*
X004220Y030446D02*
X004640Y030446D01*
X004640Y030605D02*
X004220Y030605D01*
X004220Y030763D02*
X004640Y030763D01*
X004640Y030922D02*
X004220Y030922D01*
X004220Y031080D02*
X004640Y031080D01*
X004640Y031239D02*
X004220Y031239D01*
X004220Y031397D02*
X004640Y031397D01*
X004640Y031556D02*
X004220Y031556D01*
X004220Y031714D02*
X004640Y031714D01*
X004640Y031873D02*
X004220Y031873D01*
X004220Y032031D02*
X004640Y032031D01*
X004640Y032190D02*
X004220Y032190D01*
X004220Y032348D02*
X004640Y032348D01*
X004640Y032507D02*
X004220Y032507D01*
X004220Y032665D02*
X004640Y032665D01*
X004640Y032824D02*
X004220Y032824D01*
X004220Y032982D02*
X004640Y032982D01*
X004636Y033141D02*
X004224Y033141D01*
X004361Y033299D02*
X004499Y033299D01*
X004440Y033458D02*
X004420Y033458D01*
X004420Y033616D02*
X004440Y033616D01*
X004440Y033775D02*
X004420Y033775D01*
X004420Y033933D02*
X004440Y033933D01*
X004440Y034092D02*
X004420Y034092D01*
X004382Y034250D02*
X004478Y034250D01*
X004586Y034409D02*
X004274Y034409D01*
X003586Y034409D02*
X003199Y034409D01*
X003327Y034250D02*
X003478Y034250D01*
X003440Y034092D02*
X003370Y034092D01*
X003370Y033933D02*
X003440Y033933D01*
X003440Y033775D02*
X003370Y033775D01*
X003370Y033616D02*
X003440Y033616D01*
X003440Y033458D02*
X003362Y033458D01*
X003299Y033299D02*
X003499Y033299D01*
X002930Y033775D02*
X002930Y033775D01*
X002930Y033933D02*
X002930Y033933D01*
X002930Y034092D02*
X002930Y034092D01*
X002930Y034250D02*
X002930Y034250D01*
X002930Y034409D02*
X002930Y034409D01*
X002661Y034409D02*
X000660Y034409D01*
X000660Y034567D02*
X018200Y034567D01*
X018200Y034409D02*
X016274Y034409D01*
X016382Y034250D02*
X018200Y034250D01*
X018200Y034092D02*
X016420Y034092D01*
X016420Y033933D02*
X018200Y033933D01*
X018200Y033775D02*
X016420Y033775D01*
X016420Y033616D02*
X018200Y033616D01*
X018200Y033458D02*
X016420Y033458D01*
X016361Y033299D02*
X018200Y033299D01*
X018200Y033141D02*
X016280Y033141D01*
X016280Y032982D02*
X018200Y032982D01*
X018200Y032824D02*
X016280Y032824D01*
X016280Y032665D02*
X018200Y032665D01*
X018200Y032507D02*
X016280Y032507D01*
X016280Y032348D02*
X018200Y032348D01*
X018200Y032190D02*
X016280Y032190D01*
X016280Y032031D02*
X018200Y032031D01*
X018200Y031873D02*
X016280Y031873D01*
X016280Y031714D02*
X018200Y031714D01*
X018200Y031556D02*
X016280Y031556D01*
X016280Y031397D02*
X018200Y031397D01*
X018200Y031239D02*
X016280Y031239D01*
X016280Y031080D02*
X018200Y031080D01*
X018200Y030922D02*
X016280Y030922D01*
X016280Y030763D02*
X018200Y030763D01*
X018200Y030605D02*
X016280Y030605D01*
X016280Y030446D02*
X018200Y030446D01*
X018200Y030288D02*
X016280Y030288D01*
X016280Y030129D02*
X018200Y030129D01*
X018200Y029971D02*
X016280Y029971D01*
X016280Y029812D02*
X018200Y029812D01*
X018200Y029654D02*
X016280Y029654D01*
X016280Y029495D02*
X018200Y029495D01*
X018200Y029337D02*
X016280Y029337D01*
X016280Y029178D02*
X018200Y029178D01*
X018200Y029020D02*
X016280Y029020D01*
X016280Y028861D02*
X018200Y028861D01*
X018200Y028703D02*
X016280Y028703D01*
X016280Y028544D02*
X018200Y028544D01*
X018200Y028386D02*
X016297Y028386D01*
X016391Y028227D02*
X018200Y028227D01*
X018200Y028069D02*
X016420Y028069D01*
X016420Y027910D02*
X018200Y027910D01*
X018200Y027752D02*
X016420Y027752D01*
X016420Y027593D02*
X018200Y027593D01*
X018200Y027435D02*
X016417Y027435D01*
X016351Y027276D02*
X018200Y027276D01*
X018200Y027118D02*
X016280Y027118D01*
X016280Y026959D02*
X018200Y026959D01*
X018200Y026801D02*
X016280Y026801D01*
X016280Y026642D02*
X018200Y026642D01*
X018200Y026484D02*
X016280Y026484D01*
X016280Y026325D02*
X018200Y026325D01*
X018200Y026167D02*
X016364Y026167D01*
X016420Y026008D02*
X018200Y026008D01*
X018200Y025850D02*
X016420Y025850D01*
X016420Y025691D02*
X018200Y025691D01*
X018200Y025533D02*
X016420Y025533D01*
X016420Y025374D02*
X018200Y025374D01*
X018200Y025216D02*
X016378Y025216D01*
X016280Y025057D02*
X018200Y025057D01*
X018200Y024899D02*
X016280Y024899D01*
X016280Y024740D02*
X018200Y024740D01*
X018200Y024582D02*
X016280Y024582D01*
X016280Y024423D02*
X018200Y024423D01*
X018200Y024265D02*
X016280Y024265D01*
X016280Y024106D02*
X018200Y024106D01*
X018200Y023948D02*
X016280Y023948D01*
X016280Y023789D02*
X018200Y023789D01*
X018200Y023631D02*
X016280Y023631D01*
X016280Y023472D02*
X018200Y023472D01*
X018200Y023314D02*
X016280Y023314D01*
X016280Y023155D02*
X018200Y023155D01*
X018200Y022997D02*
X016280Y022997D01*
X016280Y022838D02*
X018200Y022838D01*
X018200Y022680D02*
X016280Y022680D01*
X016280Y022521D02*
X017438Y022521D01*
X017189Y022363D02*
X016280Y022363D01*
X016280Y022204D02*
X017099Y022204D01*
X017075Y022046D02*
X016280Y022046D01*
X016280Y021887D02*
X017075Y021887D01*
X017075Y021729D02*
X016280Y021729D01*
X016280Y021570D02*
X017075Y021570D01*
X017075Y021412D02*
X016280Y021412D01*
X016280Y021253D02*
X017075Y021253D01*
X017075Y021095D02*
X016280Y021095D01*
X016280Y020936D02*
X017075Y020936D01*
X017075Y020778D02*
X016280Y020778D01*
X016280Y020619D02*
X017075Y020619D01*
X017075Y020461D02*
X016280Y020461D01*
X016280Y020302D02*
X017075Y020302D01*
X017075Y020144D02*
X016374Y020144D01*
X016420Y019985D02*
X017075Y019985D01*
X017075Y019827D02*
X016420Y019827D01*
X016420Y019668D02*
X017075Y019668D01*
X017075Y019510D02*
X016420Y019510D01*
X016420Y019351D02*
X017075Y019351D01*
X017075Y019193D02*
X016368Y019193D01*
X016280Y019034D02*
X017075Y019034D01*
X017075Y018876D02*
X016280Y018876D01*
X016280Y018717D02*
X017075Y018717D01*
X017075Y018559D02*
X016280Y018559D01*
X016280Y018400D02*
X016601Y018400D01*
X016490Y018242D02*
X016280Y018242D01*
X016280Y018083D02*
X016450Y018083D01*
X016450Y017925D02*
X016280Y017925D01*
X016280Y017766D02*
X016450Y017766D01*
X016450Y017608D02*
X016280Y017608D01*
X016280Y017449D02*
X016450Y017449D01*
X016450Y017291D02*
X016280Y017291D01*
X016280Y017132D02*
X016450Y017132D01*
X016450Y016974D02*
X016280Y016974D01*
X016280Y016815D02*
X016450Y016815D01*
X016450Y016657D02*
X016280Y016657D01*
X016280Y016498D02*
X016450Y016498D01*
X016450Y016340D02*
X016280Y016340D01*
X016280Y016181D02*
X016460Y016181D01*
X016529Y016023D02*
X016280Y016023D01*
X016280Y015864D02*
X016728Y015864D01*
X017075Y015706D02*
X016280Y015706D01*
X016280Y015547D02*
X017075Y015547D01*
X017102Y015389D02*
X016280Y015389D01*
X016280Y015230D02*
X017196Y015230D01*
X017456Y015072D02*
X016280Y015072D01*
X016366Y014913D02*
X018200Y014913D01*
X018200Y014755D02*
X016420Y014755D01*
X016420Y014596D02*
X018200Y014596D01*
X018200Y014438D02*
X016420Y014438D01*
X016420Y014279D02*
X018200Y014279D01*
X018200Y014121D02*
X016420Y014121D01*
X016376Y013962D02*
X018200Y013962D01*
X018200Y013804D02*
X016280Y013804D01*
X016280Y013645D02*
X018200Y013645D01*
X018200Y013487D02*
X016280Y013487D01*
X016280Y013328D02*
X018200Y013328D01*
X018200Y013170D02*
X016280Y013170D01*
X016280Y013011D02*
X018200Y013011D01*
X018200Y012853D02*
X017172Y012853D01*
X017136Y012219D02*
X017476Y012219D01*
X017515Y012060D02*
X016280Y012060D01*
X016280Y011902D02*
X017515Y011902D01*
X017515Y011743D02*
X016280Y011743D01*
X016280Y011585D02*
X017515Y011585D01*
X017515Y011426D02*
X016280Y011426D01*
X016280Y011268D02*
X017515Y011268D01*
X017515Y011109D02*
X016280Y011109D01*
X016280Y010951D02*
X017515Y010951D01*
X017515Y010792D02*
X016280Y010792D01*
X016280Y010634D02*
X017515Y010634D01*
X017515Y010475D02*
X016280Y010475D01*
X016280Y010317D02*
X017515Y010317D01*
X017515Y010158D02*
X016280Y010158D01*
X016280Y010000D02*
X017515Y010000D01*
X017515Y009841D02*
X016280Y009841D01*
X016280Y009683D02*
X017515Y009683D01*
X017515Y009524D02*
X016280Y009524D01*
X016280Y009366D02*
X017515Y009366D01*
X017515Y009207D02*
X016280Y009207D01*
X016280Y009049D02*
X017515Y009049D01*
X017515Y008890D02*
X016375Y008890D01*
X016420Y008732D02*
X017515Y008732D01*
X017515Y008573D02*
X016420Y008573D01*
X016420Y008415D02*
X017515Y008415D01*
X017515Y008256D02*
X016420Y008256D01*
X016420Y008098D02*
X017515Y008098D01*
X017515Y007939D02*
X016367Y007939D01*
X016280Y007781D02*
X017515Y007781D01*
X017515Y007622D02*
X017152Y007622D01*
X017279Y007464D02*
X017515Y007464D01*
X017515Y007305D02*
X017315Y007305D01*
X017283Y007147D02*
X017515Y007147D01*
X017515Y006988D02*
X017220Y006988D01*
X017220Y006830D02*
X017515Y006830D01*
X017515Y006671D02*
X017220Y006671D01*
X017220Y006513D02*
X017515Y006513D01*
X017515Y006354D02*
X017220Y006354D01*
X017220Y006196D02*
X017515Y006196D01*
X017515Y006037D02*
X017220Y006037D01*
X017220Y005879D02*
X017515Y005879D01*
X017515Y005720D02*
X017220Y005720D01*
X017220Y005562D02*
X017515Y005562D01*
X017515Y005403D02*
X017220Y005403D01*
X017386Y005245D02*
X017474Y005245D01*
X018095Y005403D02*
X018200Y005403D01*
X018200Y005562D02*
X018095Y005562D01*
X018095Y005720D02*
X018200Y005720D01*
X018200Y005879D02*
X018095Y005879D01*
X018095Y006037D02*
X018200Y006037D01*
X018200Y006196D02*
X018095Y006196D01*
X018095Y006354D02*
X018200Y006354D01*
X018200Y006513D02*
X018095Y006513D01*
X018095Y006671D02*
X018200Y006671D01*
X018200Y006830D02*
X018095Y006830D01*
X018095Y006988D02*
X018200Y006988D01*
X018200Y007147D02*
X018095Y007147D01*
X018095Y007305D02*
X018200Y007305D01*
X018200Y007464D02*
X018095Y007464D01*
X018095Y007622D02*
X018200Y007622D01*
X018200Y007781D02*
X018095Y007781D01*
X018095Y007939D02*
X018200Y007939D01*
X018200Y008098D02*
X018095Y008098D01*
X018095Y008256D02*
X018200Y008256D01*
X018200Y008415D02*
X018095Y008415D01*
X018095Y008573D02*
X018200Y008573D01*
X018200Y008732D02*
X018095Y008732D01*
X018095Y008890D02*
X018200Y008890D01*
X018200Y009049D02*
X018095Y009049D01*
X018095Y009207D02*
X018200Y009207D01*
X018200Y009366D02*
X018095Y009366D01*
X018095Y009524D02*
X018200Y009524D01*
X018200Y009683D02*
X018095Y009683D01*
X018095Y009841D02*
X018200Y009841D01*
X018200Y010000D02*
X018095Y010000D01*
X018095Y010158D02*
X018200Y010158D01*
X018200Y010317D02*
X018095Y010317D01*
X018095Y010475D02*
X018200Y010475D01*
X018200Y010634D02*
X018095Y010634D01*
X018095Y010792D02*
X018200Y010792D01*
X018200Y010951D02*
X018095Y010951D01*
X018095Y011109D02*
X018200Y011109D01*
X018200Y011268D02*
X018095Y011268D01*
X018095Y011426D02*
X018200Y011426D01*
X018200Y011585D02*
X018095Y011585D01*
X018095Y011743D02*
X018200Y011743D01*
X018200Y011902D02*
X018095Y011902D01*
X018095Y012060D02*
X018200Y012060D01*
X018200Y012219D02*
X018095Y012219D01*
X018087Y012377D02*
X018200Y012377D01*
X018200Y012536D02*
X017980Y012536D01*
X017821Y012694D02*
X018200Y012694D01*
X016724Y012219D02*
X016280Y012219D01*
X016280Y012377D02*
X016585Y012377D01*
X016545Y012536D02*
X016280Y012536D01*
X016280Y012694D02*
X016573Y012694D01*
X016688Y012853D02*
X016280Y012853D01*
X016280Y007622D02*
X016708Y007622D01*
X016581Y007464D02*
X016213Y007464D01*
X016055Y007305D02*
X016545Y007305D01*
X016577Y007147D02*
X015896Y007147D01*
X015738Y006988D02*
X016640Y006988D01*
X016640Y006830D02*
X015579Y006830D01*
X015497Y006671D02*
X015421Y006671D01*
X015373Y006513D02*
X015262Y006513D01*
X015325Y006354D02*
X015104Y006354D01*
X014945Y006196D02*
X015325Y006196D01*
X015325Y006037D02*
X014787Y006037D01*
X014628Y005879D02*
X015325Y005879D01*
X015325Y005720D02*
X014470Y005720D01*
X014311Y005562D02*
X015325Y005562D01*
X015325Y005403D02*
X014280Y005403D01*
X014386Y005245D02*
X014567Y005245D01*
X014860Y005245D02*
X015000Y005245D01*
X015000Y005086D02*
X014860Y005086D01*
X014860Y004928D02*
X015000Y004928D01*
X015293Y005245D02*
X015325Y005245D01*
X009640Y017380D02*
X009507Y017435D01*
X009353Y017435D01*
X009348Y017433D01*
X009594Y017679D01*
X009676Y017761D01*
X009720Y017867D01*
X009720Y019028D01*
X009761Y019007D01*
X009827Y018986D01*
X009895Y018975D01*
X009930Y018975D01*
X009965Y018975D01*
X010033Y018986D01*
X010099Y019007D01*
X010140Y019028D01*
X010140Y018045D01*
X009684Y017589D01*
X009640Y017483D01*
X009640Y017380D01*
X009640Y017449D02*
X009364Y017449D01*
X009523Y017608D02*
X009702Y017608D01*
X009678Y017766D02*
X009861Y017766D01*
X009720Y017925D02*
X010019Y017925D01*
X010140Y018083D02*
X009720Y018083D01*
X009720Y018242D02*
X010140Y018242D01*
X010140Y018400D02*
X009720Y018400D01*
X009720Y018559D02*
X010140Y018559D01*
X010140Y018717D02*
X009720Y018717D01*
X009720Y018876D02*
X010140Y018876D01*
X009930Y018975D02*
X009930Y019675D01*
X009930Y019675D01*
X009930Y018975D01*
X009930Y019034D02*
X009930Y019034D01*
X009930Y019193D02*
X009930Y019193D01*
X009930Y019351D02*
X009930Y019351D01*
X009930Y019510D02*
X009930Y019510D01*
X009930Y019668D02*
X009930Y019668D01*
X009930Y019827D02*
X009930Y019827D01*
X009930Y019985D02*
X009930Y019985D01*
X009930Y020144D02*
X009930Y020144D01*
X009930Y020302D02*
X009930Y020302D01*
X009720Y020461D02*
X010140Y020461D01*
X010140Y020619D02*
X009720Y020619D01*
X009720Y020778D02*
X010140Y020778D01*
X010140Y020936D02*
X009720Y020936D01*
X009720Y021095D02*
X010100Y021095D01*
X009942Y021253D02*
X009712Y021253D01*
X009783Y021412D02*
X009604Y021412D01*
X009660Y021570D02*
X009445Y021570D01*
X009287Y021729D02*
X009640Y021729D01*
X009640Y021887D02*
X009220Y021887D01*
X009220Y022046D02*
X009640Y022046D01*
X009640Y022204D02*
X009220Y022204D01*
X009220Y022363D02*
X009640Y022363D01*
X009640Y022521D02*
X009220Y022521D01*
X009220Y022680D02*
X009640Y022680D01*
X009640Y022838D02*
X009220Y022838D01*
X009220Y022997D02*
X009640Y022997D01*
X009640Y023155D02*
X009220Y023155D01*
X009220Y023314D02*
X009640Y023314D01*
X009640Y023472D02*
X009220Y023472D01*
X009220Y023631D02*
X009640Y023631D01*
X009640Y023789D02*
X009220Y023789D01*
X009220Y023948D02*
X009640Y023948D01*
X009640Y024106D02*
X009220Y024106D01*
X009220Y024265D02*
X009640Y024265D01*
X009640Y024423D02*
X009220Y024423D01*
X009220Y024582D02*
X009640Y024582D01*
X009640Y024740D02*
X009220Y024740D01*
X009220Y024899D02*
X009640Y024899D01*
X009595Y025057D02*
X009265Y025057D01*
X009378Y025216D02*
X009482Y025216D01*
X009440Y025374D02*
X009420Y025374D01*
X009420Y025533D02*
X009440Y025533D01*
X009440Y025691D02*
X009420Y025691D01*
X009420Y025850D02*
X009440Y025850D01*
X009440Y026008D02*
X009420Y026008D01*
X009364Y026167D02*
X009496Y026167D01*
X009627Y026325D02*
X009240Y026325D01*
X009399Y026484D02*
X009640Y026484D01*
X009557Y026642D02*
X009737Y026642D01*
X009692Y026801D02*
X009895Y026801D01*
X010054Y026959D02*
X009720Y026959D01*
X009720Y027118D02*
X009806Y027118D01*
X009930Y027118D02*
X009930Y027118D01*
X010054Y027118D02*
X010140Y027118D01*
X009930Y027276D02*
X009930Y027276D01*
X009930Y027435D02*
X009930Y027435D01*
X009930Y027593D02*
X009930Y027593D01*
X009930Y027752D02*
X009930Y027752D01*
X009930Y027910D02*
X009930Y027910D01*
X009930Y028069D02*
X009930Y028069D01*
X009930Y028227D02*
X009930Y028227D01*
X009930Y028386D02*
X009930Y028386D01*
X009720Y028544D02*
X010140Y028544D01*
X010140Y028703D02*
X009720Y028703D01*
X009720Y028861D02*
X010140Y028861D01*
X010140Y029020D02*
X009720Y029020D01*
X009720Y029178D02*
X010140Y029178D01*
X009983Y029337D02*
X009720Y029337D01*
X009645Y029495D02*
X009825Y029495D01*
X009677Y029654D02*
X009487Y029654D01*
X009640Y029812D02*
X009328Y029812D01*
X009220Y029971D02*
X009640Y029971D01*
X009640Y030129D02*
X009220Y030129D01*
X009220Y030288D02*
X009640Y030288D01*
X009640Y030446D02*
X009220Y030446D01*
X009220Y030605D02*
X009640Y030605D01*
X009640Y030763D02*
X009220Y030763D01*
X009220Y030922D02*
X009640Y030922D01*
X009640Y031080D02*
X009220Y031080D01*
X009220Y031239D02*
X009640Y031239D01*
X009640Y031397D02*
X009220Y031397D01*
X009220Y031556D02*
X009640Y031556D01*
X009640Y031714D02*
X009220Y031714D01*
X009220Y031873D02*
X009640Y031873D01*
X009640Y032031D02*
X009220Y032031D01*
X009220Y032190D02*
X009640Y032190D01*
X009640Y032348D02*
X009220Y032348D01*
X009220Y032507D02*
X009640Y032507D01*
X009640Y032665D02*
X009220Y032665D01*
X009220Y032824D02*
X009640Y032824D01*
X009640Y032982D02*
X009220Y032982D01*
X009224Y033141D02*
X009636Y033141D01*
X009499Y033299D02*
X009361Y033299D01*
X009420Y033458D02*
X009440Y033458D01*
X009440Y033616D02*
X009420Y033616D01*
X009420Y033775D02*
X009440Y033775D01*
X009440Y033933D02*
X009420Y033933D01*
X009420Y034092D02*
X009440Y034092D01*
X009478Y034250D02*
X009382Y034250D01*
X009274Y034409D02*
X009586Y034409D01*
X010224Y033141D02*
X010636Y033141D01*
X010640Y032982D02*
X010220Y032982D01*
X010220Y032824D02*
X010640Y032824D01*
X010640Y032665D02*
X010220Y032665D01*
X010220Y032507D02*
X010640Y032507D01*
X010640Y032348D02*
X010220Y032348D01*
X010220Y032190D02*
X010640Y032190D01*
X010640Y032031D02*
X010220Y032031D01*
X010220Y031873D02*
X010640Y031873D01*
X010640Y031714D02*
X010220Y031714D01*
X010220Y031556D02*
X010640Y031556D01*
X010640Y031397D02*
X010220Y031397D01*
X010220Y031239D02*
X010640Y031239D01*
X010640Y031080D02*
X010220Y031080D01*
X010220Y030922D02*
X010640Y030922D01*
X010640Y030763D02*
X010220Y030763D01*
X010220Y030605D02*
X010640Y030605D01*
X010640Y030446D02*
X010220Y030446D01*
X010220Y030288D02*
X010640Y030288D01*
X010640Y030129D02*
X010220Y030129D01*
X010220Y029971D02*
X010640Y029971D01*
X010640Y029812D02*
X010328Y029812D01*
X010487Y029654D02*
X010677Y029654D01*
X010645Y029495D02*
X010825Y029495D01*
X010720Y029337D02*
X010983Y029337D01*
X011140Y029178D02*
X010720Y029178D01*
X010720Y029020D02*
X011140Y029020D01*
X011140Y028861D02*
X010720Y028861D01*
X010720Y028703D02*
X011140Y028703D01*
X011140Y028544D02*
X011042Y028544D01*
X010818Y028544D02*
X010720Y028544D01*
X011328Y029812D02*
X011640Y029812D01*
X011640Y029971D02*
X011220Y029971D01*
X011220Y030129D02*
X011640Y030129D01*
X011640Y030288D02*
X011220Y030288D01*
X011220Y030446D02*
X011640Y030446D01*
X011640Y030605D02*
X011220Y030605D01*
X011220Y030763D02*
X011640Y030763D01*
X011640Y030922D02*
X011220Y030922D01*
X011220Y031080D02*
X011640Y031080D01*
X011640Y031239D02*
X011220Y031239D01*
X011220Y031397D02*
X011640Y031397D01*
X011640Y031556D02*
X011220Y031556D01*
X011220Y031714D02*
X011640Y031714D01*
X011640Y031873D02*
X011220Y031873D01*
X011220Y032031D02*
X011640Y032031D01*
X011640Y032190D02*
X011220Y032190D01*
X011220Y032348D02*
X011640Y032348D01*
X011640Y032507D02*
X011220Y032507D01*
X011220Y032665D02*
X011640Y032665D01*
X011640Y032824D02*
X011220Y032824D01*
X011220Y032982D02*
X011640Y032982D01*
X011636Y033141D02*
X011224Y033141D01*
X011361Y033299D02*
X011499Y033299D01*
X011440Y033458D02*
X011420Y033458D01*
X011420Y033616D02*
X011440Y033616D01*
X011440Y033775D02*
X011420Y033775D01*
X011420Y033933D02*
X011440Y033933D01*
X011440Y034092D02*
X011420Y034092D01*
X011382Y034250D02*
X011478Y034250D01*
X011586Y034409D02*
X011274Y034409D01*
X010586Y034409D02*
X010274Y034409D01*
X010382Y034250D02*
X010478Y034250D01*
X010440Y034092D02*
X010420Y034092D01*
X010420Y033933D02*
X010440Y033933D01*
X010440Y033775D02*
X010420Y033775D01*
X010420Y033616D02*
X010440Y033616D01*
X010440Y033458D02*
X010420Y033458D01*
X010361Y033299D02*
X010499Y033299D01*
X012224Y033141D02*
X012636Y033141D01*
X012640Y032982D02*
X012220Y032982D01*
X012220Y032824D02*
X012640Y032824D01*
X012640Y032665D02*
X012220Y032665D01*
X012220Y032507D02*
X012640Y032507D01*
X012640Y032348D02*
X012220Y032348D01*
X012220Y032190D02*
X012640Y032190D01*
X012640Y032031D02*
X012220Y032031D01*
X012220Y031873D02*
X012640Y031873D01*
X012640Y031714D02*
X012220Y031714D01*
X012220Y031556D02*
X012640Y031556D01*
X012640Y031397D02*
X012220Y031397D01*
X012220Y031239D02*
X012640Y031239D01*
X012640Y031080D02*
X012220Y031080D01*
X012220Y030922D02*
X012640Y030922D01*
X012640Y030763D02*
X012220Y030763D01*
X012220Y030605D02*
X012640Y030605D01*
X012640Y030446D02*
X012220Y030446D01*
X012220Y030288D02*
X012640Y030288D01*
X012640Y030129D02*
X012220Y030129D01*
X012220Y029971D02*
X012640Y029971D01*
X012640Y029812D02*
X012328Y029812D01*
X012487Y029654D02*
X012677Y029654D01*
X012645Y029495D02*
X012825Y029495D01*
X012720Y029337D02*
X012983Y029337D01*
X013140Y029178D02*
X012720Y029178D01*
X012720Y029020D02*
X013140Y029020D01*
X013140Y028861D02*
X012720Y028861D01*
X012720Y028703D02*
X013140Y028703D01*
X013140Y028544D02*
X013042Y028544D01*
X012818Y028544D02*
X012720Y028544D01*
X013328Y029812D02*
X013640Y029812D01*
X013640Y029971D02*
X013220Y029971D01*
X013220Y030129D02*
X013640Y030129D01*
X013640Y030288D02*
X013220Y030288D01*
X013220Y030446D02*
X013640Y030446D01*
X013640Y030605D02*
X013220Y030605D01*
X013220Y030763D02*
X013640Y030763D01*
X013640Y030922D02*
X013220Y030922D01*
X013220Y031080D02*
X013640Y031080D01*
X013640Y031239D02*
X013220Y031239D01*
X013220Y031397D02*
X013640Y031397D01*
X013640Y031556D02*
X013220Y031556D01*
X013220Y031714D02*
X013640Y031714D01*
X013640Y031873D02*
X013220Y031873D01*
X013220Y032031D02*
X013640Y032031D01*
X013640Y032190D02*
X013220Y032190D01*
X013220Y032348D02*
X013640Y032348D01*
X013640Y032507D02*
X013220Y032507D01*
X013220Y032665D02*
X013640Y032665D01*
X013640Y032824D02*
X013220Y032824D01*
X013220Y032982D02*
X013640Y032982D01*
X013636Y033141D02*
X013224Y033141D01*
X013361Y033299D02*
X013499Y033299D01*
X013440Y033458D02*
X013420Y033458D01*
X013420Y033616D02*
X013440Y033616D01*
X013440Y033775D02*
X013420Y033775D01*
X013420Y033933D02*
X013440Y033933D01*
X013440Y034092D02*
X013420Y034092D01*
X013382Y034250D02*
X013478Y034250D01*
X013586Y034409D02*
X013274Y034409D01*
X012586Y034409D02*
X012274Y034409D01*
X012382Y034250D02*
X012478Y034250D01*
X012440Y034092D02*
X012420Y034092D01*
X012420Y033933D02*
X012440Y033933D01*
X012440Y033775D02*
X012420Y033775D01*
X012420Y033616D02*
X012440Y033616D01*
X012440Y033458D02*
X012420Y033458D01*
X012361Y033299D02*
X012499Y033299D01*
X014224Y033141D02*
X014636Y033141D01*
X014640Y032982D02*
X014220Y032982D01*
X014220Y032824D02*
X014640Y032824D01*
X014640Y032665D02*
X014220Y032665D01*
X014220Y032507D02*
X014640Y032507D01*
X014640Y032348D02*
X014220Y032348D01*
X014220Y032190D02*
X014640Y032190D01*
X014640Y032031D02*
X014220Y032031D01*
X014220Y031873D02*
X014640Y031873D01*
X014640Y031714D02*
X014220Y031714D01*
X014220Y031556D02*
X014640Y031556D01*
X014640Y031397D02*
X014220Y031397D01*
X014220Y031239D02*
X014640Y031239D01*
X014640Y031080D02*
X014220Y031080D01*
X014220Y030922D02*
X014640Y030922D01*
X014640Y030763D02*
X014220Y030763D01*
X014220Y030605D02*
X014640Y030605D01*
X014640Y030446D02*
X014220Y030446D01*
X014220Y030288D02*
X014640Y030288D01*
X014640Y030129D02*
X014220Y030129D01*
X014220Y029971D02*
X014640Y029971D01*
X014640Y029812D02*
X014328Y029812D01*
X014487Y029654D02*
X014677Y029654D01*
X014645Y029495D02*
X014825Y029495D01*
X014720Y029337D02*
X014983Y029337D01*
X015140Y029178D02*
X014720Y029178D01*
X014720Y029020D02*
X015140Y029020D01*
X015140Y028861D02*
X014720Y028861D01*
X014720Y028703D02*
X015140Y028703D01*
X015140Y028544D02*
X015042Y028544D01*
X014818Y028544D02*
X014720Y028544D01*
X014140Y028544D02*
X014042Y028544D01*
X014140Y028703D02*
X013720Y028703D01*
X013720Y028861D02*
X014140Y028861D01*
X014140Y029020D02*
X013720Y029020D01*
X013720Y029178D02*
X014140Y029178D01*
X013983Y029337D02*
X013720Y029337D01*
X013645Y029495D02*
X013825Y029495D01*
X013677Y029654D02*
X013487Y029654D01*
X013720Y028544D02*
X013818Y028544D01*
X015328Y029812D02*
X015580Y029812D01*
X015580Y029654D02*
X015487Y029654D01*
X015580Y029971D02*
X015220Y029971D01*
X015220Y030129D02*
X015580Y030129D01*
X015580Y030288D02*
X015220Y030288D01*
X015220Y030446D02*
X015580Y030446D01*
X015580Y030605D02*
X015220Y030605D01*
X015220Y030763D02*
X015580Y030763D01*
X015580Y030922D02*
X015220Y030922D01*
X015220Y031080D02*
X015580Y031080D01*
X015580Y031239D02*
X015220Y031239D01*
X015220Y031397D02*
X015580Y031397D01*
X015580Y031556D02*
X015220Y031556D01*
X015220Y031714D02*
X015580Y031714D01*
X015580Y031873D02*
X015220Y031873D01*
X015220Y032031D02*
X015580Y032031D01*
X015580Y032190D02*
X015220Y032190D01*
X015220Y032348D02*
X015580Y032348D01*
X015580Y032507D02*
X015220Y032507D01*
X015220Y032665D02*
X015580Y032665D01*
X015580Y032824D02*
X015220Y032824D01*
X015220Y032982D02*
X015580Y032982D01*
X015580Y033141D02*
X015224Y033141D01*
X015361Y033299D02*
X015499Y033299D01*
X015440Y033458D02*
X015420Y033458D01*
X015420Y033616D02*
X015440Y033616D01*
X015440Y033775D02*
X015420Y033775D01*
X015420Y033933D02*
X015440Y033933D01*
X015440Y034092D02*
X015420Y034092D01*
X015382Y034250D02*
X015478Y034250D01*
X015586Y034409D02*
X015274Y034409D01*
X014586Y034409D02*
X014274Y034409D01*
X014382Y034250D02*
X014478Y034250D01*
X014440Y034092D02*
X014420Y034092D01*
X014420Y033933D02*
X014440Y033933D01*
X014440Y033775D02*
X014420Y033775D01*
X014420Y033616D02*
X014440Y033616D01*
X014440Y033458D02*
X014420Y033458D01*
X014361Y033299D02*
X014499Y033299D01*
X011983Y029337D02*
X011720Y029337D01*
X011720Y029178D02*
X012140Y029178D01*
X012140Y029020D02*
X011720Y029020D01*
X011720Y028861D02*
X012140Y028861D01*
X012140Y028703D02*
X011720Y028703D01*
X011720Y028544D02*
X011818Y028544D01*
X012042Y028544D02*
X012140Y028544D01*
X011825Y029495D02*
X011645Y029495D01*
X011677Y029654D02*
X011487Y029654D01*
X009140Y029178D02*
X007720Y029178D01*
X007720Y029020D02*
X009140Y029020D01*
X009140Y028861D02*
X007720Y028861D01*
X007720Y028703D02*
X009140Y028703D01*
X009140Y028544D02*
X009042Y028544D01*
X008818Y028544D02*
X008042Y028544D01*
X007818Y028544D02*
X007720Y028544D01*
X007877Y029337D02*
X008983Y029337D01*
X008825Y029495D02*
X008035Y029495D01*
X008183Y029654D02*
X008677Y029654D01*
X008640Y029812D02*
X008220Y029812D01*
X008220Y029971D02*
X008640Y029971D01*
X008640Y030129D02*
X008220Y030129D01*
X008220Y030288D02*
X008640Y030288D01*
X008640Y030446D02*
X008220Y030446D01*
X008220Y030605D02*
X008640Y030605D01*
X008640Y030763D02*
X008220Y030763D01*
X008220Y030922D02*
X008640Y030922D01*
X008640Y031080D02*
X008220Y031080D01*
X008220Y031239D02*
X008640Y031239D01*
X008640Y031397D02*
X008220Y031397D01*
X008220Y031556D02*
X008640Y031556D01*
X008640Y031714D02*
X008220Y031714D01*
X008220Y031873D02*
X008640Y031873D01*
X008640Y032031D02*
X008220Y032031D01*
X008220Y032190D02*
X008640Y032190D01*
X008640Y032348D02*
X008220Y032348D01*
X008220Y032507D02*
X008640Y032507D01*
X008640Y032665D02*
X008220Y032665D01*
X008220Y032824D02*
X008640Y032824D01*
X008640Y032982D02*
X008220Y032982D01*
X008224Y033141D02*
X008636Y033141D01*
X008499Y033299D02*
X008361Y033299D01*
X008420Y033458D02*
X008440Y033458D01*
X008440Y033616D02*
X008420Y033616D01*
X008420Y033775D02*
X008440Y033775D01*
X008440Y033933D02*
X008420Y033933D01*
X008420Y034092D02*
X008440Y034092D01*
X008478Y034250D02*
X008382Y034250D01*
X008274Y034409D02*
X008586Y034409D01*
X007636Y033141D02*
X007224Y033141D01*
X007220Y032982D02*
X007640Y032982D01*
X007640Y032824D02*
X007220Y032824D01*
X007220Y032665D02*
X007640Y032665D01*
X007640Y032507D02*
X007220Y032507D01*
X007220Y032348D02*
X007640Y032348D01*
X007640Y032190D02*
X007220Y032190D01*
X007220Y032031D02*
X007640Y032031D01*
X007640Y031873D02*
X007220Y031873D01*
X007220Y031714D02*
X007640Y031714D01*
X007640Y031556D02*
X007220Y031556D01*
X007220Y031397D02*
X007640Y031397D01*
X007640Y031239D02*
X007220Y031239D01*
X007220Y031080D02*
X007640Y031080D01*
X007640Y030922D02*
X007220Y030922D01*
X007220Y030763D02*
X007640Y030763D01*
X007640Y030605D02*
X007220Y030605D01*
X007220Y030446D02*
X007640Y030446D01*
X007640Y030288D02*
X007220Y030288D01*
X007220Y030129D02*
X007640Y030129D01*
X007640Y029971D02*
X007220Y029971D01*
X007220Y029812D02*
X007532Y029812D01*
X007373Y029654D02*
X007183Y029654D01*
X007215Y029495D02*
X007035Y029495D01*
X007140Y029337D02*
X006877Y029337D01*
X006720Y029178D02*
X007140Y029178D01*
X007140Y029020D02*
X006720Y029020D01*
X006720Y028861D02*
X007140Y028861D01*
X007140Y028703D02*
X006720Y028703D01*
X006720Y028544D02*
X006818Y028544D01*
X007042Y028544D02*
X007140Y028544D01*
X006532Y029812D02*
X006220Y029812D01*
X006220Y029971D02*
X006640Y029971D01*
X006640Y030129D02*
X006220Y030129D01*
X006220Y030288D02*
X006640Y030288D01*
X006640Y030446D02*
X006220Y030446D01*
X006220Y030605D02*
X006640Y030605D01*
X006640Y030763D02*
X006220Y030763D01*
X006220Y030922D02*
X006640Y030922D01*
X006640Y031080D02*
X006220Y031080D01*
X006220Y031239D02*
X006640Y031239D01*
X006640Y031397D02*
X006220Y031397D01*
X006220Y031556D02*
X006640Y031556D01*
X006640Y031714D02*
X006220Y031714D01*
X006220Y031873D02*
X006640Y031873D01*
X006640Y032031D02*
X006220Y032031D01*
X006220Y032190D02*
X006640Y032190D01*
X006640Y032348D02*
X006220Y032348D01*
X006220Y032507D02*
X006640Y032507D01*
X006640Y032665D02*
X006220Y032665D01*
X006220Y032824D02*
X006640Y032824D01*
X006640Y032982D02*
X006220Y032982D01*
X006224Y033141D02*
X006636Y033141D01*
X006499Y033299D02*
X006361Y033299D01*
X006420Y033458D02*
X006440Y033458D01*
X006440Y033616D02*
X006420Y033616D01*
X006420Y033775D02*
X006440Y033775D01*
X006440Y033933D02*
X006420Y033933D01*
X006420Y034092D02*
X006440Y034092D01*
X006478Y034250D02*
X006382Y034250D01*
X006274Y034409D02*
X006586Y034409D01*
X007274Y034409D02*
X007586Y034409D01*
X007478Y034250D02*
X007382Y034250D01*
X007420Y034092D02*
X007440Y034092D01*
X007440Y033933D02*
X007420Y033933D01*
X007420Y033775D02*
X007440Y033775D01*
X007440Y033616D02*
X007420Y033616D01*
X007420Y033458D02*
X007440Y033458D01*
X007499Y033299D02*
X007361Y033299D01*
X005636Y033141D02*
X005224Y033141D01*
X005220Y032982D02*
X005640Y032982D01*
X005640Y032824D02*
X005220Y032824D01*
X005220Y032665D02*
X005640Y032665D01*
X005640Y032507D02*
X005220Y032507D01*
X005220Y032348D02*
X005640Y032348D01*
X005640Y032190D02*
X005220Y032190D01*
X005220Y032031D02*
X005640Y032031D01*
X005640Y031873D02*
X005220Y031873D01*
X005220Y031714D02*
X005640Y031714D01*
X005640Y031556D02*
X005220Y031556D01*
X005220Y031397D02*
X005640Y031397D01*
X005640Y031239D02*
X005220Y031239D01*
X005220Y031080D02*
X005640Y031080D01*
X005640Y030922D02*
X005220Y030922D01*
X005220Y030763D02*
X005640Y030763D01*
X005640Y030605D02*
X005220Y030605D01*
X005220Y030446D02*
X005640Y030446D01*
X005640Y030288D02*
X005220Y030288D01*
X005220Y030129D02*
X005640Y030129D01*
X005640Y029971D02*
X005220Y029971D01*
X005220Y029812D02*
X005532Y029812D01*
X005373Y029654D02*
X005183Y029654D01*
X005215Y029495D02*
X005035Y029495D01*
X005140Y029337D02*
X004877Y029337D01*
X004720Y029178D02*
X005140Y029178D01*
X005140Y029020D02*
X004720Y029020D01*
X004720Y028861D02*
X005140Y028861D01*
X005140Y028703D02*
X004720Y028703D01*
X004720Y028544D02*
X004818Y028544D01*
X005042Y028544D02*
X005140Y028544D01*
X005720Y028544D02*
X005818Y028544D01*
X005720Y028703D02*
X006140Y028703D01*
X006140Y028861D02*
X005720Y028861D01*
X005720Y029020D02*
X006140Y029020D01*
X006140Y029178D02*
X005720Y029178D01*
X005877Y029337D02*
X006140Y029337D01*
X006215Y029495D02*
X006035Y029495D01*
X006183Y029654D02*
X006373Y029654D01*
X006140Y028544D02*
X006042Y028544D01*
X004140Y028544D02*
X004042Y028544D01*
X002745Y033141D02*
X000660Y033141D01*
X000660Y033299D02*
X002561Y033299D01*
X002498Y033458D02*
X000660Y033458D01*
X000660Y033616D02*
X002490Y033616D01*
X002490Y033775D02*
X000660Y033775D01*
X000660Y033933D02*
X002490Y033933D01*
X002490Y034092D02*
X000660Y034092D01*
X000660Y034250D02*
X002533Y034250D01*
X005274Y034409D02*
X005586Y034409D01*
X005478Y034250D02*
X005382Y034250D01*
X005420Y034092D02*
X005440Y034092D01*
X005440Y033933D02*
X005420Y033933D01*
X005420Y033775D02*
X005440Y033775D01*
X005440Y033616D02*
X005420Y033616D01*
X005420Y033458D02*
X005440Y033458D01*
X005499Y033299D02*
X005361Y033299D01*
X008297Y028386D02*
X008563Y028386D01*
X008469Y028227D02*
X008391Y028227D01*
X008420Y028069D02*
X008440Y028069D01*
X008440Y027910D02*
X008420Y027910D01*
X008420Y027752D02*
X008440Y027752D01*
X008440Y027593D02*
X008420Y027593D01*
X008417Y027435D02*
X008443Y027435D01*
X008509Y027276D02*
X008351Y027276D01*
X008191Y027118D02*
X008640Y027118D01*
X008554Y026959D02*
X007806Y026959D01*
X007965Y026801D02*
X008395Y026801D01*
X008237Y026642D02*
X008123Y026642D01*
D13*
X009430Y017050D03*
X008430Y009925D03*
X009930Y009550D03*
X009930Y007175D03*
X009430Y005800D03*
X008430Y005800D03*
X007430Y005800D03*
X006430Y005800D03*
X005430Y005800D03*
X004430Y005800D03*
X002055Y008425D03*
X001055Y011425D03*
X010430Y005800D03*
X011430Y005800D03*
X012430Y005800D03*
X013430Y005800D03*
X014430Y009550D03*
X014680Y010300D03*
X014930Y011050D03*
X016930Y012550D03*
X016930Y007300D03*
D14*
X016930Y003800D01*
X017805Y003925D02*
X017930Y003800D01*
X017805Y003925D02*
X017805Y012300D01*
X017555Y012550D01*
X016930Y012550D01*
X014930Y011050D02*
X014930Y014425D01*
X014930Y017425D01*
X015430Y017925D01*
X015430Y021175D01*
X014930Y021675D01*
X014930Y025675D01*
X014930Y026425D01*
X015430Y026925D01*
X015430Y029300D01*
X014930Y029800D01*
X014930Y033800D01*
X013930Y033800D02*
X013930Y029800D01*
X014430Y029300D01*
X014430Y026925D01*
X013930Y026425D01*
X013930Y025675D01*
X013930Y021675D01*
X014430Y021175D01*
X014430Y017925D01*
X013930Y017425D01*
X013930Y014425D01*
X013930Y010550D01*
X014430Y010050D01*
X014430Y009550D01*
X014930Y010050D02*
X014680Y010300D01*
X014430Y010550D01*
X014430Y017425D01*
X014930Y017925D01*
X014930Y019675D01*
X014930Y021175D01*
X014430Y021675D01*
X014430Y026425D01*
X014930Y026925D01*
X014930Y027800D01*
X013930Y027800D02*
X013930Y026925D01*
X013430Y026425D01*
X013430Y021675D01*
X013930Y021175D01*
X013930Y019675D01*
X013930Y017925D01*
X013430Y017425D01*
X013430Y010550D01*
X013930Y010050D01*
X013930Y008425D01*
X012930Y008425D02*
X012930Y010050D01*
X012430Y010550D01*
X012430Y017425D01*
X012930Y017925D01*
X012930Y019675D01*
X012930Y021175D01*
X012430Y021675D01*
X012430Y026425D01*
X012930Y026925D01*
X012930Y027800D01*
X013430Y026925D02*
X013430Y029300D01*
X012930Y029800D01*
X012930Y033800D01*
X011930Y033800D02*
X011930Y029800D01*
X012430Y029300D01*
X012430Y026925D01*
X011930Y026425D01*
X011930Y025675D01*
X011930Y021675D01*
X012430Y021175D01*
X012430Y017925D01*
X011930Y017425D01*
X011930Y014425D01*
X011930Y010550D01*
X012430Y010050D01*
X012430Y005800D01*
X011430Y005800D02*
X011430Y010050D01*
X010930Y010550D01*
X010930Y014425D01*
X010930Y017425D01*
X011430Y017925D01*
X011430Y021175D01*
X010930Y021675D01*
X010930Y025675D01*
X010930Y026425D01*
X011430Y026925D01*
X011430Y029300D01*
X010930Y029800D01*
X010930Y033800D01*
X009930Y033800D02*
X009930Y029800D01*
X010430Y029300D01*
X010430Y026925D01*
X009930Y026425D01*
X009930Y025675D01*
X009930Y021675D01*
X010430Y021175D01*
X010430Y017925D01*
X009930Y017425D01*
X009930Y014425D01*
X009930Y010550D01*
X010430Y010050D01*
X010430Y005800D01*
X009930Y007175D02*
X009930Y003800D01*
X008930Y003800D02*
X008930Y006800D01*
X008430Y007300D01*
X008430Y009925D01*
X008930Y010050D02*
X008430Y010550D01*
X008430Y017425D01*
X008930Y017925D01*
X008930Y019675D01*
X008930Y021175D01*
X008430Y021675D01*
X008430Y026425D01*
X008930Y026925D01*
X008930Y027800D01*
X009430Y026925D02*
X009430Y029300D01*
X008930Y029800D01*
X008930Y033800D01*
X007930Y033800D02*
X007930Y029800D01*
X007430Y029300D01*
X007430Y026925D01*
X007930Y026425D01*
X007930Y025675D01*
X007930Y021675D01*
X007430Y021175D01*
X007430Y017925D01*
X007930Y017425D01*
X007930Y014425D01*
X007930Y010550D01*
X007430Y010050D01*
X007430Y007550D01*
X008430Y006550D01*
X008430Y005800D01*
X007930Y006550D02*
X006930Y007550D01*
X006930Y008425D01*
X006930Y010050D01*
X007430Y010550D01*
X007430Y017425D01*
X006930Y017925D01*
X006930Y019675D01*
X006930Y021175D01*
X007430Y021675D01*
X007430Y026425D01*
X006930Y026925D01*
X006930Y027800D01*
X006430Y026925D02*
X006930Y026425D01*
X006930Y025675D01*
X006930Y021675D01*
X006430Y021175D01*
X006430Y017925D01*
X006930Y017425D01*
X006930Y014425D01*
X006930Y010550D01*
X006430Y010050D01*
X006430Y007550D01*
X007430Y006550D01*
X007430Y005800D01*
X007930Y006550D02*
X007930Y003800D01*
X006930Y003800D02*
X006930Y006550D01*
X005930Y007550D01*
X005930Y008425D01*
X005930Y010050D01*
X006430Y010550D01*
X006430Y017425D01*
X005930Y017925D01*
X005930Y019675D01*
X005930Y021175D01*
X006430Y021675D01*
X006430Y026425D01*
X005930Y026925D01*
X005930Y027800D01*
X006430Y026925D02*
X006430Y029300D01*
X006930Y029800D01*
X006930Y033800D01*
X005930Y033800D02*
X005930Y029800D01*
X005430Y029300D01*
X005430Y026925D01*
X005930Y026425D01*
X005930Y025675D01*
X005930Y021675D01*
X005430Y021175D01*
X005430Y017925D01*
X005930Y017425D01*
X005930Y014425D01*
X005930Y010550D01*
X005430Y010050D01*
X005430Y007550D01*
X006430Y006550D01*
X006430Y005800D01*
X005930Y006550D02*
X004930Y007550D01*
X004930Y008425D01*
X004930Y010050D01*
X005430Y010550D01*
X005430Y017425D01*
X004930Y017925D01*
X004930Y019675D01*
X004930Y021175D01*
X005430Y021675D01*
X005430Y026425D01*
X004930Y026925D01*
X004930Y027800D01*
X004430Y026925D02*
X004430Y029300D01*
X004930Y029800D01*
X004930Y033800D01*
X003930Y033800D02*
X003930Y029800D01*
X003430Y029300D01*
X003430Y026925D01*
X003930Y026425D01*
X003930Y025675D01*
X003930Y021675D01*
X003430Y021175D01*
X003430Y017925D01*
X003930Y017425D01*
X003930Y014425D01*
X003930Y010550D01*
X003430Y010050D01*
X003430Y007550D01*
X004430Y006550D01*
X004430Y005800D01*
X004930Y006550D02*
X003930Y007550D01*
X003930Y008425D01*
X003930Y010050D01*
X004430Y010550D01*
X004430Y017425D01*
X003930Y017925D01*
X003930Y019675D01*
X003930Y021175D01*
X004430Y021675D01*
X004430Y026425D01*
X003930Y026925D01*
X003930Y027800D01*
X004430Y026925D02*
X004930Y026425D01*
X004930Y025675D01*
X004930Y021675D01*
X004430Y021175D01*
X004430Y017925D01*
X004930Y017425D01*
X004930Y014425D01*
X004930Y010550D01*
X004430Y010050D01*
X004430Y007550D01*
X005430Y006550D01*
X005430Y005800D01*
X004930Y006550D02*
X004930Y003800D01*
X003930Y003800D02*
X003930Y006550D01*
X002930Y007550D01*
X002930Y008425D01*
X002930Y010050D01*
X003430Y010550D01*
X003430Y017425D01*
X002930Y017925D01*
X002930Y019675D01*
X002930Y021175D01*
X003430Y021675D01*
X003430Y026425D01*
X002930Y026925D01*
X002930Y027800D01*
X008930Y026425D02*
X008930Y025675D01*
X008930Y021675D01*
X009430Y021175D01*
X009430Y017925D01*
X008930Y017425D01*
X008930Y014425D01*
X008930Y010550D01*
X009430Y010050D01*
X009430Y005800D01*
X008930Y008425D02*
X008930Y010050D01*
X009430Y010550D02*
X009930Y010050D01*
X009930Y009550D01*
X010430Y010550D02*
X010430Y017425D01*
X010930Y017925D01*
X010930Y019675D01*
X010930Y021175D01*
X010430Y021675D01*
X010430Y026425D01*
X010930Y026925D01*
X010930Y027800D01*
X011930Y026925D02*
X011430Y026425D01*
X011430Y021675D01*
X011930Y021175D01*
X011930Y019675D01*
X011930Y017925D01*
X011430Y017425D01*
X011430Y010550D01*
X011930Y010050D01*
X011930Y008425D01*
X011930Y003800D01*
X010930Y003800D02*
X010930Y008425D01*
X010930Y010050D01*
X010430Y010550D01*
X009430Y010550D02*
X009430Y017050D01*
X012930Y017425D02*
X012930Y014425D01*
X012930Y010550D01*
X013430Y010050D01*
X013430Y005800D01*
X012930Y003800D02*
X012930Y008425D01*
X014930Y008425D02*
X014930Y010050D01*
X012930Y017425D02*
X013430Y017925D01*
X013430Y021175D01*
X012930Y021675D01*
X012930Y025675D01*
X012930Y026425D01*
X013430Y026925D01*
X011930Y026925D02*
X011930Y027800D01*
X009430Y026925D02*
X008930Y026425D01*
X001055Y011425D02*
X001055Y003925D01*
X000930Y003800D01*
X005930Y003800D02*
X005930Y006550D01*
D15*
X013930Y005675D02*
X013930Y003800D01*
X013930Y005675D02*
X015930Y007675D01*
X015930Y008425D01*
X015930Y014425D01*
X015930Y019675D01*
X015930Y025675D01*
X015930Y027800D01*
X015930Y033800D01*
M02*
